<?xml version="1.0" standalone="no"?>
<!DOCTYPE svg PUBLIC "-//W3C//DTD SVG 20010904//EN"
 "http://www.w3.org/TR/2001/REC-SVG-20010904/DTD/svg10.dtd">
<svg version="1.0" xmlns="http://www.w3.org/2000/svg"
 width="726.000000pt" height="726.000000pt" viewBox="0 0 726.000000 726.000000"
 preserveAspectRatio="xMidYMid meet">
<metadata>
Created by potrace 1.11, written by Peter Selinger 2001-2013
</metadata>
<g transform="translate(0.000000,726.000000) scale(0.100000,-0.100000)"
fill="#000000" stroke="none">
<path d="M1362 6258 c-1 -40 -3 -163 -6 -273 -3 -110 -8 -308 -11 -440 -11
-486 -14 -552 -24 -610 -24 -139 -28 -257 -17 -490 2 -64 -17 -194 -43 -285
-11 -40 -19 -73 -31 -144 -5 -27 -12 -51 -14 -54 -6 -5 -36 59 -36 75 0 5 -9
14 -20 21 -19 12 -20 10 -20 -38 0 -37 -4 -50 -15 -50 -19 0 -47 42 -49 74 0
13 -5 22 -9 19 -5 -3 -6 -15 -3 -27 11 -45 -30 -66 -86 -44 -33 12 -38 24 -44
118 -6 94 -10 127 -18 165 -3 17 -8 53 -11 80 -2 28 -7 62 -10 76 -8 37 -17
210 -30 579 -3 85 -7 166 -9 180 -3 14 -8 45 -11 70 -3 25 -13 92 -23 150 -9
58 -17 126 -17 153 0 26 -3 47 -7 47 -10 0 -10 -8 -13 -144 -2 -78 -7 -112
-17 -122 -12 -13 -14 -6 -12 48 1 51 -4 75 -26 123 -28 59 -28 59 -29 25 0
-19 -2 -111 -3 -204 -3 -153 -5 -170 -22 -180 -14 -8 -20 -8 -23 2 -3 6 -9 12
-14 12 -11 0 -12 -47 0 -54 4 -3 7 -18 5 -33 -2 -16 -6 -67 -10 -115 -7 -112
-7 -113 -23 -132 -7 -9 -10 -16 -6 -16 4 0 2 -7 -5 -16 -14 -16 -15 -42 -8
-261 2 -68 0 -123 -4 -123 -4 0 -8 -6 -8 -14 0 -8 -4 -16 -9 -18 -6 -1 -12
-14 -15 -28 -3 -14 -7 -34 -10 -46 -9 -41 -9 -90 -1 -154 12 -99 13 -105 4
-110 -5 -3 -11 -73 -15 -155 -3 -83 -8 -175 -9 -205 -2 -30 -4 -81 -5 -113 -2
-48 -6 -60 -27 -77 -14 -11 -34 -20 -44 -20 -11 0 -33 -13 -51 -30 -35 -34
-58 -38 -65 -12 -2 9 -34 33 -71 53 -59 31 -67 39 -70 67 -2 18 -7 32 -12 32
-14 0 -30 -36 -30 -67 0 -42 -31 -58 -71 -38 -28 15 -33 15 -55 0 l-24 -15 0
-215 0 -215 28 12 c15 7 31 15 36 20 6 4 17 8 26 8 8 0 30 13 48 29 27 26 61
44 84 46 3 0 10 3 14 8 13 13 24 7 24 -13 0 -21 10 -26 25 -11 6 5 28 12 49
15 35 6 43 3 64 -21 13 -16 21 -21 18 -11 -2 9 -2 19 2 23 4 3 7 14 7 23 0 41
79 7 94 -40 10 -35 19 -165 26 -383 3 -71 7 -141 10 -155 3 -14 7 -36 10 -50
2 -14 14 -65 26 -115 21 -84 22 -112 22 -402 0 -172 3 -311 7 -308 7 4 20 88
25 168 4 55 26 137 36 137 17 0 41 -120 39 -197 0 -17 3 -34 7 -36 5 -3 8 9 9
26 4 131 20 366 29 412 2 11 4 30 4 42 1 16 6 21 16 17 10 -4 15 0 15 12 0 15
35 175 55 254 2 8 16 65 31 125 32 133 42 147 84 122 17 -10 30 -17 31 -15 0
2 2 14 4 28 7 48 14 80 20 90 10 16 23 12 30 -9 8 -27 28 -32 59 -16 14 8 27
11 27 7 1 -4 3 -23 5 -42 2 -19 6 -41 9 -47 6 -17 35 -16 35 1 0 7 6 18 13 24
10 8 16 3 26 -20 8 -17 22 -33 32 -35 11 -3 19 -10 20 -17 0 -6 2 -24 5 -41 2
-16 6 -120 8 -230 5 -193 14 -343 22 -356 2 -4 6 -24 10 -45 3 -22 7 -48 9
-59 9 -46 24 -132 30 -165 4 -19 9 -116 11 -215 3 -99 7 -181 9 -183 8 -8 45
24 45 39 0 8 3 19 7 22 3 4 8 21 10 38 2 17 7 38 13 47 11 20 12 5 12 -161 0
-59 3 -107 7 -107 3 0 11 8 18 19 6 10 22 18 35 17 18 -1 23 -7 24 -31 2 -27
11 -154 19 -260 2 -22 4 -47 4 -55 1 -9 4 -10 10 -5 8 9 16 67 11 88 -1 7 -2
118 -1 154 1 25 16 5 18 -25 12 -178 16 -203 27 -191 7 7 16 62 18 108 2 47
14 46 17 -1 1 -18 3 -45 4 -60 2 -30 12 -45 14 -20 4 63 12 84 20 49 1 -7 4
-21 7 -32 2 -11 5 -24 5 -28 1 -5 5 -6 9 -3 4 2 9 24 10 48 7 117 25 220 43
243 17 22 28 105 30 230 1 72 6 146 10 165 13 65 20 134 24 250 3 64 11 136
18 161 8 24 12 55 10 69 -8 57 -9 77 -4 107 8 42 31 30 37 -18 2 -19 5 -43 7
-54 8 -38 21 -130 19 -138 -3 -12 16 -8 20 6 3 6 5 53 7 102 2 124 9 163 34
215 28 58 52 64 61 16 8 -40 25 -49 27 -13 5 107 19 174 35 170 5 -1 10 -15
12 -30 6 -48 21 -51 52 -13 31 38 38 37 46 -6 11 -63 26 -43 24 33 -3 124 0
134 29 126 15 -4 18 -14 17 -61 -1 -52 1 -57 22 -60 13 -2 23 2 23 10 1 7 2
36 4 63 1 28 2 59 3 71 2 23 39 44 78 44 19 0 26 -6 31 -31 8 -41 25 -46 62
-18 29 22 32 22 48 6 12 -12 17 -36 18 -90 2 -73 19 -147 35 -147 4 0 14 24
20 53 28 118 35 89 40 -169 4 -212 7 -249 20 -249 13 0 15 30 14 208 0 170 2
205 12 195 16 -16 17 -44 9 -163 -4 -49 -6 -94 -6 -100 0 -5 1 -63 2 -127 2
-116 13 -145 25 -67 11 64 34 67 40 5 1 -20 5 -40 9 -45 6 -11 40 -7 41 5 0 5
4 34 9 64 10 66 13 90 14 109 2 37 13 -5 18 -66 2 -37 8 -71 12 -76 10 -10 61
83 82 148 9 28 20 76 23 107 8 65 11 85 32 178 3 14 7 53 9 88 5 85 12 102 38
102 15 0 27 -11 37 -33 17 -37 45 -47 54 -19 4 10 29 29 56 42 53 25 64 42 64
104 1 55 22 57 37 4 11 -40 12 -41 22 -20 11 24 29 27 75 11 31 -11 47 -40 30
-57 -12 -12 0 -112 13 -112 7 0 13 24 7 33 -4 5 23 47 31 47 5 0 9 -55 9 -122
-1 -193 19 -810 27 -848 3 -14 8 -41 10 -60 3 -19 7 -44 9 -55 3 -11 5 -26 5
-34 2 -35 14 0 27 78 8 46 19 75 35 88 12 9 14 -11 14 -120 0 -169 6 -225 49
-444 3 -12 21 -84 42 -160 20 -76 39 -150 42 -166 2 -15 8 -30 13 -33 10 -6
10 -11 9 263 0 118 3 203 9 203 5 0 11 -12 14 -28 12 -58 19 -88 24 -102 3 -8
20 44 39 115 25 94 36 157 39 230 4 123 10 185 30 320 15 108 23 255 25 492 0
109 5 195 11 198 5 4 9 -10 9 -30 0 -42 44 -95 78 -95 28 0 70 53 79 98 4 20
8 40 9 45 1 4 2 33 3 64 2 92 23 49 26 -54 3 -96 18 -154 36 -136 10 10 12 59
10 192 -1 44 43 161 60 161 4 0 10 8 14 18 3 9 18 32 34 51 l29 35 1 -27 c3
-50 4 -57 13 -57 4 0 8 8 8 19 0 38 24 43 89 21 49 -16 65 -18 86 -8 14 6 25
15 25 20 0 4 6 8 14 8 18 0 60 -63 88 -131 21 -52 45 -90 90 -141 9 -11 22
-35 28 -54 15 -45 26 -43 25 4 0 33 2 38 17 34 23 -6 26 -57 12 -197 -12 -125
-4 -314 16 -382 7 -25 8 -22 9 22 7 250 7 261 25 298 22 46 27 46 24 4 -1 -18
2 -38 6 -45 4 -7 3 -12 -1 -12 -9 0 -9 -3 2 -170 8 -140 19 -265 31 -385 3
-27 7 -81 9 -120 5 -99 7 -106 14 -56 8 56 26 63 45 17 28 -67 35 -42 33 117
-1 83 2 170 7 192 15 70 17 97 22 230 4 138 8 196 24 420 10 124 15 184 19
207 3 16 35 38 56 38 17 0 28 9 40 34 18 38 47 54 92 51 26 -2 34 2 44 26 9
24 14 27 26 18 7 -7 36 -22 63 -35 28 -13 51 -27 51 -31 1 -4 2 -25 3 -45 1
-20 10 -46 20 -56 41 -46 47 -104 55 -494 1 -26 6 -38 15 -38 11 0 14 18 14
78 1 206 2 219 15 219 11 0 13 -37 12 -186 -1 -197 6 -251 36 -251 19 0 43
-33 32 -44 -7 -7 -6 -253 3 -345 6 -73 18 -99 22 -48 5 67 15 75 28 22 12 -50
13 -47 19 30 8 118 17 220 21 224 10 10 14 -11 16 -87 2 -44 6 -78 10 -74 11
12 18 71 23 197 3 66 8 130 11 143 l5 23 24 -28 24 -28 1 42 c0 33 4 43 20 48
19 6 20 16 22 163 0 86 2 162 3 167 2 6 3 19 4 30 3 52 46 -72 55 -160 3 -27
8 -77 12 -110 7 -71 14 -83 15 -29 2 77 9 118 43 257 8 31 12 57 10 57 -4 0
20 31 43 55 24 25 55 94 52 117 -4 38 10 84 58 185 34 71 46 109 47 144 l0 48
34 -15 c19 -8 36 -14 37 -14 7 0 37 -54 41 -73 8 -34 11 -107 29 -662 2 -60 6
-182 9 -270 4 -88 8 -230 11 -315 3 -85 7 -166 9 -180 2 -14 7 -47 10 -75 3
-27 8 -61 11 -75 3 -14 7 -47 11 -75 3 -27 9 -66 13 -85 4 -20 7 -43 5 -53 -1
-9 2 -17 7 -17 5 0 9 17 10 38 1 33 4 71 8 110 2 21 20 13 35 -15 l15 -28 2
50 c1 28 2 58 2 68 0 24 13 21 22 -5 7 -21 8 -20 14 12 4 19 6 47 5 63 -2 33
18 36 39 4 12 -16 16 -18 17 -7 2 21 7 64 14 142 4 37 9 188 11 335 4 256 6
297 20 451 8 87 22 184 31 214 3 9 7 26 9 39 6 29 15 37 15 12 0 -11 18 -45
40 -75 46 -64 56 -102 59 -217 5 -200 15 -259 53 -333 19 -36 32 -118 18 -118
-7 0 -5 -76 4 -130 4 -25 9 -56 12 -70 2 -14 8 -38 13 -55 l9 -30 2 35 c1 19
3 46 6 60 3 24 16 89 19 100 0 3 4 27 9 53 4 27 10 59 12 70 3 12 5 69 4 127
0 58 -1 166 -2 241 -1 126 3 159 20 159 4 0 6 -64 6 -142 -2 -160 10 -142 15
22 1 58 4 107 7 109 9 9 13 -8 18 -71 5 -72 24 -154 33 -144 3 3 5 68 4 145
-1 76 3 150 8 163 9 21 10 20 11 -12 6 -112 24 -261 40 -330 4 -19 8 534 8
1230 0 976 -3 1249 -12 1196 -6 -38 -17 -71 -23 -74 -7 -2 -13 1 -13 8 0 6 -4
8 -10 5 -6 -4 -9 44 -9 127 1 73 -1 147 -4 163 -3 17 -6 39 -6 49 -2 49 -14
-1 -25 -101 -3 -24 -9 -51 -15 -60 -9 -15 -11 -12 -12 17 -5 123 -23 208 -53
252 -15 21 -16 20 -16 -42 -1 -89 -7 -160 -14 -167 -10 -11 -27 51 -32 122 -3
38 -7 79 -9 90 -2 11 -4 29 -4 39 -1 11 -4 16 -8 12 -12 -12 -18 -198 -9 -320
4 -62 2 -83 -11 -103 -10 -15 -17 -51 -19 -91 -4 -101 -10 -120 -49 -168 -20
-24 -38 -44 -40 -44 -2 0 -3 15 -3 33 0 40 -12 192 -18 220 -10 55 -17 83 -23
92 -6 10 -7 16 -10 36 0 5 -5 8 -10 4 -6 -3 -8 -13 -6 -23 1 -10 -3 -26 -11
-37 -13 -17 -14 -14 -14 36 -1 173 -11 718 -15 794 -8 160 -16 279 -20 310 -3
17 -7 57 -10 89 -3 33 -8 73 -11 90 -4 17 -7 37 -7 44 0 14 -10 7 -13 -11 -1
-7 -5 -41 -8 -77 -4 -36 -11 -92 -15 -125 -9 -63 -9 -64 -15 198 -1 41 -18 49
-38 17 -23 -37 -35 -23 -30 34 3 39 -3 81 -23 152 -31 110 -45 144 -44 104 2
-34 -10 -316 -16 -393 -14 -189 -22 -351 -30 -582 -2 -60 -7 -211 -11 -335 -7
-229 -7 -1043 1 -1181 l4 -76 -39 -32 c-21 -17 -44 -31 -49 -31 -12 0 -12 2
-15 73 -1 34 -7 55 -22 70 -13 13 -20 32 -18 47 2 14 5 39 7 56 2 17 -1 44 -7
59 l-11 27 -19 -42 c-10 -23 -20 -40 -22 -38 -2 2 -6 29 -10 59 -3 30 -7 63
-9 74 -1 11 -3 35 -4 54 -1 41 -15 32 -17 -10 -1 -16 -2 -39 -4 -51 -4 -45
-18 26 -18 91 0 64 -12 91 -42 91 -16 0 -18 9 -16 75 0 41 -3 75 -7 75 -5 0
-6 4 -3 9 7 10 18 107 19 166 1 56 -12 105 -35 129 -38 40 -50 65 -51 110 0
25 2 48 5 52 4 3 3 17 -3 31 -5 13 -9 36 -9 50 0 44 -9 20 -13 -35 -6 -88 -16
-74 -31 43 -9 66 -18 131 -22 150 -10 49 -49 367 -58 470 -14 170 -18 210 -21
213 -8 9 -47 -171 -47 -216 -1 -81 -20 -48 -26 42 -2 42 -8 74 -12 71 -6 -4
-29 -73 -36 -107 -1 -5 -2 -9 -4 -10 -2 -3 -6 -18 -14 -56 -3 -13 -7 -31 -10
-40 -10 -32 -46 -248 -51 -302 -2 -19 -6 -64 -9 -100 -12 -122 -17 -196 -32
-480 -4 -63 -8 -133 -9 -155 -2 -22 -4 -58 -4 -79 -1 -22 -4 -36 -8 -32 -5 4
-9 103 -9 219 -2 265 -6 377 -15 377 -4 0 -7 -116 -7 -257 0 -222 -4 -338 -12
-338 -1 0 -3 -16 -5 -35 -1 -19 -6 -64 -10 -100 -9 -86 -13 -133 -15 -200 -3
-72 -9 -97 -21 -79 -4 8 -6 24 -3 36 4 15 -2 32 -19 52 l-24 30 -12 -25 c-13
-30 -37 -40 -56 -24 -17 14 -21 8 -28 -58 -5 -40 -38 -92 -58 -92 -4 0 -8 15
-8 33 -1 17 -3 48 -5 67 -2 19 -4 40 -5 46 0 7 -9 15 -18 18 -22 9 -43 -18
-43 -55 0 -37 -14 -44 -49 -23 -36 21 -43 44 -46 152 -3 80 -14 126 -16 66 -1
-16 -2 -56 -3 -89 -1 -33 -6 -71 -10 -85 -17 -49 -23 11 -21 195 10 769 8
1035 -10 1119 -2 12 -6 39 -9 61 -3 22 -8 51 -12 65 -3 14 -6 30 -6 37 -1 7
-5 10 -9 7 -5 -2 -6 -11 -3 -18 8 -22 -21 -39 -45 -26 -17 9 -21 20 -21 61 0
32 -4 49 -11 47 -6 -2 -10 -7 -10 -11 0 -3 -7 -23 -15 -43 -12 -29 -15 -95
-16 -357 -1 -337 -7 -399 -47 -440 -17 -17 -17 -5 -17 239 0 192 -3 259 -12
262 -8 2 -12 -16 -13 -62 -1 -36 -3 -69 -4 -73 -1 -5 -5 -27 -10 -51 -4 -23
-12 -45 -16 -48 -5 -3 -7 -9 -5 -13 3 -4 1 -25 -5 -47 -8 -33 -15 -270 -9
-299 1 -5 1 -14 0 -20 -1 -5 -3 -73 -5 -150 -2 -77 -6 -156 -9 -175 -3 -19 -8
-53 -11 -75 -7 -54 -11 -72 -25 -125 -6 -24 -13 -56 -14 -70 -4 -59 -50 -70
-80 -19 l-19 32 -68 -74 c-38 -40 -70 -71 -73 -68 -2 2 -7 29 -10 58 -4 30 -8
57 -10 58 -4 4 -26 -50 -32 -77 -2 -8 -5 -39 -8 -68 -2 -30 -7 -57 -11 -60
-13 -14 -33 29 -28 62 4 28 1 35 -16 41 -12 3 -24 17 -27 30 -5 20 -10 23 -34
18 -42 -8 -47 5 -66 192 -6 61 -13 118 -18 140 -2 11 -5 35 -5 53 -1 30 -2 31
-22 20 -21 -14 -22 -13 -56 39 -11 17 -13 16 -19 -7 -7 -21 -9 -18 -21 30 -17
71 -21 85 -23 85 -4 0 -9 56 -14 155 -7 123 -14 206 -21 240 -3 14 -8 39 -11
55 -3 17 -22 71 -43 120 -61 142 -56 121 -76 375 -8 101 -16 157 -25 189 -4
16 -7 109 -5 205 1 97 -1 176 -6 176 -21 0 -42 -69 -45 -150 -4 -96 -11 -133
-23 -126 -5 3 -12 20 -16 38 -4 18 -9 40 -11 48 -2 8 -6 33 -8 55 -5 46 -15
98 -21 104 -3 2 -3 -62 -2 -143 2 -145 -7 -182 -26 -103 -5 20 -14 37 -19 37
-6 0 -8 -9 -5 -20 3 -11 2 -18 -3 -15 -4 2 -8 25 -8 49 -1 47 -10 142 -18 179
-2 11 -6 39 -9 60 -6 40 -45 180 -64 230 -26 68 -55 -27 -76 -248 -19 -202
-23 -300 -29 -700 -3 -181 -6 -330 -7 -330 0 0 -2 -43 -4 -95 -4 -117 -14
-250 -19 -259 -4 -6 -19 -123 -19 -146 0 -5 4 -57 8 -113 6 -91 5 -108 -11
-138 -23 -42 -38 -39 -44 11 -3 21 -10 40 -16 42 -12 4 -13 1 -15 -86 -2 -86
-37 -154 -98 -192 -31 -20 -48 -26 -61 -19 -13 7 -20 2 -34 -21 -9 -16 -21
-29 -26 -29 -15 0 -27 33 -24 68 2 17 4 38 4 45 1 10 -1 20 -10 57 0 3 -7 -8
-14 -25 l-13 -30 -8 30 c-4 17 -10 43 -14 59 -6 25 -9 27 -21 15 -45 -42 -45
-42 -46 44 -1 45 -5 143 -9 217 -4 74 -9 158 -10 185 -2 28 -6 82 -10 120 -3
39 -8 90 -10 115 -2 25 -7 70 -10 100 -4 30 -8 82 -10 115 -1 33 -3 78 -5 100
l-2 40 -9 -33 c-6 -18 -15 -32 -21 -30 -12 4 -14 15 -21 85 -5 58 -17 66 -18
12 -2 -135 -7 -187 -22 -214 -13 -25 -16 -27 -17 -10 -3 49 -19 88 -21 49 -1
-30 -15 -138 -25 -187 -5 -30 -17 -201 -17 -269 0 -38 -5 -58 -12 -58 -9 0
-12 45 -11 170 1 165 -3 190 -30 172 -6 -4 -10 -114 -9 -277 1 -204 -2 -275
-12 -290 -12 -17 -13 -14 -14 30 -1 86 -1 307 1 382 2 80 -13 128 -24 77 -4
-16 -8 -83 -11 -149 -2 -66 -7 -167 -11 -225 -3 -58 -6 -112 -6 -120 1 -34 -9
-60 -23 -60 -8 0 -15 -4 -15 -10 0 -5 -6 -10 -13 -10 -8 0 -14 -15 -16 -42 -6
-90 -7 -93 -28 -93 -26 0 -83 -41 -83 -59 0 -7 -8 -21 -19 -30 -18 -16 -19
-16 -25 9 -4 14 -12 25 -18 25 -6 0 -9 -3 -5 -6 10 -10 -14 -64 -29 -64 -8 0
-13 3 -12 8 0 4 -2 15 -7 25 -6 14 -17 18 -49 16 -22 -2 -44 -8 -48 -14 -7 -9
-9 10 -14 105 0 19 3 40 8 47 12 15 14 151 4 228 -5 33 -9 66 -9 73 -1 19 -3
16 -38 -45 -50 -87 -57 -106 -53 -151 2 -23 1 -42 -4 -42 -24 1 -102 165 -116
245 -13 81 -26 144 -36 180 -12 41 -73 195 -91 229 -6 10 -12 26 -14 35 -2 9
-10 36 -18 61 -23 70 -31 125 -33 250 -2 187 -1 176 -24 155 -11 -10 -20 -28
-20 -39 -1 -12 -7 -32 -15 -46 l-14 -25 -1 30 c-2 106 -10 274 -14 295 -3 14
-8 39 -11 55 -15 76 -30 125 -38 125 -5 0 -7 -7 -3 -15 3 -8 2 -15 -3 -15 -4
0 -7 27 -7 59 1 45 -4 64 -18 80 -11 12 -22 17 -26 11 -3 -5 -6 -57 -5 -114 0
-58 -2 -103 -4 -100 -3 3 -6 15 -7 27 0 12 -4 47 -8 77 -3 30 -8 73 -11 95 -2
22 -6 54 -9 70 -3 17 -8 50 -11 75 -3 25 -8 52 -10 60 -5 20 -18 120 -19 147
-1 31 -13 15 -20 -27 -6 -38 -19 -189 -19 -232 0 -15 -4 -25 -9 -22 -4 3 -8
14 -8 25 0 11 -7 36 -16 57 -9 20 -18 62 -20 92 -6 92 -13 164 -17 185 -3 12
-8 47 -12 80 l-8 58 -33 -69 c-31 -66 -33 -68 -39 -39 -15 66 -26 105 -29 105
-2 0 -4 -33 -4 -72z m195 -463 c0 -8 -4 -12 -9 -9 -5 3 -6 10 -3 15 9 13 12
11 12 -6z m-1 -50 c1 -8 -1 -17 -5 -19 -4 -3 -7 6 -7 19 0 25 8 25 12 0z m-1
-105 c0 -38 -3 -70 -7 -70 -10 0 -11 124 -1 133 3 4 7 7 7 7 1 0 1 -31 1 -70z
m5112 18 c-3 -8 -6 -5 -6 6 -1 11 2 17 5 13 3 -3 4 -12 1 -19z m-4932 -147 c0
-55 -3 -102 -5 -105 -3 -2 -5 44 -5 104 0 59 2 107 5 105 3 -2 6 -49 5 -104z
m2019 93 c3 -8 2 -12 -4 -9 -6 3 -10 10 -10 16 0 14 7 11 14 -7z m-2200 -59
c3 -8 1 -15 -4 -15 -6 0 -10 7 -10 15 0 8 2 15 4 15 2 0 6 -7 10 -15z m-7 -57
c-3 -7 -5 -2 -5 12 0 14 2 19 5 13 2 -7 2 -19 0 -25z m8 -48 c3 -5 1 -10 -4
-10 -6 0 -11 5 -11 10 0 6 2 10 4 10 3 0 8 -4 11 -10z m-8 -42 c-3 -8 -6 -5
-6 6 -1 11 2 17 5 13 3 -3 4 -12 1 -19z m5123 -13 c0 -14 -2 -25 -4 -25 -2 0
-6 11 -8 25 -3 14 -1 25 3 25 5 0 9 -11 9 -25z m-4939 -18 c-10 -9 -11 -8 -5
6 3 10 9 15 12 12 3 -3 0 -11 -7 -18z m6 -32 c0 -8 -4 -12 -9 -9 -5 3 -6 10
-3 15 9 13 12 11 12 -6z m4933 -25 c0 -22 -3 -40 -8 -40 -4 0 -6 18 -4 40 2
22 6 40 8 40 2 0 4 -18 4 -40z m0 -96 c0 -8 -5 -12 -10 -9 -6 4 -8 11 -5 16 9
14 15 11 15 -7z m0 -34 c0 -5 -5 -10 -11 -10 -5 0 -7 5 -4 10 3 6 8 10 11 10
2 0 4 -4 4 -10z m-2494 -955 c1 -8 -1 -17 -5 -19 -4 -3 -7 6 -7 19 0 25 8 25
12 0z m1674 -2330 c0 -8 -4 -15 -8 -15 -5 0 -9 7 -9 15 0 8 4 15 9 15 4 0 8
-7 8 -15z"/>
<path d="M799 2268 c-7 -29 -8 -47 -3 -68 l6 -25 12 24 c14 24 11 57 -5 67 -5
3 -9 4 -10 2z"/>
<path d="M620 1324 c0 -92 3 -164 7 -160 9 9 10 317 1 323 -5 2 -8 -71 -8
-163z"/>
<path d="M1399 1342 c-1 -12 -2 -25 -3 -29 -11 -41 -17 -130 -11 -160 l8 -38
12 40 c12 38 12 191 1 203 -3 3 -7 -4 -7 -16z"/>
</g>
</svg>
