<svg id="Layer_1" data-name="Layer 1" xmlns="http://www.w3.org/2000/svg" viewBox="0 0 1280 640"><defs><style>.cls-1{fill:rgba(233, 196, 106, 1);}.cls-2{fill:rgba(244, 162, 97, 1);}.cls-3{fill:#fdfdfd;}</style></defs><path class="cls-1" d="M206,297.05c.37,2.21-.32,4.61,1.63,7.48.35-3.53.63-6.28,1-9.63,1.32,2.8,2.39,5.08,3.49,7.43a3.5,3.5,0,0,0,1.52-2.11c.61,2.52,1.42,5.92,2.21,9.24,2.65-.14,1.37-3.85,3.91-3.08,2.2,3.18.95,7.37,1.94,11.36,1.95-2.14,1.95-2.14,3,1.06,1.62-2,.81-4.68,2.23-7.57,2,3.4.71,6.85,2.44,9.37,1.62-1.06-.61-3.85,2-4.36.23,0,.78,1.54,1.21,2.44,1-1.3.68-3.29,2.55-4.39.4,2.17.77,4.23,1.4,7.67,2-8.8,2.9-16.3,2.58-23.93,2.06,1.75,1.53,4.25,1.81,6.49.64,5.16,0,10.5,2.33,15.49,0-3.53,3.37-6,2.68-9.74-.15-.79-.31-2.15,1.23-2.15,1.24,0,1.73,1,1.83,2,.25,2.44.35,4.89.42,6-2.38-3.76,5.4-4.63,4.47-9.05.55,3.23,1.11,6.47,1.92,11.16a173.91,173.91,0,0,0,.18-24.28l.12-2.9c4.1,9.4,1.39,19.54,2.8,30.6,1.36-4.55,0-8,1.66-11.48,1.42,3.82.36,7.51,1,11.07.76-1.55.36-3.59,2.56-4.88-.77,4.65,2.76,6.92,4.48,10.11,1.46-8.58,2.91-17.06,4.35-25.53a4.17,4.17,0,0,0,.15-.87c1.31,2.53,1.16,5.57,2.34,8,.93,1.92,5.48-.6,5.3,3.6,2-.54,1.6-2.46,3-3.19,1.24,1.33,2.45,2.69,2.33,4.68a5.76,5.76,0,0,0,3.05,5.74c3.28,1.95,3.35,5.18,3.35,8.31,4.17-6.56,4.84,3.79,8.22,1.27-.76-2.35,2.53-3.81,2.31-6.51,6.21-12.57,5.25-26.09,5-39.46,0-2.9,2.19-4.65,2.23-7.26l2.16,8,.45-.15V268.87l.29-6.85,1.54.28c.07,3.57.13,7.14.2,10.72-1.21,3.12-.45,6.36-.51,9.54-.06,3,1.63,2.59,3.49,1.62.17,3.12-.27,6.3,1.09,10.83,2.33-5.57,1.3-10.27,1.59-14.63.75,13.23,1.93,26.46,5.6,39.27,1.33.66,1.16-3.07,2.77-.86,1.4,1.91,2.52-2,3.78,0,2.38-1.62,2.38-1.62,5,1.08,2.32-7.9,1.78-16.53,7.42-23l1.41,8.51.46-.06v-9.35c1.54-1.53,1.4.16,1.51.88.36,2.37.61,4.76,1,8.18a10.71,10.71,0,0,0,2.62-7.42c.29,1.84.59,3.69.89,5.53-.36,3.93,2.18,6.31,4.84,8.88a8,8,0,0,1,3.08-6.81c.15,2.26.28,4.36.43,6.6.91-.86.53-2.83,2.42-2.52.51.82,1,1.64,1.89,3,.35-2.21.64-4,.91-5.7.25,1.55,2.77,1.89,2.37,4.17-.17,1-.68,2.93,1,3.18,2,.3,2.23-1.46,2.37-3a10.15,10.15,0,0,1,.31-1.31c.15,1.75.3,3.4.44,5,1.32.28,1.27-.92,1.84-1.39.06.42.1.84.2,1.25.41,1.67-.12,3.63,1.68,5.29,1.84-1.75.71-4.16,1.61-6,1.69.22,2.37,1.8,2.95,2.94.95,1.82,1.81,2.1,3.38.94.31-.23.83-1.62.77-.69-.26,4.09,4.44,1.24,5.11,4,.11.48,1.85,1,2.59-.76,1.19-2.85.63.35.77.44,2.12,1.29,3.47,1.36,3.45-1.78,1.14,1.71.24,4.62,3.42,5.13.21-2.1.41-4.18.73-7.38.29,3.44.49,5.75.69,8.06l.6.06,1.11-6.17c-.41,2.16-.29,4.35,2.24,5.27.86.31.92.16,1.26-3.49-.67,1.14.08,2,.91,2.81,1.82-.46.44-2.72,2-3.52.26,1.72.51,3.33.76,5,2.51-1.33,2.51-1.33,4.08-16.33,2.06,1.6.11,4.55,2.57,6.8.36-3.41.68-6.23.06-9.12.05-8.13.16-16.26.11-24.38a35.57,35.57,0,0,1,1.29-9.31c2.63.91,1.27,3.09,1.29,4.65.13,7.58.06,15.17.06,22.76C423,294.12,421,288.39,423,283l.27,1.82c-1.53,4.9,2.75,1,3.55,2.33L427,299c.1,6.56,3.08,12.18,5.93,17.81.3.59,1.38.78,2.09,1.16.24,1.57-.12,3.34,1.39,4.52,2-1-1.56-4.07,2.1-4.69,4.32-.73,4.6,2.8,6.29,5a5.15,5.15,0,0,0,1.69-2.86s.2,1.29.4,2.65c1.64,0,.52-1.78,1.85-2,.26,1.17.56,2.46,1,4.6,1.34-2.31,3.71-2.25,4.37-4.8,1.13-4.41.69-8.85.95-13.27,2.43,1.23-.22,4.49,2.39,5.86.25-2.52.92-4.87,0-7.25l.18-8.73c1.64-1.07,1.93-2.78,2.3-4.52.22-1-.32-2.88,1.91-2.39-.72,3.71,2.43,5.51,4.19,7.84,1,1.28.54-1.44,1.58-1.39l.42,3.39c-.77,3.23,4.32,4.12,2.73,7.67,1.84-2.73-.32-6.24,2.34-8.6l.06,7.85v11.48c1.6-3-.82-7.17,3-9.54,1.47,2.22.29,4.91,2.06,6.75.72-1.2-.22-2.9,1.46-4.11.26,3.35.51,6.43.72,9.05,3.18-.26,2.4-2.7,2.62-4.7.53-4.89-.73-9.89.87-14.72.08,3.6.16,7.19.23,10.79a58.32,58.32,0,0,1-.25,6.35c-.59,4.21.72,6.36,5.29,5.48a29,29,0,0,1,1.82-4.53c1.24-2.06,2-1.38,2.18.66-1,3.24.46,3.3,2.82,2.15l.2,2.42.52,0c.14-2.27.29-4.55.43-6.83,1.46.32.34,2.1,1.9,3.19V300.89l.75,0c.06.71.11,1.42.16,2.13a139.21,139.21,0,0,0-.07,20.32c.05,1-.77,3.16,2.12,2.73,2.33-.34,1.87-1.73,1.93-3.06.06-1.65,0-3.3,0-5.49,4.12,3.61,2.7,9.48,6.85,12.19.31-1.89,2.72-2.26,4.15-3.7l.14-2.13.12-1.56.13-.48c.12.11.36.23.35.33-.46,4.48,2.73,5.83,6,7.05,1.87-11.95,1-24.1,2.35-36.11,2.28,3.28,0,7.53,2.46,10.9-2-7,4.08-12.53,3.15-19.3-.18-1.33,1-1.46,2.06-1.48.85,2.85-1,6.06,1.19,8.72,1.49.66,2.43.38,2.45-1.45l0,.19c1,4.14-.28,8.68,2.46,12.72V282.87c.1-2.12.21-4.24.33-6.84,1.52,1.73.68,3.41,1,4.85v11.67c1.52-1.44.14-3.51,1.69-4.52q.33,3.35.67,6.69c-.41,1.22-.84,2.44.1,3.61l1.34-1.21c.33.33,1,.71.92,1-.89,5.35,2.06,10.19,2,15.37,0,3.46,2.36,5.67,4.62,4.92,5.1-1.71,4.09,3.06,6,4.6.83.68.07,2.23,1.31,2.85,1.42-1.21.48-3.19,1.37-4.6,1.48.84.23,2.71,2.26,3.46.22-1.59.42-3.1.61-4.6,4.59-1.24,2-5.68,3.68-8.24.05-3.28.09-6.56.14-9.85,3.47,1.71,3.82-.51,3.9-3.09,0-.65.09-1.29.14-1.94,0-1.72.11-3.43.17-5.14l1.81.23c.93,2.18-1.84,5.48,2,6.75-.43,3.52,3,6.09,2.28,9.19,2.29-3.76,2.6-8.34,2.59-13,0-.81.1-1.65,1.09-1.95,0,1.63.09,3.25.14,4.88-1.38,7.2,3.32,13.7,2.08,20.88,1.59-3.81-.06-7.92,1.66-11.65a29.56,29.56,0,0,0,1.15,4.72c.28.65.46,3.95,2.37.81a5,5,0,0,1,.37-.53,10.51,10.51,0,0,1,.89,1.69c.53,1.62.85,2.3,2.53.64.76-.74.35,1.58,1.66,2.09.15-1.7.3-3.3.44-4.91l.81,0v6.24c3.15,1.26,4,7.79,9.33,4.16,0,0,.62,1.22,1.12,1.41,2.06.8,3.5,3.28,5.21,3.47,2.9.33,3-.28,3.83,2.22.34-1.35.62-2.46,1.09-4.35.31,1.94.48,3,.67,4.21,1.64-1.4,3-4.26,5.49-1.94,2.37,2.19.73-1.47,1.94-.88.15,1.25.32,2.64.48,4l.21-1.66c2.62,1.95,4.31-2.48,7.21,1.45.24-3,.8-5.07.12-7.21l.33-11.84c1.1-.85,1-2,.7-3.14l.39-1.67c2.36.57.78,3.57,2.75,4.74.52-3.8-.21-7.47,1.73-10.85.17,2.64.33,5.11.44,6.95,5.53-2.88,4.95-8.56,5.35-13.91,0-.31.76-.55,1.16-.83,0,3.92,0,7.83,0,11.74-1.09,2.18-.34,4.38-.15,6.62.34-2.13.68-4.18,2.47-5.62l1.3,5.84c1.55-.78.65-2.14,1.32-3,.91,2.93,3.38,7.36,4.75,7.7,4.18,1,2.7,5.91,6,6.82.94.26,2.37,1,2.75.66,2.95-2.76,3.56.5,5.62,3.15.93-7.17,1.7-13.09,2.47-19,6.4-.66,7.24-5.23,7.39-10.38.61,3.93,1.22,7.85,1.81,11.62,4.67-3.28,5-8.69,6.76-13.62l.66,6h.54c.19-2.49.39-5,.6-7.63l4.87,3v7.28h.89c.23-2.75.46-5.51.71-8.57,1.48,2.91,1.33,5.83,2.07,9.72l.91-5.27c1.78.19,1.35,1.57,1.36,2.64,0,3.23,0,6.47,0,9.7,2.25-3,.46-6.54,2.1-9.15A33.58,33.58,0,0,1,708,314.16c.79-3.67,1.38-6.35,2-9,2.16-1.5.24-4.14,1.81-6.12,1.91,1.47.54,3.73,1.48,5.48,1-1,.57-2.31.76-3.42,1.65-.3,1.28,1.29,1.87,2l.15,1.86c1.46,2.95,5.62,3.42,6.1,7.23,1.17-1.8,2.14-3.27,3.1-4.74l.89.45a22.37,22.37,0,0,1,2.31,7.66c.33-2.68.28-5.43,2.7-7.29q.6-6,1.21-11.93c1.11,0,1-2.44,2.65-1.34.68,3,1.48,6,2,9.08a1.94,1.94,0,0,0,1.87,1.87c1.63.12,1.09-1.3,1.18-2.11.63-5.91.39-11.91,2-17.71,2.52,4.27.05,9,1.43,13.13.32-2.44.63-5.17,1-7.88.11-.69.29-2.29,1-1.67,3.16,2.75,1.6-.75,1.86-1.38a19.43,19.43,0,0,0,.71-3.34c2.07,3,.79,6.52,1.46,9.74-.83,2-.71,3.22,1.93,2.65.09.89.19,1.79.28,2.68-1.07,1.66-.27,2.91,1,4.69-.28-2.45,1.72-3.75,1.19-5.69a31.93,31.93,0,0,0,3.36-11.91c1.35,3.75-.26,8.1,3.42,11.11,3.41-4.1,1-9.3,2.61-13.72,2.27,4.32-.7,9.89,3.41,13.71-.33,1.32-.68,2.65.8,4l2.28-4.19c.69,2.29-.59,6.81,1.3,6.63,3.66-.35,1.19-4.5,1.87-6.93.41-1.5.21-3.17.34-6.07,2.66,3.93,1.26,7.24,1.84,10.18-.6,2.39-.27,4.73.17,8.54,1.39-3.58,1.94-5.86,1.64-8.32l.21-3.83c1-1.14,1.93,1.3,2.37.38a25.08,25.08,0,0,0,2.27-14.68v-5.34l1.1-.09,1.11,12.42c-.14,1.21-.59,2.52,1.3,3.55,0-1.35.64-2.4-.32-3.46.09-1.57.19-3.14.28-4.71,3.29,1.29.71,4.53,2.19,6.54.3-1.42.57-2.75,1.11-5.38.33,3,.51,4.57.64,5.76,2.94-1.69,1.64-6.4,5.29-8a98.85,98.85,0,0,0,3,25.29c.48-2.34,2.53-4.21,1.39-6.88.38,2.38.77,4.77,1.31,8.16,2-4.4,2.92-7.85,1.52-11.78-1.21,2.5-1.09,2.44,1.5,8,1.23,2.65,1.53,5.78,3,8.22.79,1.3,4.24.23,4,3.58.71-2.35,3.34-3.38,3.07-5.92,0-.18,1-.72,1.11-.63,1.12,1.14,2.67,2.2,3.09,3.59.63,2.13.46,4.49.66,7.1,1.63-.84,1.43-2.33,2.2-3.48.19,2,.37,3.91.63,6.62,1.78-4.39,3.74-.52,5.67-.94,3.63-.78,0-4.84,3.67-6.15-1.25,6.24,6.2,4.49,7.58,8.75,0,.14.29.34.35.31.73-.29,2-.5,2.07-1,.85-3.4,6.23-1,6.41-5.19q.43-10.71,1.15-21.41c.1-1.52-.89-3.34.89-4.57,1.48.23.74,2,1.93,2.72.08-7.05.6-13.92-.16-20.78l.17-8.8c1.22-4.26,2.29-8.52,1.38-13q.51-6.48,1-13c4.27,1.38.42,3.86.48,5.63.47,12.79.35,25.61.43,38.43a17.42,17.42,0,0,0,1.63,7.75,294.57,294.57,0,0,0,2.51-39.65c.06-8.64-.45-17.3.42-25.93l.17,2.84c-.16,23.8-.54,47.6,5,71.34,1.84-2.19,1.77-4.63,3-7.69.4,9.06.75,17,1.11,25,2.63-5,2.52-10.42,3.51-16.75,4.07,4.53,5.5,9.22,7.22,14,.54-2,1-3.68,1.48-5.43,1.31.72.15,2.45,1.89,3.05V302.07c.59-8.77,5.17-16.91,4.07-25.94,4.64-4.93,4.24-11.48,5.19-17.62,1.77.67.43,2.91,2.76,3.16V236.42H895v54h1V263.78l1.23,0c-1.09,9.64,1.18,19,1.74,28.46.56-8.15.47-16.28.62-24.39,0-2.64-.51-5.81,3.25-7.2,1.27,7.63-1,15.46,2,22.79,1.28-6.38,0-12.95,2.5-19.27,1.81,13.7,2,27.55,5.17,40.52,3.66-3.16,0-9.92,5.18-13.16,1.83,3.7.94,7.81,1.74,11.67,1.21-8.05-.49-16.32,1.51-24.28,1.42,7.14.19,14.38,1.79,22.57l2.05-4.55c-.36,4.54,3.89,6.41,3.57,10.17,0,.18.8.6,1.22.59,1.13,0,1.2-1,1.14-1.8-.27-3.61.71-7.26-.39-10.83l.2-1.63c1.79-.71,3-.71,3.24,1.79.1,1.25-1.11,2.94.84,3.82.21,1.93.41,3.87.62,5.8a15.3,15.3,0,0,0-.22,2.92c.19,1.71-.64,4.55,1.94,4.42,1.93-.1.88-2.67.93-4.19l.47-.93h1.18c1,.32-.71,2.62,1.5,2.07a6.39,6.39,0,0,1,1.92-.19c7.27,1.54,9.32-.46,8.39-8.2l.39-5c.14-1.92.17-1.86,2.54-3.05,1.06-.54.73-1.75.79-2.69.33-5.64.62-11.29.92-16.93l1.24-.07q.25,8.5.5,17a21.84,21.84,0,0,0,.23,9.72c.81-2.4.17-5,1.4-7.31,1.53,1.9.21,4.49,1.94,7.08.3-5,.55-9.25.8-13.5l.51,0q1.07,8.42,2.14,16.85l.56.06c.28-3.32.56-6.65.91-10.9,2.22,3.6.43,6.85,2.91,10.31V277.9c2.65,6.17,1.44,12.61,2.21,19.91.74-1.7.61-3.8,2.56-2.77l.24,3.82c0,5.75.94,6.57,5.67,5.16.44,1.43-.45,3.54,1.25,4.22,1.28.52,1.19-1.48,1.9-2.2l.43.1.44,0h0c-1,5.81,1.32,9.72,6.94,11.3.17-3.07.37-6.55.56-10.07,1.85,4,1.39,8.34,2.06,12.53.34-2.27.51-4.55.68-6.82,0-.49,0-1,.08-1.49.23,0,.55,0,.66.09,1.85,2.21,2,.59,2-.94,0-5.95-.11-11.91-.17-17.87l.12-3.82c.75,0,1.1-3,2.08-.43.66,1.76-.4,3.91.72,6,.21-3.15.41-6.09.61-9h1.44l.85,12h.45V264c6.21,12.39,8.13,25.78,7.23,39.67,1.21-5.32-.21-10.89,2.08-16.19,1.34,1.81,0,4.17,1.78,5.75,1.28-.89.5-3.28,2.48-3.38,2.19-.1.79,2.54,2.6,3.25V280.76l1.17-.09q.94,10.24,1.88,20.49c.16-3.24,3.92-4.76,3.72-8,.13,2.89.26,5.77.43,9.41,1.29-4.31-.9-8.57,2.6-11.57h0a3.5,3.5,0,0,0,.17,3.06l.06,2.76c-.47,3.38-.37,6.64,1.73,9.92,1.59-2.5.09-5.15,2.17-7.87v15.43c.56-3.36,1.78-3.76,4.5-1.75,3,2.25,4.66,1.19,4.41-2.6,3,1-.67,4.56,2.49,5.67,1.4-3.28-.19-7.25,2.64-10.94.28,2.38.49,4.16.74,6.3,3.32-1.76,4.52-5.25,7.44-7.13.68,1.32,1.15,3.37,3.33,3s1.12-2.38,1.5-3.65c3.73-12.44,2.85-25.25,3.12-38,1,10.71-.41,21.57,1.94,33.56,1.44-3.87.77-6.87,2.44-9.54.78,3.54-.24,7,2.23,10v-24c3.13,3.17,2.39,6.65,3.14,10,0-2.85,3.08-2.65,3.57-5,1.24,2.25.15,4.53,1.79,6.1.42,6.26-.58,12.56.51,18.8,2.64,3.24,3.68,8.23,9.57,7.79,2.17-.16,3.1,2,3,4.15a3,3,0,0,1-.1.49l0-.24c.24-1.63.14-3.42.8-4.87,1-2.17.13-6.24,2.4-6.35,3-.14,2,4.07,2.93,5.72,1.08-1.85-1.44-4.85,1.91-6.5.17.55.35,1.1.53,1.65,0,.3,0,.68.12.89a1.28,1.28,0,0,0,.78.21c.91-2.69,1.78-5.39,2.66-8.12,1.93,2.94,1.77,6.22,1.74,9.9,5.78-16-.59-32.36,3.77-48v11.64c3-11.28,1.52-22.79,2.45-33.13.81,13.25-1.16,27.71,3.43,41.32.49-.37-1-3.12,1.68-2.95l.72.58v31.8l1.3,0c.59-11.52-.59-23.13,1.36-34.66,1.49,9.94.13,20.23,4.41,29.59q1-18,2-36h.68v25.82c1.65-5.18,0-10.6,1.83-15.73.07,2.94.13,5.87.2,8.81-.87,9.55,1.63,18.95,1,29.53,1.36-4.14,2.37-7.24,3.43-10.46.86,2.42,0,5.11,1.47,7.33,2.5-2.4-1.08-6.24,2.58-8l-.06,2.17c-.88,1.91-.2,3.91-.33,5.86-.17,2.4.62,5.48,2.73,5.38,2.67-.13,7-.94,4.78-5.92q.11-2.9.23-5.8c1.38-2.83.73-5.88.78-8.81.29-16.11-.58-32.25,2.07-48.92.26,3.19.47,5.79.73,9,.31-4.42.58-8.19.85-12,2.19,2.65,1.62,5.51,2,8.18.91-2-.29-4.57,1.29-6.68,2,6.54,1.05,13.32,2.8,20.68.29-3.14.49-5.31.8-8.52l1.19,3.37c1.23-.79.17-3.21,2.36-3.2.06,2.28.11,4.57.17,6.85-.82,14.77,1.85,29.34,2.56,44,0,.09.52.16,1,.3,0-5.55-.24-11,.1-16.48.17-2.73-1.31-7.42,1.55-7.84,4.5-.66,2.4,4.66,4.49,7.13,1.53-9,1.53-18.11,1.11-27.23l.08-3.9c3.72,2.34.84,6.53,2.81,9.66.58-4.29.47-8.49,1.92-12.72.46,6.81.9,13.28,1.43,21,1.57-3.52.79-5.89,1.16-8.12.27-1.61-.22-3.9,2.64-3.75,0,.63,0,1.26.08,1.89l1.32,25.42h.37c.26-1.84.52-3.67.85-6,4.24,3.79,1.5,8.53,3.31,12.3-1.37-6.05,2.26-11.72,1.1-17.75v-7.77c4.24,4.81,2.63,9.52,3.28,13.69a14.91,14.91,0,0,0,.06,6.61c2.25-1.76,1.66-4.15,1.89-6.3,2.19,4.78,1,10,1.76,14.92a10.07,10.07,0,0,0,1,5.83c1.73,3.27,7.26,3,7.2,7.9v-6.74l1.83,1,1.75-.09c.33,1.56.82,3.81,1.3,6-.17.8-.32,1.81.82,1.69.75-.08,1.29-.9.36-1.71,0-.59.09-1.18.13-1.78,3-.25,4.11-2.16,4.21-5.54.45,3.65-.4,6.71,1.3,9.58-1.22-12.15,2.93-23.83,2.54-36,1.78,4.66.71,9.49,1.76,14.13.88-3.86.24-7.95,2.87-12.21-.6,4.69,1.65,7.66,3.38,11l1.1-2.21c.84,3.15,1.66,6.2,2.55,9.55,1.29-1.61.74-4.43,2.7-4.14,2.11.31,1,2.75,1.06,4.22.25,3.82-.34,8,4.91,8.88.14-2.75.28-5.56.42-8.38,3.92-.48.74-4,2.48-5.38.24.72.53,1.57.81,2.42.8-5.28,3.42-9.56,5.91-14,1.42,1.05.38,2.58,1.12,3.61a9,9,0,0,0,3-4.35c.53,3.36,1,6.54,1.52,9.71-.8,3.53,1.17,6.26,2.64,9.19,1.43-1.62-.14-6.56,4.72-4.29l0,5.83a6.75,6.75,0,0,0,.33,4.94,5.27,5.27,0,0,0,1.32-4.78c.43-2.28.85-4.55,1.36-7.24,2.13,8,7.24,13.55,11.86,20.19,2-4.52,1.66-8.52,1.73-12.43a91.74,91.74,0,0,1,1.81-18.33c.14-.62-.16-1.89,1.27-1.15v76c-2.29.4-3.17-.38-3.1-2.87.14-4.62-.07-9.26-.17-13.89,0-2.07-.53-4.3-2.57-5-2.33-.74-2.6,2-3.62,3.25-3.49,4.4-1.59,9.87-3,14.54-2-1.95,1.34-6.77-3.56-7.63-.84-2.24-1.67-4.47-2.81-7.5-.07,3.59-1.14,6.25-.51,9-.13.85-.25,1.71-.38,2.57-3,.5-2.28,2.64-2.07,4.57l-1,3.39c-1.08-.29-1.8-3.55-3.3-.4-2.08,2-.48,4.56-1,6.79-3.64,1.89-2.12-2.83-4.08-3.22-1.69,1.74.51,4.88-2.1,6.38-1.77-1.85-.43-4.35-1.79-6.2-.83,1.2-.52,3.3-2.75,3a50.07,50.07,0,0,0-2.43-16.66c-1.14-3.35-5.25-5.34-4.08-9.69-.92,2.41.4,5.88-1.57,7-4.18,2.4-3.57,6.29-4.24,9.89-2-.43-1.07-3.24-3.32-3.4-.62,4.6-2.09,9.06-.85,13.73,0,.67,0,1.34,0,2-3.61-.85-1.09-3.72-1.82-5.53-.43-1.08.18-3.63-1-3.14-3.41,1.42-2.44-1.55-2.63-2.47a65,65,0,0,1-.62-8.17c-1.1,11-1.1,11-5.32,12.69-1.48-9.24,1.88-19.32-5-26.6-.2.66,0,3.2-3,2-.59-.24-.19-2.38-1.6-1.62-.94.51-.87,2-.52,3.22v0c-1.27-.34-1.06-2.54-2.79-2.25s-1,2.1-1.61,3.1a3.41,3.41,0,0,0-.32,3.26l-.24,1.78c-.58.77-2.11-2.86-2.12.45,0,1.88.11,3.77.16,5.66v8.34l-.78.09-1.75-8.12c-.54,2.68-.9,4.43-1.25,6.18-2.67-1.73-.46-4.93-2.56-7.57v15.91l-.67,0c-.18-4.05-.37-8.11-.58-12.71-.33,3.06-.6,5.57-.88,8.08H1188l-.83-7.36-1.44.1V376.8c-1.35,7.25-.94,14.59-.72,21.84a145,145,0,0,1-3.2-25.45c-1.58,3.63-.85,6.18-1.08,8.63-.57-.31-1.13-.63-1.69-.95-.06-.33,0-.83-.19-1-1.38-1-1,.44-1,.88a83.06,83.06,0,0,1-.91,14.4V379.08h-1.23v16.75c-1.79-8.69-.35-17.52-1.51-27.67-.94,10.5-1.77,19.63-2.59,28.77-.13-10.81-1.79-21.4-3.33-32.45-.67,4.72,0,9.11-1.25,13.32-.47-3.85-5.22-5.77-4.35-10.25-3.28,12.69-3.37,25.55-3.89,38.37-3.51,1.88.07,6-3,8.47-.16-10.61-2.5-20.75-2.36-31.15-3.5,15.4-.83,31-2.52,46.48V406c-1.65,2.19-.75,4.12-1.46,5.78-.68-2.52-2.4-.45-3.56-.87q-.88-26.58-1.81-53.17a24.08,24.08,0,0,0-.46-4.41c-.64-3-3-4.12-5.87-4.9,1.85,7.45-6.1,12.31-4.88,19.6-2.55-4.67-.47-9.85-1.63-14.22-1,7.14-2.14,14.71-3.23,22.28l-.25,1.81c-3.06-2.59-1.19-6.46-2.4-9.59-1.28,1.68-.25,4.71-3,5.25-3.08.62-3.23,2.85-3.46,5.24-.49,5,.75,10.4-4.23,14.21V373.62h-1.27v19.83l-1.26-.07c-.33-5.48-.66-11-1-17.07-1.94,2.82-1.64,5.65-3,8,1-7.18-3.78-13.4-2.77-20.53a24.46,24.46,0,0,0-.72-11.48c-2.38,4.47-1.13,8.88-2.15,13.06-1.73-1.63-.2-4-2.13-6.06-.2,2.34-.35,4-.49,5.62-1.77-.2-1.49-1.87-1.38-2.68.67-4.8-4.45-3.6-6.09-6-.51-.76-.87.5-1.13,1s-.64,1.73-.7,1.71c-3.72-1.1-5.92.3-6.81,4-5.57-.69-4,4.07-4.57,6.6-.73,3-.34,6.23-.43,9.37-3.24-3.29-1.2-7.55-2.23-11.15-2.73,1.48-1.71,4.76-3.12,7.22.22-4-3.81-5.94-4.23-9.68-.69,3.07-.93,6.14-1.43,9.16-.2,1.19.72,3.32-1.89,3.17-.05-1.91-.09-3.82-.14-5.73.11-1.31,1.15-3.49-.83-3.48-1.79,0-1.11,2.27-.93,3.68l-.24,4.73a15.2,15.2,0,0,0-4.19-7.92c-2.77-2.72-2.55-6.45-4.76-9.05-.8-.94-2-3.3-2.53-2.56-3.37,4.57-6.74-.6-9.87.44-.58.19-.59,2.07-1.08,4-.36-2.39-.6-3.93-.86-5.65-3.15,5.07-7.93,9.19-6.66,15.83l-2.17,1.12-.53-6.27c-.19-2.81-.37-5.62-.56-8.44l-.6,0c-1.12,5.77-2.23,11.53-3.51,18.14-1.27-4.83,0-9.15-2-12.73-1.21,3.28.39,7.32-2.55,10.33-.33-.75-.82-1.05-1,0-.21,1.57-.17,3.18-.24,4.78-1.89,0-1.92-1.34-2.09-2.72-.41-3.37-.93-6.73-1.4-10.09h-1v17.37h-1.27V371.45c-4.44,11.49-1.73,23.34-4,34.82V381.18c-1.51,7.81-.11,15.8-2.12,23.57-1.29-7.48,0-15.16-3-23.61v13.09a75,75,0,0,1-3-25.88c-1.24,4.21-2.11,7.16-3.08,10.48-1.66-2.37-.07-5.08-2-6.84-.12-2.57-.25-5.14-.37-7.71a2.18,2.18,0,0,0,0-2.7c-.87-1-1.71.18-2.57.42l-.13-1.85c-.09-2,2.66-5.17-2.78-4.57-2.1.23-.89-4.16-2.59-5.89-.81,5.62-.81,5.62-5.4,3.65,3.3,6.52-5.09,4.28-5.56,8.54-.51-1.57-.88-2.73-1.22-3.78-1.95.2.27,6.16-4,2.3a17.72,17.72,0,0,1-3.12,11c-.25-4-.45-7.16-.65-10.3l-1.47-.15c3.14,8.13-3.78,14-3.85,21.41,0,.3-.5.61-.77.91-3.15-3.17-1.38.89-1.87,1.41s.26,2.15-1.11,2.66c-1-3.76.14-7.71-1.45-11.32-.22-1.24.49-2.67-1.51-4.39v21.34H955.7V367.46c-2.57,2-1.32,5-3.14,7.21-2.26-3.07-1.36-6.57-1.63-9.81-.3-3.51-2.23-3.32-4-1.57-1.49,1.48-1.64.78-2.22-.45s.2-3.07-2.85-2.37c-2.45.56-3,1.28-3,3.3,0,.67-.12,1.33-.19,2l-2.08-.14c-.06-.56-.13-1.11-.2-1.67.87-4.54-.64-8.88-.91-14.3-.48,5.41-.87,9.82-1.26,14.23l-.3,3.06c-1.61-1.1-1.29-3.29-2.57-4.62l-.79,4.16c-.31-3.4-2.63-5.53-4.11-7.84-1.24,4.8-2.51,9.72-3.87,15-3.08-2.13-2.09-5.07-3.17-6.89-.75,3.13-.08,6.64-1.81,10.66-.59-1.89-.93-2.95-1.22-3.87-.37,2.78-2,5.53-1.15,8.61-.16,1.6-.33,3.21-.49,4.81-2.19,1.12-1.56-1.15-2.24-1.89-1.26.95-.18,3-1.72,4-1-1.83.23-3.89-2.15-6.38,2.22,11.31-3.67,20.87-2.5,31.17V394.61c-2.3,7.11-5.2,14-4.79,21.7l-1.49-.29V377h-.45q-.84,20-1.69,40h-.77v-13.4c-.79,4.46-3,8.32-5,12.43V398.3h-.62v28.88c-.56.58-1.18.69-1.27-.25a25.57,25.57,0,0,1-.11-4.46c.78-10.64-1.83-20.87-3.57-31.21a61,61,0,0,1-.42-10.39,103.83,103.83,0,0,0-1.11-18.81c.64-3.52-1.71-6.27-2.45-9.43a1.23,1.23,0,0,0-1.81-1c-2.28.77-3.62-.13-4.24-2.33-1.76,1.77-.34,4.8-2.37,6.65-.34-1.2-1-2.73-1.93-.66-.81,1.72-.71,3.88-1,6-1.85-1.49-3.75-3.73-4.76.81-1.89,8.54-4.68,16.87-5.67,25.6a3.64,3.64,0,0,0,.74,3.31c1.31-3.52,1.31-3.52-1.74-5.63-1.73,9.85-1.34,19.75-2.19,27-.56-3,0-8.66-2.45-14.1-2.59,5.49-1.21,11.6-3.3,17.28,0-8.6-.4-17.22.11-25.78.53-8.86-3.81-16.83-3.65-25.68.11-5.73-.23-11.61-.7-17.42-.27-3.37-.63-6.29-5.25-6-.13,1-.31,2.32-.49,3.72-1.42-.67-1.45-3.34-2.62-2.62-1.53.94-5.4-.51-4.65,3.58-.23-1.36-.45-2.72-.69-4.08-1-.32-1,.42-1.09,1-3.61-.93-4.56,3.69-7.72,3.7l-5.35,2.41c-3.78-4.08-4.73.6-6,2.29-1.74,2.29-1.42.33-1.8-.52-1.55-2.61-2.29-2-2.58.62-.09.82-.3,1.64-.45,2.42-1.54-.78,0-3.09-2.1-3.44-.9,2,.08,4.36-1.52,6.08-.31-.87-.59-3.19-1.53-.56s-.81,5.5-1.11,8l-.6.44c0-.15,0-.32,0-.43-.54-.95-1.37-1.73-2-2.63-.73-1.07-3.12-1.76-3.43.48a157.8,157.8,0,0,0-1.25,17.65c1.68-1.9,1-3.69-.19-5.89-1.72,2.58-.1,5.48-1.68,7.63-1.5.05-2.74,1.79-4.55.35-1-.84-2.89-1.89-2.86,1.26,0,2.24.5,4.62-.71,6.77l-.52-1.75c.9-3.93-1.29-7.22-1.93-10.83-1,5.79-1,5.79-3.62,4.51-.19-3.71.21-7.47-.93-11.11a8.5,8.5,0,0,0-.76-5.06c-2-.19-1.34,3.24-2,2.3-2.74-3.74-2.13,1.53-3.45,1.06-2.57,3.67-.48,8-1.66,11.69-.77-5.44.21-11.39-3-17.87-1.46,5.45-2.58,9.64-3.7,13.87-1.47-.27.12-2.32-1.34-2.77-.19,1.8-.37,3.58-.66,6.41-.36-3.05-2.89-3.79-3.09-6.07l-1.09,4.37c-.47-4.46-.83-8-1.24-11.92-1.8,1.48-1,2.9-1.25,4.11-2.3,0-2.31,2.55-4.13,4.41-.47-3.17-.83-5.51-1.18-7.86-.08,2.52-1.95,4.9-.62,7.55-2.19,2.56-2.08,5.7-2.23,8.78-2.75,1.32-2.94,3.7-2.62,6.3l-.21,3.8-1.4-.2.15-6.51c2.15-7.19-1.82-13.73-2.37-20.74.81,3.64-1.39,6.15-3,9-2-5.29-.84-10.89-2.81-16.12-.25,3.45-.49,6.89-.84,11.86-1.71-3.86-4.15-5-5.88-6.81-1.94-2.05-4-.4-4.14.49-.26,2.17-2.53,3.14-2.46,5.24l-1.66,4.23c-.18-3.4-.3-5.85-.43-8.3-1.06-2.47-3-2.33-5.7.55-.09-5.27-2.09-.24-3.13-.7l-.47-4.66v-4.84c-1,.58-1.42,3-2.06,2.14-1.65-2.25-2-1.28-1.91.49.22,3.53-3.46.19-3.87,2.37-1.33-.73-.57-2.06-.86-3.08s.27-2-.9-2.95c-.35,2.79-1.14,5.45-.92,8,.32,3.69-3.84.23-4,2.8l-.51-7.44c-.39,6.57-5.12,11.6-6.84,18-.39-3.07-.79-6.14-1.2-9.3-.75,1.66.06,3.61-1.38,5.3-2.26-5.63-.54-11.47-2-17-.55,7-1.11,14.09-1.69,21.55-1.81-2.24-1.21-4.68-1.65-6.85-.24-1.18.38-3.13-1.5-3.15-1.55,0-1.08,1.75-1.23,2.81-.23,1.6.08,3.61-2.64,3-.1-1.24-.19-2.48-.29-3.71.23-5.42,1.71-11.11-3.44-15.31-.15-1.24-.31-2.47-.47-3.71-.18-2.33-.28-4.69-2.25-6.4-3.79.34-7.13,1-10.11,4.13a24.67,24.67,0,0,0-6,10c-3.76-.24-1.36-3.4-2.42-4.8-1.06,2.12-2.21,4.38-3.86,7.65V349.74c-1.6,6.05.83,11.52-2.66,16.29-1.47-1.56-.4-3.35-2.31-4.62v9.88c-2.59-2.85-2.62-6.06-3.3-9.05-.31,5-1,9.93-.3,14.86l-.28,9.78-1.56-.15q0-11.88,0-23.75c1-4.16,1.22-8.17-2-11.6-.78,1.43.09,3.22-1.4,4.81,0-2.37,0-4.36,0-6.35s0-4-.18-6c-.21-2.87-1.93-3.86-4.47-2.85a3.74,3.74,0,0,1-2.36-.19c-3.4-1.18-3.11,1-3,3.13-1.34.84-2.48,1.84-2.39,4.93-.5-2.48-.71-3.55-.94-4.67a7,7,0,0,0-2.81,5.58c.26-4.41-4-6.38-6.24-11.48,2.69,8.65-7,4.5-6.69,10.83-.62-1.88-.87-2.62-1.12-3.37.21,2.32-3.59,2.65-2.63,5.32.34,2.09-3.23,2.43-2.18,4.84-1.91-2.55-.43-5.76-1.62-8.65l-.55,11.6H594V343.39h-1.11V363.5c-1.71-1.6-.48-3.69-.93-5.5.36-4.09-4.52-5.51-4.71-9.3l-.39,6.39-.86,0V346c-2.8,4.56-2.71,8.81-3.12,12.95l-.08,1.91c-.32-.57-.91-1.65-.93-1.64-4.2,2.19-3.17-1.57-3.84-3.34-.33-.88.22-2-1.06-2.87v12c-1.64-.25-.58-2.54-2.14-2.41s-2.14,1.61-2.37,2.83a50.09,50.09,0,0,0-.27,14.77L572,384a.93.93,0,0,0-.86-.07l-.72-9.6a7.54,7.54,0,0,0-.65-6.5c-1.08.88.08,3.46-2.46,3l-.14-3.8c.47-3,1.73-6.16-2-8.13-.67-3.72-1.58-7.42-1.93-11.17-.18-1.91-1.53-2.86-2.48-2.66-3.23.67-6.17,2.24-9.61,2.65-1.66.2-1,3.5-1.48,5.55l-1.21-3c-.9,3.5-1.69,6.59-2.48,9.68-1.51-.61-.45-2.45-1.64-3.33-.54,2.14-1.85,4.14-.48,6.39,0,.61,0,1.21-.05,1.81-2-2.22-2.79-.34-3.69,1.11v-5.21h-1.15c0,5-.41,10,.09,14.89.82,7.94-1.88,15.42-2.3,23.18l-.25-.15-.23.17Q536.1,392.9,536,387c1-4.86,0-9.56-.93-14.27-.38,4.89-1.71,9.75-.18,14.58q-.18,7.14-.37,14.28l-2.16.13-.21-.84c-.51-10.93-1-21.86-1.47-32.79,0-.49.28-.58-.09-.26-.88,4.28-.77,8.56-.78,12.87,0,4.74,1,9.55-.59,14.22l-.73-5.67c.69-2.59.48-4.92-1.9-6.63a1.69,1.69,0,0,1-.12-.48c.19-13.9-4.34-27.37-3.75-41.72-1.3,4.58-6.62-.61-8,3.77l-.6-2c-.21-.7-.42-1.45-1-.16a3.46,3.46,0,0,0-.13,1c-1.34-.8-3.67-.21-3.39-3.6-1.85,3.91-1.85,3.91-2.58,3.74-3.2-.76-3.23-.69-3.83,2.38-.32,1.62.67,3.76-1.86,4.82-.18-3.16-.35-6.19-.52-9.11-1.42-.85-.49,4.86-3,.84-.2-.31-2.56.26-2.56.36A21.27,21.27,0,0,1,493,352.94l-.08,1.93-1.48-.16c-.09-1.61-.18-3.22-.28-4.83.4-1.75-.74-2.5-2.1-2.41s-1,1.47-1,2.36c0,1.76.08,3.53.14,5.3l-.45,6.27-.87,0V348.29a12.64,12.64,0,0,0-1.47,11.54c1.49-3.56,1.53-6.22-.55-9.17-2.72,3.35-1,7.41-2.32,9.87-.14-2.82-.34-6.47-.53-10.12h-.92v20.26H480V354.44l-.94,0q-.51,5.89-1,11.78l-.51.09-.64-2.91-.71,0c-.18,2-.35,4-.52,5.86-1.37-4.94,1.14-10.15-1.4-15-2.25.85-2.39,2.81-2.82,4.81-.75,3.45-.16,7.24-2.51,10.29-.12-1.35-.24-2.71-.37-4.06.78-2.84.22-5.57-.59-8.31a17.66,17.66,0,0,0-.77,8.11l-.24,2.78c-1.07.11-1.85-2.81-2.28-1.09-.51,2.07-2.87,3.75-1.69,6.22-.3,3.34-.59,6.67-.89,10a1.7,1.7,0,0,0-.86-.14c-.15-3.65-.3-7.29-.43-10.94-.06-1.52-1.23-2.05-2.28-2.71l-.94,2.06a21.38,21.38,0,0,1-.27-2.84c.07-8.16-3.43-15.5-5.22-23.22-.35-1.51-1.31-1.61-2-.75-2.51,3.08-2.74-.18-4.42-2.83.8,5-3.37,3.42-3.94,5.3-.74,2.49-.57,5.26-.8,7.9-1.91-1.72,0-4.51-2.17-6.87-.37,2.32-.66,4.16-1,6.18-1.5-2.26-2.94-4.39-3.1-6.79-2.61,4.66-2.43,10-2.84,15.31l-.67,1.43a9.77,9.77,0,0,0-1.74,0c-.62,3.9-6.48,4.83-5.43,9.75.28,1.31-.48,2.84-.77,4.27l-.36,7.83c-2-5-1-10.38-2.65-15.41-.26,4.8-.22,9.6-.29,14.4,0,1.11.76,2.88-1.55,2.84-.61-4.91.57-9.9-.66-14.77,1.78-7.09,1-14-1.45-21.85-.22,2-.77,2.71-1.94,2.67-.29-3.79,1.26-8.2-3.45-10.47-1.53.75-.38,2.61-1.49,3.32-.81.35-1-.21-1.19-.59-.42-.7.27-2.63-1.17-2-4.61,2-10.88-.68-14.09,5.23-.83,1.54-1.88.91-4.56-2.9-1.14,0-1.18.92-1.3,1.73s-.16,1.47-.29,2.66l-1.57-3.1c-1.52,4.34-1.07,8.35-1.61,11.13-.1-2-.26-5.08-.43-8.21-5.11,2.91-5.18,3-5.55,5.51l-.95-2.52c-.33.64-.65,1.3-1,1.93,0,0-.31,0-.38-.08a1.1,1.1,0,0,1-.17-.46c1.54-4.36-3.66-3.73-4.93-6.24v3.37l-.18,3.82c-1.37-.56-.4-2.23-1.59-3.09-1,1.28-1.13,6.28-4.24.82v5.43c-.88,3.39-2.29,6.69-1.19,10.66,1.4-5-.51-9.51-1-14.26,0,4.36-2.7,7.61-4,11.38-2.46-1.06-1.83-3.26-1.71-5.11.19-3.06,0-6-2-8.71-.36,4.79-3.9,7.19-7.27,5.49-2.24-1.14-2.61.79-3.82.38-4.64-1.44-4.54-5.67-5.26-9.33-2.49.34-4.45,1-4.64,3.8-.19-1.95-.38-3.91-.6-6.22-2.77,1.31-2.32,4.36-4.06,6-.3-1.41-.6-2.82-1-4.82-6.68,17.45-4.87,35.22-7.26,52.45,1-1,.63-1.76-.37-2.2-.71-.31-1.17.1-1.57.72-2,3.13-2.36,9.46-.52,14.27,1.13-4.7,1.51-8.84-.53-12.91.54-2.16-.56-3.8-1.58-5.32-1.45.68.15,2.62-2,3.61,1.9-11-1.36-21.1-3.39-31.09-1.15,1-.33,3.46-2.53,4.12-.5-4.65.65-9.38-.8-14-.7-.89,1.71-4.35-2.17-2.62-1.63-1.15-.06-3.42-1.6-4.6-.72-3.57-1.71-6.91-4.85-9.32-1.35-1-2-1.18-3.22.07-2.15,2.28-3.3,6-7.84,5-.95-.21-.9,2.14-.37,3.42l-.24,2.73a4.79,4.79,0,0,0-3,5.87l-1.95,5.84c-2.06-.7-1.27-2.32-1.69-3.42l-1.42-4.07c-1.09,1.37-2,3.05-4.11,2.73l-.3-2.69c.05-3.31-4.23-4.54-3.31-9.07-1,3.07-.13,5.44-2.15,7.91-.73-3.35-1.24-5.91-1.87-8.44-.26-1,.06-2.65-1.62-2.65-1.44,0-1,1.45-1.24,2.29-.37,1.36-.92,2.91-2.4,2.72s-1.57-1.93-1.81-3.22c-.12-.66-.15-1.32-.23-2-.2.71-.21,1.62-.66,2.08a3.12,3.12,0,0,1-2.2.88c-1.07-.12-.72-1.28-.81-2-.17-1.3-.22-2.63-.32-4.08-1.28,7.35-.56,14.69-1.21,22.56-1.86-1.49-.57-3.7-1.88-4.43-2.07.89-.74,2.92-2.13,3.91-.41-3.51-3.19-5.65-4.4-8.78a34.7,34.7,0,0,0-1,6.18c-.17,1.25-.11,3-1.83,3.08s-.05-2.53-1.62-2.82c-2.66,1.15-1.07,4.52-3.32,5.79-.38-6.11-.76-12.22-1.16-18.45-2.18.69-.79,3.19-2.64,4.16-.4-2.16-.79-4.22-1.17-6.28-1.2,4.21-1.21,8.45-2.77,12.55,1.85-4.9-5.92-4.68-5.17-9.31L223.83,363l-1.36.12c-.47-3.61-.94-7.23-1.53-11.81-.87,1.93-1.32,2.9-1.76,3.87-1.53,0-.86-2.1-2.25-2.28a2.26,2.26,0,0,0,0,3.06q-.24,3-.5,6c-3.7.34-5.45,2.12-4.37,6,.47,2.65-1.76,4.45-2.15,6.83a32.45,32.45,0,0,1-3.14-14.55c-1.38,2.78.72,6.53-3.36,8-.21-4-.41-7.8-.63-11.88-1.86,1.81-.85,4.3-2.68,5.59.18-5.78-.71-11.47-1.22-17.2-.39-4.39-4.27-4.06-6.92-5.27-1.24-.57-.44,1.05-.84,1.53-2.47-.22-4.13-2.15-6.29-3.1-.6,1.79-1.16,3.44-1.72,5.09-.28,1.42-.05,3-1.54,4.06-.14-1.41-.28-2.88-.41-4.23-1.45-1.25-3.31,4.5-4.37-.41-.9,1.09-1.05,2.71-2.59,3.41-.42.19-.49,1.14-.72,1.74l-.33-1.41c-.8-3.5-2.06.22-3.06-.19-1.44-.3,0-2.76-1.94-2.64s-1.93,2.09-2.79,3.56c-.22-2.39-.39-4.37-.57-6.35-.05,4.23-3.56,6.44-5.53,10.39-.17-3.71-.31-6.64-.46-10-2.17,3.81-.66,8-2.51,11.81-2.17-3.1-.54-6.75-2.85-9.24-.22,3.59-.43,7.12-.68,11.42-1.49-3-3.32-4.75-3.22-7.45-.14,5.35-1,10.6,0,15.83l0,5.29c-2.86-3-.78-6.8-2.12-10.44.71,3.83-1.24,6.61-2.48,9.61-1.2,0-.71-1.11-1.11-1.63l-.65-2.29c-.53,1-.5,1.65.26,2.15-1,2.49-.49,5.12-.72,7.68-2.59.92-1.44-4.6-4.62-2.68-4.85,2.89-2.59,7.73-3.23,11.77l-.41-.15-.28.33q0-6-.08-12c.58-5.63.87-11.07-1.88-16.5-2-4-2-.13-2.95.33-.06-1-.06-2-.19-3-.43-3.33-.16-7.39-5.71-5.49-1.93.66-.64-1.84-1.9-2a9.33,9.33,0,0,0-1.43,4.6c-1.16.12-1-1.75-1.52-1.48-3.86,2.12-7.49,4.51-7,9.77l-.51,2.66-1.71,0c-.29-.51-1-.63-1.06-.19-.31,1.29-.27,2.66-.62,3.93,0,.19-1.09-1.72-1.73-.83s-.78,2.53-1.15,3.91c-2-1-1-2.91-1.89-4.08-1.25.88-.48,2.24-.8,3.33-4.82-.87-2.21-4.92-3.4-7.41l-.8,2.94c1.14-6-3.08-1.84-4.64-2.51L93.06,356c.24-3.19.51-6.39-1.64-9.42.61,2.54-2.11,3.27-2.46,5.26-.76,4.5-1.53,9-2.5,14.73-.56-8.74-1-16.24-1.54-24.07-4.79,1.16-3.08,5.37-4.36,8.74l-1.29-3.45c-.39-3.1-2.86-4.68-4.9-7.23A13.41,13.41,0,0,1,71.31,348l-1.72-3.84c-2.41,1.51-2.82,5.23-4.84,6.24-3.22,1.62-3.9-3.22-6.23-4.21-1.75,1.13-.64,3.58-2.37,4.71l-.57-4.07c-1.09,3.6-3.62,5.08-3.68,7.92-.43-1.35-.87-2.69-1.36-4.24-1,1.72-.67,3.71-2.15,4.92-1.31-1.23-.13-3.18-1.71-4.18-.3,1.46-.57,2.85-.86,4.27-1.4-1-.23-3.15-2.3-3.89-1.65,2.93-1,6.15-1.41,9.19-.19,1.61-1.34,3.78-2.28,3-1.75-1.5-4.57-1.78-5.4-4.29-.26,1.34.15,2.88-1.13,4.39-2-2.59-2.61-6.06-5.43-8-1-.7-1.16-3.18-2.68-2.7-1.75.55-1.74,2.41-1.16,4.22,1.8,5.71,1,11.54,1,17.89-2.21-3.27,1.14-7.95-3.82-9.46.11-10.54-.62-20.87-8-29.37-1.59.78-1.18,3.23-2.75,5.15-.86-2.76-4-3.09-4.79-5.73-1.59.32-1.11,2.22-2.25,2.86-3.54-4.81-.12-7.4,3-10.19,1.62,1.17,1.36,3,2.24,4.76,2.3-3.6,7-4,9-8.11.79-1.66.82,1.51,3,1.2V310.35c2.72.91,1.83,3.22,1.86,5.07.08,5,0,10,0,14.95,1.56-3.19,1.54-6.47,1.81-9.66.89-10.54,1.26-21.11,1.83-31.67l.16-7.87.46.09.39-.25q.15,3.39.29,6.78c-1.08,7.91-.37,15.82,0,23.78,1-2.7-.39-7.8,1.16-7.87,4.34-.18,2.08-2.9,2.21-4.18.5-4.92-.85-10,1.84-15.29.91,5.82-.68,11.35,3.72,16.12,4.7,5.08,4.18,12.9,8.35,18.7,1.27,1.77,4.16,0,4.28,3.5.17,4.72,3.38-.79,4.92.73,2.77-8.31,3.47-1.62,5,.62.6.9,2,2.21,2.53,2,1.09-.42.74-1.89.54-3,.8-1.62-.84-4.21,2.08-5,4.21-1.11,5.34-.38,7,4.51.26.75.66,1.44,1.47,3.17,1.2-3.53,2.09-6.17,3-9,2.4,3.35,2.51,7.3,4,11.29,4.13-5.71,6.25-11.74,6-18.58l1.51-.24.91,8.94c-1.07,2.49.13,4.76.64,7.11.09-2.51,2.07-4.64,1.34-7.25L90,313c3.32-.66,1.92,4.15,4.78,4.08-.38-2,.9-4.14-.51-6.06l.25-1.72c3.49,1,4.14-.3,2.58-3.3-.65-3,2-4,3.52-5.64,2.17-.95,3.12.05,4,2,1.17,2.59,2.74,2,3.79-.2a13.52,13.52,0,0,0,.68-3.3c2.21,1.08,1.26,3.6,2.43,5.4,2.38,3.69,1.31-1.58,2.41-.4-.21,5.08,3.63,9.34,3.36,14.84,2.42-.12,3.52-2.07,5.67-2.75-.91,4.69,1.65,7.75,4.33,10.67a1.26,1.26,0,0,0,1.15-1.61c-1.08-8.89,4.45-16.7,4.1-25.47-.13-3.16,3.41-3.37,4.62-5.49a4.11,4.11,0,0,0,.78.07c.33,1.12-.38,2.45.69,3.44.49.45.95.11.34-.15a2.93,2.93,0,0,1,.11-.44c1.87.56.79,3.28,2.8,3.75,2.11-.91.48-3.44,1.93-4.65.69,3.54-.71,7.64,2.85,10.24.66-2.69-.17-5.61,1.32-8.2.37,3.45.83,6.89,1.07,10.34a7.28,7.28,0,0,0,4.07,6.45l1.13-8c-1,3.66,1.67,4.8,4.93,7,1.7,1.16,5.41,2.51,5.81,5.95.16,1.32-.65,3.71,1.21,3.67,1.37,0,2.74-2,4-3.21.34-.32.21-1.12.31-1.76,1.2,2-1.08,5,2.58,5.64-1.05,3.15,1.3,3.32,3.28,3.6,3.23.47.72-3,2.44-3.67.16,2.26.31,4.5.47,6.78,1.82,0,1.84-4.63,3.8-2.05s1.88-1.19,2.93-.29c1.81,1.55,6.65.6,8-1.47.42.81-.57,2.2,1,2.52.19-1.75,2.33,1,3-1.76,1.95-7.85.74-15.75,1.48-23.58,3.34-1.54-.31-5.89,3.59-7.87v17.33c.77-4.5.69-9,.82-13.44C203.93,299,203,296.59,206,297.05Zm367.77,9.36-.19-.83a4.6,4.6,0,0,0-.25.74,1.32,1.32,0,0,0,.09.42Zm407.63,5.9a1.54,1.54,0,0,0,.13-2.08C980.85,310.88,981.07,311.58,981.42,312.31Zm-209.14-5.89.23.21,0-.35Zm-526.56,45.7c-.11.12-.3.24-.3.37s.18.25.29.37c.11-.12.3-.24.3-.37S245.82,352.24,245.72,352.12Z"/><path class="cls-2" d="M930.36,295c1.1,3.57.12,7.22.39,10.83.06.81,0,1.76-1.14,1.8-.42,0-1.23-.41-1.22-.59.32-3.76-3.93-5.63-3.57-10.17l-2.05,4.55c-1.6-8.19-.37-15.43-1.79-22.57-2,8-.3,16.23-1.51,24.28-.8-3.86.09-8-1.74-11.67-5.23,3.24-1.52,10-5.18,13.16-3.2-13-3.36-26.82-5.17-40.52-2.51,6.32-1.22,12.89-2.5,19.27-3.06-7.33-.78-15.16-2-22.79-3.76,1.39-3.21,4.56-3.25,7.2-.15,8.11-.06,16.24-.62,24.39-.56-9.5-2.83-18.82-1.74-28.46l-1.23,0v26.67h-1v-54h-.91v25.25c-2.33-.25-1-2.49-2.76-3.16-.95,6.14-.55,12.69-5.19,17.62-.27-8.14-.59-16.28,1.23-24.32a19.42,19.42,0,0,0,.34-4c.53-21.45,1.05-42.9,1.59-65.55.89,3.35,1.48,5.61,2.16,8.16.1-3.46,3-5.53,3.16-8.77-.29,5.87,2,11.39,1.56,17.19-.31,3.66,2.5,6.56,2.3,10.47-.47,9.14-.15,18.32-.1,27.48.94-15-.69-30.08,2.12-45,2,14.9,5.09,29.64,4.37,44.76V210.35c3.15,1,2.44,3.18,2.45,4.9.05,11.83,0,23.65.5,35.48V215.57c3.18,8.41,3.33,17.13,3.13,26.22,2.54-1.59.56-4.69,3.58-6.11.15,2.78.59,5.23.34,7.6-1,9.38,2.74,17.61,6.32,25.76,2.39,5.44,2.51,11.29,4.15,16.85C926.36,289.47,928.34,292.17,930.36,295Z"/><path class="cls-2" d="M1028.9,291.05c-3.5,3-1.31,7.26-2.6,11.57-.17-3.64-.3-6.52-.43-9.41.2,3.19-3.56,4.71-3.72,8q-.93-10.25-1.88-20.49l-1.17.09v12.37c-1.81-.71-.41-3.35-2.6-3.25-2,.1-1.2,2.49-2.48,3.38-1.81-1.58-.44-3.94-1.78-5.75-2.29,5.3-.87,10.87-2.08,16.19.9-13.89-1-27.28-7.23-39.67v33.5h-.45l-.85-12h-1.44c-.2,2.93-.4,5.87-.61,9-1.12-2.05-.06-4.2-.72-6-1-2.59-1.33.45-2.08.43-1.28-4.93-.78-10,0-14.79a137.75,137.75,0,0,0,1.28-18.9c.37-16,.13-32,1.6-47.89.49-5.23.38-11.16,3.12-17.38,7.51,17.36,5.13,34.64,6,51.6V215.76c2,1.18.28,3.4,2.44,4.88V205.2c1.87,4.31.72,9.07,3.23,13.42,2.24-4.56-1.45-10.22,3.63-15.1,0,7.66-1.06,14.37.25,20.58,1.85,8.72.26,18.66,4.2,26,4.91,9.16,3.73,18.18,4.67,27.33C1027.67,282,1030.54,286.24,1028.9,291.05Zm-28.27-63.34-.25-.12v40h.25Z"/><path class="cls-2" d="M1116.57,278.73c-2.67-.17-1.19,2.58-1.68,2.95-4.59-13.61-2.62-28.07-3.43-41.32-.93,10.34.59,21.85-2.45,33.13V261.85c-4.36,15.67,2,32.07-3.77,48,0-3.68.19-7-1.74-9.9-.88,2.73-1.75,5.43-2.66,8.12a1.28,1.28,0,0,1-.78-.21c-.16-.21-.09-.59-.12-.89.22-.43.65-.85.65-1.27,0-13.73,3.91-27.22,2.28-41.06a47.36,47.36,0,0,1,.35-11c1.41,11.83.13,23.72,1.07,35.56,2.34-24.3.86-49,8.9-72.21.69.49.34,2.2.61,3.71s-.42,3.3,1.4,5.47c-.4-5.51.87-10,2.41-14.54a485.9,485.9,0,0,0,6.12,49.47l.71-9.83c.2,2.27,0,3.55.47,4.57,1.35,3.22-1.62,6.78,2.44,10.32,3.39,2.95,1.82,9.08,1.48,13.88-1.78,5.13-.18,10.55-1.83,15.73V270h-.68q-1,18-2,36c-4.28-9.36-2.92-19.65-4.41-29.59-2,11.53-.77,23.14-1.36,34.66l-1.3,0v-31.8c.92-2.5.51-5-.26-7.5C1116.87,274.12,1116.72,276.42,1116.57,278.73Z"/><path class="cls-2" d="M997.77,372c1.9,1.76.31,4.47,2,6.84,1-3.32,1.84-6.27,3.08-10.48a75,75,0,0,0,3,25.88V381.14c3,8.45,1.68,16.13,3,23.61,2-7.77.61-15.76,2.12-23.57v25.09c2.3-11.48-.41-23.33,4-34.82v11.91h1.27V366h1c.47,3.36,1,6.72,1.4,10.09.17,1.38.2,2.72,2.09,2.72,0,12.4-.4,24.76-2.35,37a51.37,51.37,0,0,0-.33,9c.12,6.45-3.51,12.24-3.54,18.85-.7-2.88-1.39-5.76-2.09-8.64l-.71.07v25.16c-4.58-15.9-9.28-31.69-7.66-48.69-2.23,1.73-2.23,1.73-3.47,10.48-3.82-14.65-1.44-31.08-3.39-47.23C997.06,373.83,996.9,372.78,997.77,372Z"/><path class="cls-2" d="M1238,309.11c-.14,2.82-.28,5.63-.42,8.38-5.25-.9-4.66-5.06-4.91-8.88-.1-1.47,1-3.91-1.06-4.22-2-.29-1.41,2.53-2.7,4.14-.89-3.35-1.71-6.4-2.55-9.55l-1.1,2.21c-1.73-3.36-4-6.33-3.38-11-2.63,4.26-2,8.35-2.87,12.21-1-4.64,0-9.47-1.76-14.13.39,12.18-3.76,23.86-2.54,36-1.7-2.87-.85-5.93-1.3-9.58-.1,3.38-1.25,5.29-4.21,5.54-1-4.11.12-8.24,0-12.4,1.07.43-.12,2.21,1,2.36,4-11.3,2.1-23.06,3.15-35,.3,2.66.55,4.93,1,8.59,2.36-12.22.72-23.73,6.35-33,.47,1.86-.27,4.85,1.11,7.64,1.14,2.33.65,5.49,4.08,6.89V232.56c2.54,5.19,2,10.82,2.36,16.12.75,10.23,3.21,20.4,1.93,30.78a17.9,17.9,0,0,0,1.37,10.48,18.72,18.72,0,0,1,1.9,11c-.16,1,.1.93,3.23,4.12C1237.59,306.08,1236.37,308.15,1238,309.11Z"/><path class="cls-2" d="M1159.76,262.16c-2.19,0-1.13,2.41-2.36,3.2l-1.19-3.37c-.31,3.21-.51,5.38-.8,8.52-1.75-7.36-.77-14.14-2.8-20.68-1.58,2.11-.38,4.64-1.29,6.68-.43-2.67.14-5.53-2-8.18-.27,3.77-.54,7.54-.85,12-.26-3.23-.47-5.83-.73-9-2.65,16.67-1.78,32.81-2.07,48.92,0,2.93.6,6-.78,8.81-1.27-2-.5-4.22-.56-6.32-.75-25.32.07-50.62,1-75.91.57-15.17,2.26-30.31,2-45.57.09,6.89,5.11,12.88,3,20.11,2.27.14,1.49-2.26,3.5-2.54,1.21,16.27-.12,32.58.59,48.55,1-16-1.22-32.31,2-48.54C1159.79,219.79,1159.4,241,1159.76,262.16Z"/><path class="cls-2" d="M21.26,365.84c5,1.51,1.61,6.19,3.82,9.46-.09-6.35.75-12.18-1-17.89-.58-1.81-.59-3.67,1.16-4.22,1.52-.48,1.67,2,2.68,2.7,2.82,2,3.39,5.44,5.43,8,1.28-1.51.87-3.05,1.13-4.39.83,2.51,3.65,2.79,5.4,4.29.94.8,2.09-1.37,2.28-3,.37-3-.24-6.26,1.41-9.19,2.07.74.9,2.91,2.3,3.89.29-1.42.56-2.81.86-4.27,1.58,1,.4,3,1.71,4.18,1.48-1.21,1.18-3.2,2.15-4.92.49,1.55.93,2.89,1.36,4.24.27,1.85.14,3.26-1.59,4.74-4.83,4.17-5.29,10-5.61,16L44,364.72h-.9v19.94c-.64-5.08,1.2-10.46-3.07-15.42-2.13,9.79,0,19.44-1.29,29.53l-.84-5.1c-2.72,8.21-.68,16.75-2.91,25V405.46l-1.27-.21c-1.81,3.8.95,9.55-4.18,11.75-.84-5.74.43-11.75-1.61-18.88l-1.27,5c-1.34-4.2-2.36-8.37-.59-12.63,3.49-4.1,1.68-8.54,1.63-14-2.21,2.67-.75,4.91-2,6.58C22.29,377.87,19.67,372.4,21.26,365.84Z"/><path class="cls-2" d="M674.56,372c2.72.6,2.41-1.41,2.64-3,.15-1.06-.32-2.82,1.23-2.81,1.88,0,1.26,2,1.5,3.15.44,2.17-.16,4.61,1.65,6.85.58-7.46,1.14-14.51,1.69-21.55,1.42,5.54-.3,11.38,2,17,1.44-1.69.63-3.64,1.38-5.3.41,3.16.81,6.23,1.2,9.3,1.72-6.37,6.45-11.4,6.84-18l.51,7.44c.16-2.57,4.32.89,4-2.8-.22-2.57.57-5.23.92-8,1.17.94.64,2,.9,2.95s-.47,2.35.86,3.08c.41-2.18,4.09,1.16,3.87-2.37-.11-1.77.26-2.74,1.91-.49.64.87,1-1.56,2.06-2.14v4.84c-1-.06-2.25,0-2.67.94-1,2.33-5.22,2.3-4.42,6.11.14.67-3.26-2.63-2.86,1.27a33.07,33.07,0,0,1-.19,4.93c-2.6-1.36,1.37-4.24-2-5.72-2.94,5.26-1,11.14-2.07,16.32-1.6-3-.7-6.83-2.22-10.29V407l-1.67.06V381.62l-1.24,0c-2,14,3.55,29-6.08,42.57-.33-4.45-.63-8.54-.95-12.77-2.27.76-.79,3-2.33,3.68-.2-.25-.57-.49-.56-.71.82-11.38-4.25-22.14-3.47-33.6C677.17,378.16,672.71,375.79,674.56,372Z"/><path class="cls-2" d="M238.15,366.89c2.25-1.27.66-4.64,3.32-5.79,1.57.29,0,2.87,1.62,2.82s1.66-1.83,1.83-3.08a34.7,34.7,0,0,1,1-6.18c1.21,3.13,4,5.27,4.4,8.78,1.39-1,.06-3,2.13-3.91,1.31.73,0,2.94,1.88,4.43.65-7.87-.07-15.21,1.21-22.56.1,1.45.15,2.78.32,4.08.09.74-.26,1.9.81,2a3.12,3.12,0,0,0,2.2-.88c.45-.46.46-1.37.66-2.08.08.66.11,1.32.23,2,.24,1.29.4,3,1.81,3.22s2-1.36,2.4-2.72c.23-.84-.2-2.3,1.24-2.29,1.68,0,1.36,1.63,1.62,2.65.63,2.53,1.14,5.09,1.87,8.44,2-2.47,1.13-4.84,2.15-7.91-.92,4.53,3.36,5.76,3.31,9.07-2.65-.33-3.35,2.21-5.05,3.65-2.33-2.24-2.59-5.23-3.56-9.17-1.38,4.91-.32,8.85-1.53,12.5-.57,1.71-.53,3.69-2.86,4.12-.21-2.28-.43-4.56-.67-7.09-.19,1.85-.36,3.44-.53,5-2.73,2.14-.73,5.42-1.93,7.93-2.06,4.57-.75,9.2-.22,13.81.21,2.33.11,4.37-1.88,6.24-1.69,1.58-2.22,4-2.22,6.42,0,1.69.33,3.51-1.24,6.23-.29-3.85-.49-6.49-.71-9.31-2.47.65-1.24,3-2.76,4.34V380.77l-1,0v15.09c-7.34-7.41-3.78-16-5.46-24.22-2.29,3.14-.67,6.45-2.23,9.87C240.67,376,237,371.88,238.15,366.89Z"/><path class="cls-2" d="M891.33,427.19V398.31H892V416c2-4.11,4.19-8,5-12.43V417h.77q.85-20,1.69-40h.45v39l1.49.29c-.41-7.72,2.49-14.59,4.79-21.7v19.22c-1.17-10.3,4.72-19.86,2.5-31.17,2.38,2.49,1.15,4.55,2.15,6.38,1.54-.92.46-3,1.72-4,.68.74,0,3,2.24,1.89,1.59,3.52-1.1,6.75-.84,10,.69,8.69-2.37,17-1.86,25.64.21,3.55-.08,7.29-1.48,10.26-2.47,5.23-1.35,10.67-2.81,16.08-.31-1.76-.62-3.52-1.17-6.62-.59,2.92-.92,4.55-1.21,6-.17-2.48-.35-5.08-.53-7.69h-.47c-.28,2.44-.55,4.88-.83,7.32l-.94.06q-.36-5.69-.71-11.37l-.84,0v12.72l-1,0c-.36-4.92-.68-9.84-1.1-14.75-.09-1,.58-2.66-.85-3-1.89-.47-2.37,1.19-3.35,2.64v-15C892.42,422.34,893.69,425.53,891.33,427.19Z"/><path class="cls-2" d="M1078.31,286.36c-1.64-1.57-.55-3.85-1.79-6.1-.49,2.37-3.58,2.17-3.57,5-.75-3.32,0-6.8-3.14-10v24c-2.47-3-1.45-6.48-2.23-10-1.67,2.67-1,5.67-2.44,9.54-2.35-12-1-22.85-1.94-33.56-.86-7.46,3.77-14.06,2.37-21.61l1.28.17v26.44c2.94-3.4,3.29-6.59,3.3-9.86,0-8.65.08-17.3,0-25.94,0-3.21.34-6.21,2.36-8.65.79,2-1.07,5.38,1.82,6.29,2,.62,1.71-2.2,2-3.32,4.23,18.17,1.94,37,2.5,55.65A6.33,6.33,0,0,1,1078.31,286.36Z"/><path class="cls-2" d="M882,302.07v14.61c-1.74-.6-.58-2.33-1.89-3.05-.48,1.75-.94,3.46-1.48,5.43-1.72-4.78-3.15-9.47-7.22-14-1,6.33-.88,11.79-3.51,16.75-.36-8-.71-16-1.11-25-1.22,3.06-1.15,5.5-3,7.69-5.51-23.74-5.13-47.54-5-71.34,2.63-2.47.74-5.62,1.21-8.42.34-2-.37-4.18,1.13-6.2-.35,8.57,2.46,16.68,2.82,25.15.42,10.3.56,20.64,1.31,30.89.55,7.52,2.44,15,2.59,22.64.08,4,4.22,3.69,5.15,3.49,2.28-.46.32-3.48,1.43-4.87.48,1.94-.22,4.9,3.27,5.8.13-1.69.26-3.32.4-5.15C881.19,297.28,879.81,300.93,882,302.07Z"/><path class="cls-2" d="M692.8,296.16l-4.87-3c-.21,2.66-.41,5.14-.6,7.63h-.54l-.66-6c-1.73,4.93-2.09,10.34-6.76,13.62-.59-3.77-1.2-7.69-1.81-11.62-.15,5.15-1,9.72-7.39,10.38-.35-3.62-.58-6.95,2.39-10.11,1.94-2.07.33-5.89,1.93-8.33.18.76.41,1.77.66,2.9.52-.38.92-.54.93-.71a47.67,47.67,0,0,0,.17-5.47c-.7-11.87,2-23.44,2.92-35.16.28-3.64.12-7.32.22-11,0-1.55-.33-3.2,1.46-4.56V263.2c2.48-2.46.66-5.11,2.74-8.06C683.29,270.24,690.59,282.58,692.8,296.16Z"/><path class="cls-2" d="M1099.93,364.9c.14-1.64.29-3.28.49-5.62,1.93,2.05.4,4.43,2.13,6.06,1-4.18-.23-8.59,2.15-13.06a24.46,24.46,0,0,1,.72,11.48c-1,7.13,3.75,13.35,2.77,20.53,1.36-2.33,1.06-5.16,3-8,.37,6.11.7,11.59,1,17.07l1.26.07V373.62h1.27V393c5-3.81,3.74-9.25,4.23-14.21.23-2.39.38-4.62,3.46-5.24,2.76-.54,1.73-3.57,3-5.25,1.21,3.13-.66,7,2.4,9.59a57.47,57.47,0,0,0-2.8,16.75c-1.18-6.07,0-12.53-3.57-18.91-1.16,5.41-.39,10.23-.67,15-.09,1.57,1.06,3.87-1.88,4.25l-.81.24.66.62v3.5l-2.65-3.12c-.93,6.64.18,13.09-2,19.32q-.36-7-.72-13.93c-.63,6.91-1.26,13.87-1.93,21.28-.31-2.32-.56-4.24-.81-6.16h-.44l-.94,6.18c-1.56-6.66-.84-13.37-1.2-20-.08-1.55,2-4.81-2.3-4.63a10.94,10.94,0,0,1-.7-3.7c-.08-6,0-11.94,0-17.91h-1.41V391.5l-1.33,0C1101.44,382.65,1103.38,373.47,1099.93,364.9Z"/><path class="cls-2" d="M62,322.91c.2,1.11.55,2.58-.54,3-.53.2-1.93-1.11-2.53-2-1.5-2.24-2.2-8.93-5-.62-1.54-1.52-4.75,4-4.92-.73-.12-3.52-3-1.73-4.28-3.5-4.17-5.8-3.65-13.62-8.35-18.7-4.4-4.77-2.81-10.3-3.72-16.12-2.69,5.24-1.34,10.37-1.84,15.29-.13,1.28,2.13,4-2.21,4.18-1.55.07-.12,5.17-1.16,7.87-.41-8-1.12-15.87,0-23.78,1.87-.43,1.39-1.94,1.51-3.2.52-5.47-1.86-11.44,2.67-15.65,5.08,4.89,1.71,12.95,5,18.94l1.44-.29.59-7.91c1.51,1.55.8,3.1,1.21,4.3.81,2.35-1.91,6.16,2.89,7,.27,0,.26,2.16.27,3.31,0,4.08,0,8.17.35,12.25,1.82-2.94.43-6.22,2-9.34.26,2.73.53,5.46.85,8.63,2.64-2.09,1.47-4.89,2.43-7.51.18,2.52-.29,5,.63,6.62,1.22,2.17.13,7.75,5.85,5.08,1.37-.65,1.41,1,1.64,1.76A47.36,47.36,0,0,0,62,322.91Z"/><path class="cls-2" d="M973.92,295c-1.95-1-1.82,1.07-2.56,2.77-.77-7.3.44-13.74-2.21-19.91v24.41c-2.48-3.46-.69-6.71-2.91-10.31-.35,4.25-.63,7.58-.91,10.9l-.56-.06q-1.08-8.43-2.14-16.85l-.51,0c-.25,4.25-.5,8.5-.8,13.5-1.73-2.59-.41-5.18-1.94-7.08-1.23,2.34-.59,4.91-1.4,7.31a21.84,21.84,0,0,1-.23-9.72c2-1.34.94-3.36,1-5,.14-8,.06-16,.06-24h1.91v17.44l1.35,0c-.59-9.46,1.12-18.69,2.45-27.86.24,1.53.5,3.23.88,5.71,2.68-5.17.73-10.14,2.24-15.9.32,3.61.54,6,.77,8.56,2.45-.24,1.23-2.49,2.21-3.31.21,4.22.18,8.49.69,12.7C972.73,270.56,973.35,282.79,973.92,295Z"/><path class="cls-2" d="M256,293.93a173.91,173.91,0,0,1-.18,24.28c-.81-4.69-1.37-7.93-1.92-11.16.93,4.42-6.85,5.29-4.47,9.05-.07-1.09-.17-3.54-.42-6-.1-1-.59-2-1.83-2-1.54,0-1.38,1.36-1.23,2.15.69,3.72-2.72,6.21-2.68,9.74-2.34-5-1.69-10.33-2.33-15.49-.28-2.24.25-4.74-1.81-6.49a94.09,94.09,0,0,1,2.63-23c1.31-5.29,1.9-10.76,2.81-16.15l.33-.29a1.48,1.48,0,0,0-.17.47c.11,9,.21,18,.42,27,0,.37-1.3,1.81,1.37,1.78s1.57-1.23,1.58-1.89c.08-7.5,0-15,.35-22.5.07,9.44,5.13,18.17,3.82,27.82C251.85,293.94,253.4,294.88,256,293.93Z"/><path class="cls-2" d="M1065.92,377.58c2.61.15,1.69-2,1.89-3.17.5-3,.74-6.09,1.43-9.16.42,3.74,4.45,5.7,4.23,9.68,1.41-2.46.39-5.74,3.12-7.22,1,3.6-1,7.86,2.23,11.15-2.41,9.36.11,19.06-2.32,28.57-1.39,5.44-.25,11.52-.25,17.64-2.81-.62-1.12-3.5-3.92-3.76q-.32,6.07-.63,12.11c.61-16.94-3.36-33.64-2.42-51.25-2.32,4.21-2.4,4.53-2.47,10.55,0,3.46,0,6.93-.26,10.4A69.85,69.85,0,0,1,1065.92,377.58Z"/><path class="cls-2" d="M958.82,376c1.59,3.61.4,7.56,1.45,11.32,1.37-.51.51-2,1.11-2.66s-1.28-4.58,1.87-1.41c.27-.3.77-.61.77-.91.07-7.42,7-13.28,3.85-21.41l1.47.15c.2,3.14.4,6.27.65,10.3a17.72,17.72,0,0,0,3.12-11c4.32,3.86,2.1-2.1,4-2.3.34,1,.71,2.21,1.22,3.78.47-4.26,8.86-2,5.56-8.54,4.59,2,4.59,2,5.4-3.65,1.7,1.73.49,6.12,2.59,5.89,5.44-.6,2.69,2.61,2.78,4.57-1.89,1.05-4.55-3.58-6,1.6-.55-2-.9-3.21-1.25-4.46-1.75.56-1.49,2-1.28,2.94,1.18,5.28-6,3.87-6.43,8,0,.21-2-1.16-2.53-2.43-.29-.73-.37-1.76-1.51-1.57a1.91,1.91,0,0,0-1.74,2.09c.37,5-1.41,9.74-2,14.62-.8,6.91-.53,6.94-5.26,15.35-1.34-2.71-.34-5.65-1.42-9.05L963.69,398c-3.81-.37-1.44-4-3.18-5.46-1.5,1.24-.24,3.24-2.27,5.81C958.33,390.08,957.52,383.05,958.82,376Zm3.6,17.64c-.11,0-.27.05-.3.12a.59.59,0,0,0-.07.44c.19.41.4.36.49-.12C962.57,393.94,962.46,393.78,962.42,393.63Z"/><path class="cls-2" d="M1146,410.91c1.16.42,2.88-1.65,3.56.87.71-1.66-.19-3.59,1.46-5.78v23.71c1.69-15.45-1-31.08,2.52-46.48-.14,10.4,2.2,20.54,2.36,31.15,3-2.45-.53-6.59,3-8.47a121.74,121.74,0,0,1-1.31,24.39c-1-.55-.55-2.31-2.41-2.74-.13,2.21-.25,4.36-.37,6.53-1.47-.22-.22-2.11-1.75-2.22-.13,2.27-.26,4.53-.4,6.86-1-.7-.12-2.57-2.44-2.68-.25,3.3-.5,6.65-.75,10C1148,434.32,1145.58,422.74,1146,410.91Z"/><path class="cls-2" d="M1204,349.07c-.35-1.18-.42-2.71.52-3.22,1.41-.76,1,1.38,1.6,1.62,3,1.23,2.81-1.31,3-2,6.92,7.28,3.56,17.36,5,26.6,4.22-1.67,4.22-1.67,5.32-12.69a65,65,0,0,0,.62,8.17c.19.92-.78,3.89,2.63,2.47,1.17-.49.56,2.06,1,3.14.73,1.81-1.79,4.68,1.82,5.53.75,4,0,7.93-.72,12.07-.36-1.38-.72-2.76-1.08-4.16a12.12,12.12,0,0,0-5.21,8.75c-.79-4-1.58-8-2.4-12-.13-.62.41-1.88-1-1.54-.38.09-.54,1.07-.51,1-4.78-9.14-2.79-19.92-5.25-30C1208.54,349.27,1205.19,351.13,1204,349.07Z"/><path class="cls-2" d="M272.94,300.92c-1.44,8.47-2.89,16.95-4.35,25.53-1.72-3.19-5.25-5.46-4.48-10.11-2.2,1.29-1.8,3.33-2.56,4.88-.66-3.56.4-7.25-1-11.07-1.7,3.48-.3,6.93-1.66,11.48-1.41-11.06,1.3-21.2-2.8-30.6a12.62,12.62,0,0,1,.57-6.83c-.07,5.28,5.23,8.72,3.92,14.31,2.78-.3,1.11-2.74,2.6-3.32,1.06,1.32,0,3.28,1.38,4.5,1.23-1.23.45-2.83.94-4.13a26.72,26.72,0,0,1,2.14,4.2C268.77,303.47,270.51,303.55,272.94,300.92Z"/><path class="cls-2" d="M343.12,358.9c1.21.41,1.58-1.52,3.82-.38,3.37,1.7,6.91-.7,7.27-5.49,2,2.75,2.19,5.65,2,8.71-.12,1.85-.75,4.05,1.71,5.11,0,3.33.59,6.84-.24,10-3.72,13.88-1.07,28-1.95,41.94a4.75,4.75,0,0,1-.49,1.27c-.38-.17-.87-.3-.86-.39.84-12.44-3.26-24.57-2.27-37a37.39,37.39,0,0,0-2.65-18.31c-2.11.3-.94,2.59-2.16,3.56C346.73,364.46,346.82,360.77,343.12,358.9Z"/><path class="cls-2" d="M643.61,292.29c-.4.28-1.14.52-1.16.83-.4,5.35.18,11-5.35,13.91-.11-1.84-.27-4.31-.44-6.95-1.94,3.38-1.21,7.05-1.73,10.85-2-1.17-.39-4.17-2.75-4.74-.37-6.7,2-12.88,3.45-19.26.69-3,.44-6.27.45-9.41,0-9.78,0-19.56.59-29.36.35,5.13.4,10.29,1.12,15.37A86.79,86.79,0,0,0,643.68,286,8.48,8.48,0,0,1,643.61,292.29Z"/><path class="cls-2" d="M630.76,322.84c.68,2.14.12,4.23-.12,7.21-2.9-3.93-4.59.5-7.21-1.45l-.21,1.66c-.16-1.38-.33-2.77-.48-4-1.21-.59.43,3.07-1.94.88-2.53-2.32-3.85.54-5.49,1.94-.19-1.16-.36-2.27-.67-4.21-.47,1.89-.75,3-1.09,4.35-.86-2.5-.93-1.89-3.83-2.22-1.71-.19-3.15-2.67-5.21-3.47-.5-.19-1.09-1.43-1.12-1.41-5.37,3.63-6.18-2.9-9.33-4.16l3.72-5.23c.24,1.74.41,3.05.66,4.9l1.87-4.79c.88,1.22.56,2.81,2.38,3.72.55-2.06,1.11-4.13,2-7.62.23,4,.38,6.46.52,8.87,1.17,1.61.24-5.73,2.22-.42.36-.94.72-1.87,1.34-3.5.13,2.8.11,4.9.35,7,.14,1.14-.77,3.12,1.21,3.19a3.88,3.88,0,0,0,3.76-1.8,13.65,13.65,0,0,0,2.38-6.5c.61,2-.19,4.36,1.38,6.48,1.46-1.34-.95-4,1.41-4.19,2.19-.15,5,.6,6.15,2.46C626.89,322.76,628.51,323.14,630.76,322.84Z"/><path class="cls-2" d="M307.78,372c2.2-.66,1.38-3.17,2.53-4.12,2,10,5.29,20.07,3.39,31.09,2.15-1,.55-2.93,2-3.61,1,1.52,2.12,3.16,1.58,5.32-2.9,1.07-2.43,3.65-2.48,5.85-.11,5.23,0,10.46,0,15.69l-1.4.1L313,414.7c-1.72,0-.39,2.47-2.91,2.15,0-5.1-.43-10.36.1-15.52.79-7.78-2.64-14.94-2.64-22.55C307.53,376.53,306.47,374.23,307.78,372Z"/><path class="cls-2" d="M303,321.93c.22,2.7-3.07,4.16-2.31,6.51-3.38,2.52-4.05-7.83-8.22-1.27,0-3.13-.07-6.36-3.35-8.31a5.76,5.76,0,0,1-3.05-5.74c.12-2-1.09-3.35-2.33-4.68-1.36.73-1,2.65-3,3.19.18-4.2-4.37-1.68-5.3-3.6-1.18-2.41-1-5.45-2.34-8a6.29,6.29,0,0,1,.49-4.38c2.72,1.21,1.63,4.1,2.71,6,2.47-1.37,3.06-3.65,3.38-6.46-1.39,7.05,6.52,8.66,7.42,14.18,1.56-.4.65-2.18,2-2.73a4.26,4.26,0,0,1,.69,1c1.69,5.11,2.17,10.72,7.62,14C299.54,323,301.08,322.28,303,321.93Z"/><path class="cls-2" d="M1167.1,377.79c1.23-4.21.58-8.6,1.25-13.32,1.54,11,3.2,21.64,3.33,32.45.82-9.14,1.65-18.27,2.59-28.77,1.16,10.15-.28,19,1.51,27.67,1.37,10.17-3.46,19.79-2.77,30,.37-7.16-3.13-14-1.34-21.23a2.82,2.82,0,0,0-.63-2.3C1166.18,394.67,1169.08,385.84,1167.1,377.79Z"/><path class="cls-2" d="M493,352.94a21.27,21.27,0,0,0,2.36-10.51c0-.1,2.36-.67,2.56-.36,2.48,4,1.55-1.69,3-.84.17,2.92.34,5.95.52,9.11,2.53-1.06,1.54-3.2,1.86-4.82.6-3.07.63-3.14,3.83-2.38.73.17.73.17,2.58-3.74-.28,3.39,2.05,2.8,3.39,3.6v5.47c-1.83-.08-.52-1.91-1.5-2.29-1,5.08-6.68,8-5.66,14.41-2.67-2.39-.18-7.2-3.93-6.83-3.55.36-1.71,4.36-2,6.7s-2.81,3-3.21,5.19c-.35-3.26-.59-6.54-1.07-9.78C495.44,354.46,495.78,352.13,493,352.94Z"/><path class="cls-2" d="M1170.77,268.91c.42,9.12.42,18.21-1.11,27.23-2.09-2.47,0-7.79-4.49-7.13-2.86.42-1.38,5.11-1.55,7.84-.34,5.45-.1,10.93-.1,16.48-.51-.14-1-.21-1-.3-.71-14.68-3.38-29.25-2.56-44,1.79-1.06.8-3.05,1.38-4.23,2.89,6.09,2.68,13,3.2,20.14,4.26-4.39,4.17-4.4,4.51-10.19C1169.14,272.72,1168.35,270.29,1170.77,268.91Z"/><path class="cls-2" d="M858.69,230.29c-.87,8.63-.36,17.29-.42,25.93a294.57,294.57,0,0,1-2.51,39.65,17.42,17.42,0,0,1-1.63-7.75c-.08-12.82,0-25.64-.43-38.43-.06-1.77,3.79-4.25-.48-5.63a1.84,1.84,0,0,1-.54-2.6c1.12-1,.69,1.1,1.38,1,2.1-.27,1.75-1.95,1.75-3.35,0-6.51,0-13,.39-19.56C856.26,223.34,859.87,226.28,858.69,230.29Z"/><path class="cls-2" d="M537.84,282.87v20.52c-2.74-4-1.47-8.58-2.46-12.72l0-.19c0,1.83-1,2.11-2.45,1.45q.46-29.1.92-58.19l1,0v26.06c1.88-1.93.86-3.92,2.2-6.37,0,8.93,0,16.8,0,24.67C537.12,279.7,536.51,281.46,537.84,282.87Z"/><path class="cls-2" d="M915.22,382.16c-.87-3.08.78-5.83,1.15-8.61.29.92.63,2,1.22,3.87,1.73-4,1.06-7.53,1.81-10.66,1.08,1.82.09,4.76,3.17,6.89,1.36-5.29,2.63-10.21,3.87-15,1.48,2.31,3.8,4.44,4.11,7.84l.79-4.16c1.28,1.33,1,3.52,2.57,4.62.61,2.31.13,4.59,0,7-1.67-1-.41-3-1.71-4-1.88.22-1.61,2.68-3.27,3.3-1.6-1.11-.21-3.18-1.66-4.78-1.89,3.35-1,7.06-2,10.75-1.68-1-.49-3.35-2.22-4.17-5.69,5.93-2.09,13.75-4.59,20.53q-.79-5.2-1.58-10.41C916.66,384,917.33,382.31,915.22,382.16Z"/><path class="cls-2" d="M149.48,363.33c-1-5.23-.1-10.48,0-15.83-.1,2.7,1.73,4.49,3.22,7.45.25-4.3.46-7.83.68-11.42,2.31,2.49.68,6.14,2.85,9.24,1.85-3.84.34-8,2.51-11.81.15,3.35.29,6.28.46,10,2-3.95,5.48-6.16,5.53-10.39.18,2,.35,4,.57,6.35.86-1.47.85-3.44,2.79-3.56s.5,2.34,1.94,2.64c.05,1.86,1.54,4.26-2.78,2.92-3.28-1-6.58,3.34-7.06,5.1-1,3.69-3.42,7.35-2.19,11.75-.47-.33-.64-.4-.73-.53-1.31-1.9.09-5.33-2.19-6.16-3.36-1.23-2.38,3.19-4.2,4.26C150.56,363.54,150,363.34,149.48,363.33Z"/><path class="cls-2" d="M721.07,369.06c-.07-2.1,2.2-3.07,2.46-5.24.1-.89,2.2-2.54,4.14-.49,1.73,1.82,4.17,2.95,5.88,6.81.35-5,.59-8.41.84-11.86,2,5.23.86,10.83,2.81,16.12,1.65-2.84,3.85-5.35,3-9,.55,7,4.52,13.55,2.37,20.74a6.33,6.33,0,0,1-2.73-5.39c0-1.55.28-4.17-3.16-3.08-1,.32-1.41-1.84-2.06-2.91-1.49-2.44-3.21-2.69-4.22,1.49-.19-2.09-.33-3.39-.43-4.69-.14-1.88-2.21-2.46-2.72-1.78C724.57,373.41,723,370.24,721.07,369.06Z"/><path class="cls-2" d="M996.66,292.83c.06,6,.14,11.92.17,17.87,0,1.53-.15,3.15-2,.94-.11-.13-.43-.06-.66-.09,0,.5,0,1-.08,1.49-.17,2.27-.34,4.55-.68,6.82-.67-4.19-.21-8.54-2.06-12.53-.19,3.52-.39,7-.56,10.07-5.62-1.58-7.9-5.49-6.94-11.3,4,0,7.86-4.47,8.23-9.63.14-1.9-.51-3.89.6-6.07,1.74,1.5.42,3.66,1.47,5.09C995.84,295.4,995.17,293.08,996.66,292.83Z"/><path class="cls-2" d="M748.11,285a19.43,19.43,0,0,1-.71,3.34c-.26.63,1.3,4.13-1.86,1.38-.73-.62-.91,1-1,1.67-.4,2.71-.71,5.44-1,7.88-1.38-4.13,1.09-8.86-1.43-13.13V255l1.49-.14a25.41,25.41,0,0,0,.57,4.81c.18.61-1.75,4.83,2,1.75.66-.54.73.77.73,1.27C746.86,270.1,748.81,277.46,748.11,285Z"/><path class="cls-2" d="M637.17,377.1c-.66-4.93,0-9.86.3-14.86.68,3,.71,6.2,3.3,9.05v-9.88c1.91,1.27.84,3.06,2.31,4.62,3.49-4.77,1.06-10.24,2.66-16.29v10.12c1.65-3.27,2.8-5.53,3.86-7.65,1.06,1.4-1.34,4.56,2.42,4.8-.74,2.58-3,4.63-1.8,8.58-1.33-1.7-1-3-2.31-3.48-2.64,5.62-2,11.75-2.5,18.18-1.69-1.44-.67-3.63-2.57-4.64-2.59,3-.37,6.9-1.86,10.38C638.8,383.3,645.3,376.86,637.17,377.1Z"/><path class="cls-2" d="M1225.61,376.7c-1.24-4.67.23-9.13.85-13.73,2.25.16,1.37,3,3.32,3.4.67-3.6.06-7.49,4.24-9.89,2-1.13.65-4.6,1.57-7-1.17,4.35,2.94,6.34,4.08,9.69-1.32-.33-3.34-.69-3.22,1,.38,5.47-5.07,8.89-4.6,14.34.25,2.84-1.08,5.38-2.35,7.92C1227.57,380.78,1230.94,375.83,1225.61,376.7Z"/><path class="cls-2" d="M56.15,350.92c1.73-1.13.62-3.58,2.37-4.71,2.33,1,3,5.83,6.23,4.21,2-1,2.43-4.73,4.84-6.24L71.31,348a13.41,13.41,0,0,0,3.06-7.45c2,2.55,4.51,4.13,4.9,7.23-1.61-.67-3-2.25-4.35.85a31.45,31.45,0,0,0-2.53,8.28c-1,.48-1.43-.17-1.7-.7-.72-1.44-.93-3.59-3-3.54s-2.13,2.18-2.59,3.69c-.28.93-.2,2.05-1.65,2-1.15-.05-1.12-1-1.37-1.73-.47-1.44-.62-4.7-2.29-.48-.19.49-.16.52-.65,0-1.64-1.67-1.74-1.58-2.89.69A13.45,13.45,0,0,1,56.15,350.92Z"/><path class="cls-2" d="M1180.81,271.12c-2.86-.15-2.37,2.14-2.64,3.75-.37,2.23.41,4.6-1.16,8.12-.53-7.76-1-14.23-1.43-21-1.45,4.23-1.34,8.43-1.92,12.72-2-3.13.91-7.32-2.81-9.66-1.38-5.9-.31-11.83-.19-17.78,1.91,4.5.22,9.65,2.81,14.93,1.49-4.41.37-8.2,1.11-12,3.24,4.67,2.82,10.06,3.44,15.26,1.81-2.86,1.1-6,1.88-10.4C1181.48,261.24,1181.15,266.18,1180.81,271.12Z"/><path class="cls-2" d="M1029.07,294.11a3.5,3.5,0,0,1-.17-3.06c2-1.84-.05-4.51,1.3-6.48,1.81,0,.45,5.24,4.08,2.43.46-.36.32.75.37,1.13.7,5.59,1.33,11.18,2,16.77.35,2.84,1,3.28,3.54,2.62,1-.26.48.72.65,1.1.27.56.18,1.33,1.08,1.38.25,3.79-1.37,4.85-4.41,2.6-2.72-2-3.94-1.61-4.5,1.75V298.92c-2.08,2.72-.58,5.37-2.17,7.87-2.1-3.28-2.2-6.54-1.73-9.92.65-.17,1.29-.36,1.36-1.17C1030.58,294.68,1030,294.2,1029.07,294.11Z"/><path class="cls-2" d="M781.89,283.93a25.08,25.08,0,0,1-2.27,14.68c-.44.92-1.34-1.52-2.37-.38.64-6.74,2.2-13.37,2.32-20.19.31-17.65-1.19-35.31.7-52.93a2.29,2.29,0,0,1,.59-1.41c0,18,0,36.07,0,54.1C780.92,279.85,780.12,282.13,781.89,283.93Z"/><path class="cls-2" d="M515.27,322.3l-.12,1.56c-.95-.67-1.82-.53-2,.64S514,326,515,326c-1.43,1.44-3.84,1.81-4.15,3.7-4.15-2.71-2.73-8.58-6.85-12.19,0,2.19.05,3.84,0,5.49-.06,1.33.4,2.72-1.93,3.06-2.89.43-2.07-1.69-2.12-2.73A139.21,139.21,0,0,1,500,303c3.57,4,.89,9,2.27,13.38,1.65-1,.23-3.18,2-4.66.64,3.35,4,4.86,4.32,9.53,2.47-4.31.78-8,2.2-11.64,2,3.17,1,6.26,1.12,9.16C512,321,511.65,323.5,515.27,322.3Z"/><path class="cls-2" d="M206,297.05c-3.07-.46-2.09,1.94-2.13,3.28-.13,4.47,0,8.94-.82,13.44V296.44c-3.9,2-.25,6.33-3.59,7.87-1.31-7.67.84-15.19,1-22.83,1.63.13.73,3.44,2.91,2.39,1.41-.68.74-2.4.76-3.65.08-4.63,0-9.26,0-13.89l1.86,0Z"/><path class="cls-2" d="M572.23,380.13a50.09,50.09,0,0,1,.27-14.77c.23-1.22.76-2.7,2.37-2.83s.5,2.16,2.14,2.41V353c1.28.85.73,2,1.06,2.87.67,1.77-.36,5.53,3.84,3.34,0,0,.61,1.07.93,1.64.64,2.14,0,4.27-.09,7.1-.52-1.5-.82-2.4-1.36-4-.4,2-.66,3.28-.92,4.58-.53-1.23.23-2.83-1.45-4.19v23.86c-2.92-6.49-.18-13.8-3.89-21.26v16.59C573.66,382.41,575,379.49,572.23,380.13Z"/><path class="cls-2" d="M794.59,285.19c-3.65,1.63-2.35,6.34-5.29,8-.13-1.19-.31-2.81-.64-5.76-.54,2.63-.81,4-1.11,5.38-1.48-2,1.1-5.25-2.19-6.54.59-1.79-2.94-5.25,2.14-5.33a9.76,9.76,0,0,0,.33-2.73,130.28,130.28,0,0,1,.63-14.85C790.83,270.63,794.56,277.39,794.59,285.19Z"/><path class="cls-2" d="M484,301.06c-1.6,4.83-.34,9.83-.87,14.72-.22,2,.56,4.44-2.62,4.7-.21-2.62-.46-5.7-.72-9.05-1.68,1.21-.74,2.91-1.46,4.11-1.77-1.84-.59-4.53-2.06-6.75-3.81,2.37-1.39,6.54-3,9.54V306.85c1.56.42,2.58.13,2.63-1.77a21.38,21.38,0,0,1,.84-5.78c.17,1.79.35,3.59.53,5.36,2.93-1.1,3.45-3.48,3-6.23-.39-2.36,3.13-2.22,3.13-4.55Z"/><path class="cls-2" d="M1099.41,305.35c-3.35,1.65-.83,4.65-1.91,6.5-1-1.65.06-5.86-2.93-5.72-2.27.11-1.42,4.18-2.4,6.35-.66,1.45-.56,3.24-.8,4.87l0,.24a3,3,0,0,0,.1-.49c0-2.19-.88-4.31-3-4.15-5.89.44-6.93-4.55-9.57-7.79,2.28-3.6.28-7.78,1.78-11.77.15,3.06.47,5.9.36,8.72a4.86,4.86,0,0,0,3.14,4.5c2.07.71,1.55-1.83,1.76-3.16.15-1,.62-1.6,1.57-1.5s1.33.93,1.41,1.79c.21,2.15.33,4.31.52,6.8,4.09-1.68,2.92-5.47,3.65-8.41,2.49,2.81,3.26.54,4.34-1.85C1098.39,302.08,1100.47,302.94,1099.41,305.35Z"/><path class="cls-2" d="M363.74,309.23c-1.89-.31-1.51,1.66-2.42,2.52-.15-2.24-.28-4.34-.43-6.6a8,8,0,0,0-3.08,6.81c-2.66-2.57-5.2-4.95-4.84-8.88,2.42-1.7,2.08-4.29,2.1-6.71.05-5.22,0-10.44,0-15.66l1.34,0V302.9c4.51-2.13,4.33-5.64,5.22-9C363.93,299,362.44,304.33,363.74,309.23Z"/><path class="cls-2" d="M1137.49,307.31c-3.66,1.78-.08,5.62-2.58,8-1.44-2.22-.61-4.91-1.47-7.33-1.06,3.22-2.07,6.32-3.43,10.46.65-10.58-1.85-20-1-29.53,2.11.41,3,1.64,2.9,3.83a21,21,0,0,0,.76,7.49c.21-2.58.43-5.17.71-8.47.51,4.71.95,8.72,1.41,12.9,1.9-.92,1-2.73,2.46-4C1138,303,1138.33,305.11,1137.49,307.31Z"/><path class="cls-2" d="M26.12,289c-.57,10.56-.94,21.13-1.83,31.67-.27,3.19-.25,6.47-1.81,9.66,0-5,.05-10,0-14.95,0-1.85.86-4.16-1.86-5.07.47-6.22-.67-12.67,2.63-18.49l1.42-2.95Z"/><path class="cls-2" d="M1187.84,287c1.16,6-2.47,11.7-1.1,17.75-1.81-3.77.93-8.51-3.31-12.3-.33,2.35-.59,4.18-.85,6h-.37L1180.89,273c.85.51,1.93,2.8,2.37-.22s.69-5.85,1.22-8.77c.26,6.42,1.93,12.7,1.58,19.17C1186,284.6,1185.06,286.75,1187.84,287Z"/><path class="cls-2" d="M599.14,351.09c-1-2.67,2.84-3,2.63-5.32.25.75.5,1.49,1.12,3.37-.26-6.33,9.38-2.18,6.69-10.83,2.29,5.1,6.5,7.07,6.24,11.48-.63,1.46.72,4-1,4.43-3,.73-2-3.16-3.94-4.4-1.74,1.7-.78,4.1-2,6.74-.47-3-.84-5.28-1.2-7.56-.48.06-1,0-1.07.15-1.83,5.68-1.81,5.67-6,2C600.31,350.88,599.63,351.09,599.14,351.09Z"/><path class="cls-2" d="M1185.76,376.8V364l1.44-.1.83,7.36h.59c.28-2.51.55-5,.88-8.08.21,4.6.4,8.66.58,12.71l.67,0V360c2.1,2.64-.11,5.84,2.56,7.57.33,7.81-4,14.81-4.12,22.62l-.45-4.32c-1.52.26-.62,1.77-1.32,2.43C1186.05,384.6,1188.3,380.36,1185.76,376.8Z"/><path class="cls-2" d="M622,344c-.15-2.1-.44-4.31,3-3.13a3.74,3.74,0,0,0,2.36.19c2.54-1,4.26,0,4.47,2.85.15,2,.15,4,.18,6s0,4,0,6.35c1.49-1.59.62-3.38,1.4-4.81,3.25,3.43,3,7.44,2,11.6-1.52-.46-.78-2.45-2.07-3.11-.16,2-.31,4-.46,5.92-1.5-7.22-4.62-14.09-3.84-23.41C626.25,348.46,624.2,343.13,622,344Z"/><path class="cls-2" d="M193.94,327.13c-1.32,2.07-6.16,3-8,1.47-1.05-.9-1,2.77-2.93.29s-2,2-3.8,2.05c-.16-2.28-.31-4.52-.47-6.78-1.72.69.79,4.14-2.44,3.67-2-.28-4.33-.45-3.28-3.6.67-2.06-.19-4.08-.33-6.12,1.36,4.11,1.36,4.11,6.8,2.73.1,0,.26-.13.27-.12a6.5,6.5,0,0,0,7.75,3.29c.47,3.14,1.38,2,3.13.65C193.81,322.27,194.2,324.49,193.94,327.13Z"/><path class="cls-2" d="M779.1,380.87c2.66,1.28,2.66,1.28,3.62-4.51.64,3.61,2.83,6.9,1.93,10.83-3.75,1.91-2.53,5.63-2.74,8.55-.4,5.65-.11,11.34-.65,17A124.53,124.53,0,0,1,779.1,380.87Z"/><path class="cls-2" d="M531.76,283.21c-1,0-2.24.15-2.06,1.48.93,6.77-5.12,12.31-3.15,19.3-2.49-3.37-.18-7.62-2.46-10.9,2.83-6.3,1.18-13.27,2.28-20,1.93.73,1.34,1.9,1.62,2.75s-1.11,2.21,1.64,1.75c2.33-.39,1-1.47,1.23-2.07.45-1.16-.3-2.61.92-4.1A40,40,0,0,1,531.76,283.21Z"/><path class="cls-2" d="M148,298.13c-1.49,2.59-.66,5.51-1.32,8.2-3.56-2.6-2.16-6.7-2.85-10.24-1.45,1.21.18,3.74-1.93,4.65-2-.47-.93-3.19-2.8-3.75,0-3-1.18-6.81.23-8.79,3.59-5.07.27-10.6,2.39-15.44.91,5.85.34,11.85.46,17.82,0,1.22-.56,3.17,1.18,3.35,2.44.24,1.46-2.06,1.72-3.31s.25-2.65.62-4C144.59,290.84,149,293.88,148,298.13Z"/><path class="cls-2" d="M489.24,323.68c-4.57.88-5.88-1.27-5.29-5.48a58.32,58.32,0,0,0,.25-6.35c1.88-6.25-.11-12.77,1.77-19.06V321c1.7-10.51-.2-21.26,3.27-31.63Z"/><path class="cls-2" d="M286.93,350c-.53-1.28-.58-3.63.37-3.42,4.54,1,5.69-2.71,7.84-5,1.18-1.25,1.87-1.11,3.22-.07,3.14,2.41,4.13,5.75,4.85,9.32a18.79,18.79,0,0,0-2.77-2c-2.38-1.15-4.69-3.09-6.3,1.41-1,2.73-3.48,5.92-5.47.13C288.42,349.65,287.59,349.78,286.93,350Z"/><path class="cls-2" d="M200.08,362c1.83-1.29.82-3.78,2.68-5.59.22,4.08.42,7.87.63,11.88,4.08-1.49,2-5.24,3.36-8a32.45,32.45,0,0,0,3.14,14.55l-.47,3.5-1.83-4.61c-2.45,3.35-.7,7-2.28,10.49-1.56-4.33-1.6-8.58-2.61-12.57C201.88,368.39,198.71,365.73,200.08,362Z"/><path class="cls-2" d="M423.17,378.09c.29-1.43,1.05-3,.77-4.27-1.05-4.92,4.81-5.85,5.43-9.75a9.77,9.77,0,0,1,1.74,0c.28,6.29-2.32,12.3-1.82,18.68-1.62-2.47-.05-5.82-3-8.75v28.46h-1.19c0-6.51.11-13-.08-19.51C424.93,381.29,426.19,378.79,423.17,378.09Z"/><path class="cls-2" d="M1242.1,375.82c2.23.34,1.92-1.76,2.75-3,1.36,1.85,0,4.35,1.79,6.2,2.61-1.5.41-4.64,2.1-6.38,2,.39.44,5.11,4.08,3.22,1.79,4.2-2,7.12-2.5,11.39-.34-2.25-.59-3.93-.84-5.61l-.46,0-.66,7.29c-1.28-3.53-2.1-7.14-4.35-10.5-.25,2.57-.49,4.93-.72,7.28l-1.19,0Z"/><path class="cls-2" d="M710,305.14c-.58,2.67-1.17,5.35-2,9a33.58,33.58,0,0,0-7.18-11.66c-1.64,2.61.15,6.18-2.1,9.15,0-3.23,0-6.47,0-9.7,0-1.07.42-2.45-1.36-2.64-1-3.64,3.44-3.35,4.34-5.88-1.63,5.68,4.45,7.64,4.86,12.41,2.18-1.06,1.24-3,2.71-4.37C709.59,303,709.79,304.07,710,305.14Z"/><path class="cls-2" d="M1021.92,374c2.94-3,1.34-7.05,2.55-10.33,2,3.58.72,7.9,2,12.73,1.28-6.61,2.39-12.37,3.51-18.14l.6,0c.19,2.82.37,5.63.56,8.44-.28.16-.78.3-.8.49-.57,4.73.45,9.94-4.71,13.14C1023.81,379.11,1020.86,377.85,1021.92,374Z"/><path class="cls-2" d="M435.05,318c-.71-.38-1.79-.57-2.09-1.16-2.85-5.63-5.83-11.25-5.93-17.81,2.47-2.23.46-5.45,2.18-8,0,6.38,2,12.4,3,18.68,2.75-.95,1.41-3.5,2.82-6.07Z"/><path class="cls-2" d="M580,293.06c-1,.3-1.1,1.14-1.09,1.95,0,4.65-.3,9.23-2.59,13,.74-3.1-2.71-5.67-2.28-9.19v-18.4c2.06,4.55,1.43,8.61,2.53,12.76,2.12-2.24.68-4.7,2.13-6.72C580.89,288.38,580,290.81,580,293.06Z"/><path class="cls-2" d="M431.78,362.65c.41-5.27.23-10.65,2.84-15.31.16,2.4,1.6,4.53,3.1,6.79.32-2,.61-3.86,1-6.18,2.13,2.36.26,5.15,2.17,6.87,1,2.84-3.32,3.93-2.41,6.88l-3-7.43-1.09,0v26.24H433c0-4.47.06-8.93,0-13.4C432.92,365.6,433.66,363.75,431.78,362.65Z"/><path class="cls-2" d="M461.93,290.09c-2.23-.49-1.69,1.35-1.91,2.39-.37,1.74-.66,3.45-2.3,4.52-1.31-4.38-.49-8.84-.39-13.25.07-3.1.75,0,1.07.05,2.14.28,1.47-1.4,1.48-2.25.09-5.42.05-10.84.05-16.26h2Z"/><path class="cls-2" d="M785.17,388.94c1.21-2.15.73-4.53.71-6.77,0-3.15,1.81-2.1,2.86-1.26,1.81,1.44,3-.3,4.55-.35.1,4-2.13,7.67-1.56,11.76-.91-2.09-.35-4.66-2.72-7-2.25,4.65-.66,9.28-2,13.47C786.75,395.4,783.13,392.73,785.17,388.94Z"/><path class="cls-2" d="M93.15,358.93c1.56.67,5.78-3.48,4.64,2.51l.8-2.94c1.19,2.49-1.42,6.54,3.4,7.41a78.68,78.68,0,0,1-.56,17.34c-.11-2.1-.21-4.19-.33-6.28a9.45,9.45,0,0,0-2.67-6.38C96,367.75,91.16,364.39,93.15,358.93Z"/><path class="cls-2" d="M582.92,358.9c.41-4.14.32-8.39,3.12-12.95V355l.86,0,.39-6.39c.19,3.79,5.07,5.21,4.71,9.3-5.55-.25-1.9,4.29-3.33,6C587.76,361.41,583.5,362.17,582.92,358.9Z"/><path class="cls-2" d="M423,283c-2,5.38,0,11.11-2.48,16.56,0-7.59.07-15.18-.06-22.76,0-1.56,1.34-3.74-1.29-4.65-1.34-4.36,1.39-7.8,2.49-11.61l1.34,0Z"/><path class="cls-2" d="M874,356c2-1.85.61-4.88,2.37-6.65.62,2.2,2,3.1,4.24,2.33a1.23,1.23,0,0,1,1.81,1c.74,3.16,3.09,5.91,2.45,9.43-2-.28-2.5-1.86-3-3.47-1.89-.08-.52,3-2.13,2.41-2.53-1-.46-4-1.94-5.69C875.58,357.23,874.3,357.45,874,356Z"/><path class="cls-2" d="M951.37,300.71c.93,7.74-1.12,9.74-8.39,8.2a6.39,6.39,0,0,0-1.92.19c0-.71,0-1.42-.07-2.12l0,.06c2.48-.29,1.06-2.66,2.13-4l1.27,3C946.37,303.64,947.27,299.86,951.37,300.71Z"/><path class="cls-2" d="M1203,315.11v6.72c.06-4.86-5.47-4.63-7.2-7.9a10.07,10.07,0,0,1-1-5.83c2.16-.59.84-2.87,1.93-4C1200.21,307,1199.32,312.35,1203,315.11Z"/><path class="cls-2" d="M109.07,298.88a13.52,13.52,0,0,1-.68,3.3c-1,2.19-2.62,2.79-3.79.2-.89-2-1.84-3-4-2-1-3.2.26-6.14,1.2-9.15l.62,5.87c1.37-.85.12-4.11,2.53-3.36,1,.32,3.66.86,3.25,3.45C108.11,297.68,108.76,298.3,109.07,298.88Z"/><path class="cls-2" d="M1260.19,306c-4.86-2.27-3.29,2.67-4.72,4.29-1.47-2.93-3.44-5.66-2.64-9.19a9.86,9.86,0,0,0,4-4.31c1.79,1.65.24,4,1.76,5.81.18-2.6.35-4.95.52-7.31C1260.22,298.79,1261.59,302.26,1260.19,306Z"/><path class="cls-2" d="M418.32,387.75c2.31,0,1.53-1.73,1.55-2.84.07-4.8,0-9.6.29-14.4,1.69,5,.69,10.45,2.65,15.41,1.8,2,.27,4.34.72,6.29a6.75,6.75,0,0,0-2.17-5.55l-1.5,18.79h-.57Q418.81,396.6,418.32,387.75Z"/><path class="cls-2" d="M94.24,311c1.41,1.92.13,4.05.51,6.06-2.86.07-1.46-4.74-4.78-4.08-1.6-5.08-.38-10.08.27-15.87a27.15,27.15,0,0,1,2.66,10C93.06,308.48,92.38,310.21,94.24,311Z"/><path class="cls-2" d="M725.27,307.41c-1,1.47-1.93,2.94-3.1,4.74-.48-3.81-4.64-4.28-6.1-7.23,2-1.45.61-4.15,2.62-6.21.26,2.41.49,4.49.72,6.57l.4,0c.22-3.11.43-6.22.65-9.33l1.15,0c.19,2.66.28,5.33.63,8,.13,1-1.32,4.38,2.12,1.92Z"/><path class="cls-2" d="M934.64,299c-1.95-.88-.74-2.57-.84-3.82-.22-2.5-1.45-2.5-3.24-1.79-1.83-5.2,3.48-8.13,4.08-12.39C935.32,286.88,936.84,292.93,934.64,299Z"/><path class="cls-2" d="M414.27,353.8c1.17,0,1.72-.69,1.94-2.67,2.44,7.83,3.23,14.76,1.45,21.85-1.89-3.5-.16-7.34-1-10.93-1.21,0-.34,1.91-2.1,1.82C414.24,360.58,413.64,357.23,414.27,353.8Z"/><path class="cls-2" d="M742.46,392.66l1.4.2v30h-1.4C741.87,412.81,741.35,402.75,742.46,392.66Z"/><path class="cls-2" d="M540.09,365.9c.9-1.45,1.68-3.33,3.69-1.11.76,3.94.09,7.9.16,11.85a2.65,2.65,0,0,1-2.67,2.92c-1.53,0-1.17-1.74-1.19-2.79C540,373.15,540.08,369.53,540.09,365.9Z"/><path class="cls-2" d="M529.18,394.94c1.57-4.67.57-9.48.59-14.22,0-4.31-.1-8.59.78-12.87.37-.32.07-.23.09.26.44,10.93,1,21.86,1.47,32.79C530.13,399.4,527.13,398.41,529.18,394.94Z"/><path class="cls-2" d="M1128.1,376.09c1.09-7.57,2.19-15.14,3.23-22.28,1.16,4.37-.92,9.55,1.63,14.22C1132.1,371.18,1129.64,373.36,1128.1,376.09Z"/><path class="cls-2" d="M769.88,298l-2.28,4.19c-1.48-1.36-1.13-2.69-.8-4,2.7-1.9,2.37-4.86,2.44-7.55.14-5.63,0-11.26.84-16.9C770.39,281.85,771.83,289.93,769.88,298Z"/><path class="cls-2" d="M129.24,354.82c.91-.46.92-4.34,2.95-.33,2.75,5.43,2.46,10.87,1.88,16.5-4.42-3.15-1.57-8.33-3.38-12.41-.46.78-.82,1.41-1.29,2.22A12.3,12.3,0,0,1,129.24,354.82Z"/><path class="cls-2" d="M710.15,364.84c1,.46,3-4.57,3.13.7,2.7-2.88,4.64-3,5.7-.55-1.84,1.12-2.14,3.73-4.55,4.41-2.65.76-1.14,3.78-2.87,6C711,371.47,710.6,368.16,710.15,364.84Z"/><path class="cls-2" d="M805.08,355.88c1.6-1.72.62-4.1,1.52-6.08,2.13.35.56,2.66,2.1,3.44.15-.78.36-1.6.45-2.42.29-2.63,1-3.23,2.58-.62-1.27,3.06-.07,6.41-1.05,9.55-1.09-2.71-1.09-2.71-5.19,1.82A11,11,0,0,1,805.08,355.88Z"/><path class="cls-2" d="M771.93,368.06c1.32.47.71-4.8,3.45-1.06.69.94,0-2.49,2-2.3a8.5,8.5,0,0,1,.76,5.06c-2.56,2.61-.46,6-2,9.1C776.75,374.37,771,372.7,771.93,368.06Z"/><path class="cls-2" d="M1144.61,314.8c2.2,5-2.11,5.79-4.78,5.92-2.11.1-2.9-3-2.73-5.38.13-1.95-.55-3.95.33-5.86,4.17,1.53.63,5.74,3.08,8.31C1141.7,316.63,1142.81,315.14,1144.61,314.8Z"/><path class="cls-2" d="M592.93,363.5V343.39H594v15.49h.75l.55-11.6c1.19,2.89-.29,6.1,1.62,8.65.76,2.91.08,5.83-.15,9.33C596.65,360.71,594,364.82,592.93,363.5Z"/><path class="cls-2" d="M364.14,359.07v-5.43c3.11,5.46,3.22.46,4.24-.82,1.19.86.22,2.53,1.59,3.09v8.52l-1.51-4c-1.08,1.49,0,4-2.63,4.54C364.44,363.22,365.87,360.68,364.14,359.07Z"/><path class="cls-2" d="M111.46,357.21c-.46-5.26,3.17-7.65,7-9.77.49-.27.36,1.6,1.52,1.48.58,3.09-3.86,4.88-1.17,8.63-3-.89-1.48-3.47-3.37-4.15C114,354.42,113.84,357,111.46,357.21Z"/><path class="cls-2" d="M850.66,278.82c.76,6.86.24,13.73.16,20.78-1.19-.74-.45-2.49-1.93-2.72-.52-4.45-1.83-8.86-.48-13.4C848.92,281.79,848.87,279.88,850.66,278.82Z"/><path class="cls-2" d="M570,297c-.05.65-.12,1.29-.14,1.94-.08,2.58-.43,4.8-3.9,3.09-1.11-5.06,1.69-9.71,1.31-15.4C570.09,290.08,567.12,294.28,570,297Z"/><path class="cls-2" d="M748.92,374c-1.33-2.65.54-5,.62-7.55.35,2.35.71,4.69,1.18,7.86,1.82-1.86,1.83-4.37,4.13-4.41.67,3.57.12,7.15-.21,10.93C753.58,377.75,750.6,376.45,748.92,374Z"/><path class="cls-2" d="M212,368c-1.08-3.84.67-5.62,4.37-6,2.11,4.62-1.82,8.46-1.48,13C212.58,373,214.34,369.7,212,368Z"/><path class="cls-2" d="M583.84,307.17c-1.72,3.73-.07,7.84-1.66,11.65,1.24-7.18-3.46-13.68-2.08-20.88C584.38,299.79,584,303.54,583.84,307.17Z"/><path class="cls-2" d="M87,309.07l-1.51.24A68.87,68.87,0,0,1,87,286.76Z"/><path class="cls-2" d="M468.87,369.33c2.35-3.05,1.76-6.84,2.51-10.29.43-2,.57-4,2.82-4.81.3,4.85.16,9.6-2.39,14C471,369.6,470.72,371.24,468.87,369.33Z"/><path class="cls-2" d="M571.09,383.9a.93.93,0,0,1,.86.07c2,6.59.34,13.27,1,19.89l-1.87.07Z"/><path class="cls-2" d="M317.84,284.18c-1.86,1-3.55,1.39-3.49-1.62.06-3.18-.7-6.42.51-9.54C318.35,276.07,318.46,280,317.84,284.18Z"/><path class="cls-2" d="M670.83,353c5.15,4.2,3.67,9.89,3.44,15.31C671.53,363.56,672,358.1,670.83,353Z"/><path class="cls-2" d="M462.93,373c-1.18-2.47,1.18-4.15,1.69-6.22.43-1.72,1.21,1.2,2.28,1.09-3,7.21-1.3,14.91-2.18,23.65C462.72,384.56,465.62,378.51,462.93,373Z"/><path class="cls-2" d="M89,351.85c.35-2,3.07-2.72,2.46-5.26,2.15,3,1.88,6.23,1.64,9.42-2.15,1.47-.54,4.07-1.87,6C89,358.87,91.42,354.79,89,351.85Z"/><path class="cls-2" d="M138.07,371c3.18-1.92,2,3.6,4.62,2.68.9,2.92.12,5.86.18,9.35C138.8,379.66,140.85,374.35,138.07,371Z"/><path class="cls-2" d="M979.83,304c-4.73,1.41-5.63.59-5.67-5.16l2.68-2c.13.47.45,1.42.66,2.39s.31,2,.49,3.18c1.4-.68,1-1.91,1.34-3.08C979.92,301,980.66,302.4,979.83,304Z"/><path class="cls-2" d="M370.15,352.09v-3.37c1.27,2.51,6.47,1.88,4.93,6.24-2.47-.44-2.59,1.43-2.81,3-.26,1.88-.34,3.79-.56,6.4C370.41,359.84,371.7,355.81,370.15,352.09Z"/><path class="cls-2" d="M572,292.06l-1.81-.23V272.58A59.32,59.32,0,0,1,572,292.06Z"/><path class="cls-2" d="M937.91,308c0,1.52,1,4.09-.93,4.19-2.58.13-1.75-2.71-1.94-4.42a15.3,15.3,0,0,1,.22-2.92c2.31-.31,5.15-2,5.68,2.23l0-.06-1.43,0h-1.18l-1,.43Z"/><path class="cls-2" d="M496.06,322c-2.36,1.15-3.8,1.09-2.82-2.15,1.29-5.53.25-11.21,1.31-16.81C495.46,309.29,496.6,315.54,496.06,322Z"/><path class="cls-2" d="M183.09,343c.56-1.65,1.12-3.3,1.72-5.09,2.16.95,3.82,2.88,6.29,3.1v2C188.43,342,185.78,345.53,183.09,343Z"/><path class="cls-2" d="M1253.82,369.11c1.5-3.15,2.22.11,3.3.4,1.31,2.36.55,4.76,0,7.13a1.81,1.81,0,0,1-1.26,0C1252.83,374.81,1254.43,371.65,1253.82,369.11Z"/><path class="cls-2" d="M144.91,367.79c1.24-3,3.19-5.78,2.48-9.61,1.34,3.64-.74,7.46,2.12,10.44.61,1.74.58,3.33-1.63,3.69s-1.54-1.56-1.82-2.65C145.85,368.91,145.93,368,144.91,367.79Z"/><path class="cls-2" d="M473.19,299c-2.66,2.36-.5,5.87-2.34,8.6,1.59-3.55-3.5-4.44-2.73-7.67,1.06-.58,3.14.69,3.19-1.81,0-.7-.08-2,1.23-1.45C473.43,297,474.13,297.9,473.19,299Z"/><path class="cls-2" d="M744.07,389.06c-.32-2.6-.13-5,2.62-6.3.91,4.91.17,9.84.26,15.08C744.12,395.28,746.22,391.48,744.07,389.06Z"/><path class="cls-2" d="M491.4,354.71l1.48.16c.64,5.78,0,11.54-.11,18.57C491.15,366.45,490.55,360.64,491.4,354.71Z"/><path class="cls-2" d="M312.83,268.87V283.1l-.45.15-2.16-8C309.49,272.44,310.25,270.28,312.83,268.87Z"/><path class="cls-2" d="M852.21,257c.91,4.48-.16,8.74-1.38,13C850,265.55,849.12,261.07,852.21,257Z"/><path class="cls-2" d="M534.85,387.33c-1.53-4.83-.2-9.69.18-14.58,1,4.71,1.91,9.41.93,14.27Z"/><path class="cls-2" d="M1260.56,359c-.63-2.79.44-5.45.51-9,1.14,3,2,5.26,2.81,7.5-.15,2.05-.3,4.11-.46,6.35C1261,362.77,1263.48,359.35,1260.56,359Z"/><path class="cls-2" d="M934.21,363.88c.39-4.41.78-8.82,1.26-14.23.27,5.42,1.78,9.76.91,14.3Z"/><path class="cls-2" d="M426.85,287.16c-.8-1.36-5.08,2.57-3.55-2.33,3.19-2.05.8-5.76,2.46-8.33.56-.87-.1-2.31,1-3.37A55.85,55.85,0,0,1,426.85,287.16Z"/><path class="cls-2" d="M137.92,294.14a4.11,4.11,0,0,1-.78-.07V268.28h.78Z"/><path class="cls-2" d="M565.79,311.85c-1.65,2.56.91,7-3.68,8.24C562.25,316.86,560.25,312.67,565.79,311.85Z"/><path class="cls-2" d="M1199.29,353.22a3.41,3.41,0,0,1,.32-3.26c.65-1-.23-2.81,1.61-3.1s1.52,1.91,2.79,2.25C1205.09,353.54,1200.41,351.33,1199.29,353.22Z"/><path class="cls-1" d="M25.69,383.15c1.21-1.67-.25-3.91,2-6.58.05,5.42,1.86,9.86-1.63,14Z"/><path class="cls-2" d="M274.5,359.67c2.15.32,3-1.36,4.11-2.73L280,361c-3-.68-1.35,2.4-3,3.31C276.27,362.78,273.29,362.6,274.5,359.67Z"/><path class="cls-2" d="M417.8,305.85c.62,2.89.3,5.71-.06,9.12-2.46-2.25-.51-5.2-2.57-6.8v-5.4C416.43,303.66,415,306.54,417.8,305.85Z"/><path class="cls-2" d="M890.79,444.35c-2.39-5.56,1-9.93.63-14.59C891.49,434.39,892.65,439.11,890.79,444.35Z"/><path class="cls-2" d="M567.26,370.79c2.54.47,1.38-2.11,2.46-3a7.54,7.54,0,0,1,.65,6.5c-1.78-.89-1.57,1.75-3,1.67A8.41,8.41,0,0,1,567.26,370.79Z"/><path class="cls-2" d="M731.17,308.23c-2.42,1.86-2.37,4.61-2.7,7.29a22.37,22.37,0,0,0-2.31-7.66C727.86,307.64,729.62,306.5,731.17,308.23Z"/><path class="cls-2" d="M536.25,398.78l.23-.17.25.15v22.76h-.48Z"/><path class="cls-2" d="M957.25,273l-1.24.07a25.74,25.74,0,0,1,.86-10C957.84,266.39,958.33,269.67,957.25,273Z"/><path class="cls-2" d="M1031.66,373l2.17-1.12a17.16,17.16,0,0,1-.73,8.12C1031.93,377.78,1030.56,375.65,1031.66,373Z"/><path class="cls-2" d="M540.9,288c-1.55,1-.17,3.08-1.69,4.52V280.88C542.06,282.72,541.18,285.45,540.9,288Z"/><path class="cls-2" d="M488.19,355.13c-.06-1.77-.17-3.54-.14-5.3,0-.89-.25-2.28,1-2.36s2.5.66,2.1,2.41c-2.23,2.07-.16,5-1.5,7.4Z"/><path class="cls-2" d="M715.92,303.06c-.59-.69-.22-2.28-1.87-2a24.3,24.3,0,0,1,.72-9.22C716.65,296.21,716.18,299.65,715.92,303.06Z"/><path class="cls-2" d="M751.5,297.34c-2.64.57-2.76-.69-1.93-2.65,3.1-1.16.95-3.66,1.32-5.5s.08-3.57.61-5.38Z"/><path class="cls-1" d="M24.64,288.91l-1.42,2.95V273h.44Z"/><path class="cls-2" d="M994.84,362c.86-.24,1.7-1.41,2.57-.42a2.18,2.18,0,0,1,0,2.7c-2.72.55-.84,3.12-2.14,4.51C994.22,366.54,993.52,364.37,994.84,362Z"/><path class="cls-2" d="M532.32,401.74l2.16-.13c1.65,4-.39,7.66-1.19,11.5Q532.81,407.42,532.32,401.74Z"/><path class="cls-2" d="M1197.09,361.11c0-1.89-.16-3.78-.16-5.66,0-3.31,1.54.32,2.12-.45C1200.09,357.58,1199.88,359.76,1197.09,361.11Z"/><path class="cls-2" d="M283.67,358.59a4.79,4.79,0,0,1,3-5.87C286.91,355.3,288.24,358.47,283.67,358.59Z"/><path class="cls-1" d="M260,366c.17-1.6.34-3.19.53-5,.24,2.53.46,4.81.67,7.09-.06,3.3-.11,6.6-.17,9.9a5.72,5.72,0,0,0-.83-.12Q260.11,372,260,366Z"/><path class="cls-2" d="M467.14,365.07a17.66,17.66,0,0,1,.77-8.11c.81,2.74,1.37,5.47.59,8.31Z"/><path class="cls-2" d="M1204.84,316.06l-1.83-1v-8.94A15.5,15.5,0,0,1,1204.84,316.06Z"/><path class="cls-2" d="M97.07,306c1.56,3,.91,4.26-2.58,3.3-.49-1.33-.9-2.81.1-3.91C95.39,304.51,96.23,305.77,97.07,306Z"/><path class="cls-2" d="M852.1,442.16V425.43h.6v17Z"/><path class="cls-2" d="M314.66,262.3l-1.54-.28c-1.34-2.27.21-4.32.27-7.27C314.23,257.76,315.56,259.85,314.66,262.3Z"/><path class="cls-2" d="M346.92,295.91v9.35l-.46.06-1.41-8.51C345.38,295.9,346.27,296.17,346.92,295.91Z"/><path class="cls-2" d="M457.54,305.73c.9,2.38.23,4.73,0,7.25-2.61-1.37,0-4.63-2.39-5.86C455,305.07,456.56,305.88,457.54,305.73Z"/><path class="cls-2" d="M1179.07,380.87c.56.32,1.12.64,1.69.95a29.7,29.7,0,0,1-.24,9.45C1179.8,387.83,1178.61,384.48,1179.07,380.87Z"/><path class="cls-2" d="M565.14,358.86c3.71,2,2.45,5.14,2,8.13C565.21,364.58,566.31,361.45,565.14,358.86Z"/><path class="cls-1" d="M257.85,387.77c-.53-4.61-1.84-9.24.22-13.81Q258,380.88,257.85,387.77Z"/><path class="cls-2" d="M89.9,317.87c.73,2.61-1.25,4.74-1.34,7.25-.51-2.35-1.71-4.62-.64-7.11Z"/><path class="cls-2" d="M635.33,386.73l1.56.15c.55,2.13.09,4.18-.28,7.05C634.45,391.26,634.89,389,635.33,386.73Z"/><path class="cls-2" d="M543.83,363c-1.37-2.25-.06-4.25.48-6.39,1.19.88.13,2.72,1.64,3.33C546.48,361.8,545.49,362.62,543.83,363Z"/><path class="cls-2" d="M936.58,365.62l2.08.14c.32,1.74.66,4.36-1.4,4.24C935.44,369.88,936.05,367.27,936.58,365.62Z"/><path class="cls-2" d="M777,302.06c.3,2.46-.25,4.74-1.64,8.32-.44-3.81-.77-6.15-.17-8.54Z"/><path class="cls-2" d="M646,305c-1.79,1.44-2.13,3.49-2.47,5.62-.19-2.24-.94-4.44.15-6.62C644.49,304.23,646.56,301.53,646,305Z"/><path class="cls-2" d="M27.13,281l-.39.25-.46-.09a8.63,8.63,0,0,1,1-6.69C27.85,277.39,28.45,279.14,27.13,281Z"/><path class="cls-2" d="M134.15,383l.28-.33.41.15c.61,1.77.17,3.47-.27,6.59C133.34,386.37,132.91,384.73,134.15,383Z"/><path class="cls-2" d="M1193.07,293.18c-.23,2.15.36,4.54-1.89,6.3a14.91,14.91,0,0,1-.06-6.61Z"/><path class="cls-2" d="M668.11,342.89c2,1.71,2.07,4.07,2.25,6.4C668.49,347.55,668.26,345.24,668.11,342.89Z"/><path class="cls-2" d="M526.55,382.64c2.38,1.71,2.59,4,1.9,6.63C526.72,387.37,526.65,385,526.55,382.64Z"/><path class="cls-2" d="M754,299c.53,1.94-1.47,3.24-1.19,5.69-1.3-1.78-2.1-3-1-4.69Z"/><path class="cls-2" d="M735,295c-1.67-1.1-1.54,1.34-2.65,1.34a11,11,0,0,1,1.13-5.1C735.45,292,735.22,293.47,735,295Z"/><path class="cls-2" d="M1258.11,366.12c-.21-1.93-.9-4.07,2.07-4.57C1261.27,363.89,1260.16,365.22,1258.11,366.12Z"/><path class="cls-2" d="M1261.87,312a5.27,5.27,0,0,1-1.32,4.78,6.75,6.75,0,0,1-.33-4.94Z"/><path class="cls-2" d="M216.91,356a2.26,2.26,0,0,1,0-3.06c1.39.18.72,2.3,2.25,2.28C218.84,356.66,217.71,355.83,216.91,356Z"/><path class="cls-2" d="M1064,372.05c-.18-1.41-.86-3.66.93-3.68,2,0,.94,2.17.83,3.48Z"/><path class="cls-2" d="M785.08,291c1,1.06.29,2.11.32,3.46-1.89-1-1.44-2.34-1.3-3.55A4,4,0,0,0,785.08,291Z"/><path class="cls-2" d="M543,297.12l-1.34,1.21c-.94-1.17-.51-2.39-.1-3.61A3.29,3.29,0,0,1,543,297.12Z"/><path class="cls-2" d="M304.81,355.43c3.88-1.73,1.47,1.73,2.17,2.62C305.38,357.9,305.13,356.64,304.81,355.43Z"/><path class="cls-2" d="M260.2,377.86a5.72,5.72,0,0,1,.83.12c1,1.25.16,2.41,0,4C259.41,380.56,260,379.18,260.2,377.86Z"/><path class="cls-2" d="M143.41,366c-.76-.5-.79-1.14-.26-2.15l.65,2.29-.25.07Z"/><path class="cls-2" d="M631.79,307.86c.35,1.18.4,2.29-.7,3.14C630,309.65,630.41,308.65,631.79,307.86Z"/><path class="cls-2" d="M109.24,359.84l1.71,0c-.3.46-.24,1.37-1.09,1.15C109.57,361,109.44,360.25,109.24,359.84Z"/><path class="cls-2" d="M1209.07,322c.93.81.39,1.63-.36,1.71-1.14.12-1-.89-.82-1.69Z"/><path class="cls-2" d="M461.18,382.85a1.7,1.7,0,0,1,.86.14c.3.78.25,2.05-.37,2C460.47,384.84,461,383.67,461.18,382.85Z"/><path class="cls-2" d="M983.85,306.1l-.44,0L983,306l.51-1Z"/><path class="cls-1" d="M1118.78,395.84l-.66-.62.81-.24C1118.89,395.27,1118.84,395.55,1118.78,395.84Z"/><path class="cls-3" d="M1029.07,294.11c1,.09,1.51.57,1.42,1.59-.07.81-.71,1-1.36,1.17Z"/><path class="cls-3" d="M515,326c-1.06.05-2-.37-1.82-1.49s1-1.31,2-.64Z"/><path class="cls-2" d="M573.79,306.41l-.35.33a1.32,1.32,0,0,1-.09-.42,4.6,4.6,0,0,1,.25-.74Z"/><path class="cls-3" d="M939.56,307l1.43,0c0,.7,0,1.41.07,2.12C938.85,309.65,940.58,307.35,939.56,307Z"/><path class="cls-2" d="M981.42,312.31c-.35-.73-.57-1.43.13-2.08A1.54,1.54,0,0,1,981.42,312.31Z"/><polygon class="cls-2" points="772.28 306.42 772.56 306.28 772.51 306.63 772.28 306.42"/><path class="cls-3" d="M937.91,308l-.58-.5,1-.43Z"/><path class="cls-2" d="M245.72,352.12c.1.12.29.25.29.37s-.19.25-.3.37c-.11-.12-.29-.25-.29-.37S245.61,352.24,245.72,352.12Z"/><path class="cls-3" d="M1000.63,227.71v39.88h-.25v-40Z"/><path class="cls-1" d="M1116.57,278.73c.15-2.31.3-4.61.46-6.92.77,2.51,1.18,5,.26,7.5Z"/><path class="cls-3" d="M962.42,393.63c0,.15.15.31.12.44-.09.48-.3.53-.49.12a.59.59,0,0,1,.07-.44C962.15,393.68,962.31,393.67,962.42,393.63Z"/></svg>
