<svg id="Layer_1" data-name="Layer 1" xmlns="http://www.w3.org/2000/svg" viewBox="0 0 363.42 322.55"><defs><style>.cls-1{fill:#fff;}.cls-2{fill:#8b8b8b;}.cls-3{fill:#090909;}.cls-4{fill:#fdfdfd;}</style></defs><path class="cls-1" d="M-614.9,140c.37,2.21-.32,4.61,1.63,7.48.36-3.53.63-6.28,1-9.63,1.32,2.8,2.39,5.08,3.49,7.43a3.5,3.5,0,0,0,1.52-2.11c.61,2.52,1.42,5.92,2.22,9.24,2.64-.14,1.36-3.85,3.9-3.08,2.2,3.17.95,7.37,1.94,11.36,2-2.14,2-2.14,3,1.05,1.62-2,.81-4.67,2.23-7.57,2,3.41.71,6.86,2.45,9.38,1.61-1.07-.62-3.86,2-4.36.23,0,.78,1.54,1.21,2.44,1-1.3.69-3.29,2.56-4.39.39,2.17.76,4.23,1.39,7.67A89.62,89.62,0,0,0-581.84,141c2.06,1.75,1.53,4.24,1.81,6.49.64,5.16,0,10.5,2.33,15.49,0-3.54,3.38-6,2.68-9.74-.14-.79-.31-2.15,1.23-2.15,1.24,0,1.73,1,1.83,2,.25,2.44.35,4.89.42,6-2.38-3.77,5.4-4.63,4.47-9.06.55,3.24,1.11,6.48,1.92,11.17a172.39,172.39,0,0,0,.18-24.28l.12-2.91c4.1,9.41,1.39,19.55,2.8,30.61,1.36-4.55,0-8,1.66-11.49,1.43,3.83.36,7.52,1,11.08.76-1.55.36-3.59,2.56-4.88-.77,4.65,2.77,6.91,4.48,10.11,1.47-8.58,2.91-17.06,4.35-25.53a4.17,4.17,0,0,0,.15-.87c1.32,2.53,1.16,5.57,2.34,8,.93,1.92,5.48-.6,5.3,3.6,2-.54,1.6-2.46,3-3.19,1.24,1.33,2.45,2.69,2.33,4.68a5.78,5.78,0,0,0,3,5.74c3.28,1.95,3.35,5.18,3.35,8.31,4.17-6.56,4.84,3.78,8.23,1.27-.77-2.35,2.52-3.81,2.3-6.51,6.21-12.57,5.25-26.1,5-39.46,0-2.9,2.19-4.65,2.23-7.27l2.16,8,.45-.15V111.79l.29-6.85,1.54.28c.07,3.57.13,7.14.2,10.72-1.21,3.12-.44,6.36-.51,9.54-.06,3,1.63,2.59,3.5,1.62.16,3.12-.28,6.3,1.09,10.82,2.32-5.56,1.29-10.26,1.58-14.62.75,13.23,1.93,26.46,5.6,39.27,1.33.66,1.16-3.07,2.77-.87,1.4,1.92,2.52-2,3.78,0,2.38-1.62,2.38-1.62,5,1.08,2.31-7.9,1.77-16.53,7.42-23,.47,2.84.93,5.68,1.4,8.52l.46-.06v-9.35c1.54-1.53,1.4.16,1.51.87.36,2.38.61,4.77,1,8.19a10.71,10.71,0,0,0,2.62-7.42c.3,1.84.59,3.69.89,5.53-.36,3.93,2.18,6.31,4.84,8.88a8,8,0,0,1,3.08-6.82c.15,2.27.28,4.36.43,6.61.91-.86.53-2.84,2.42-2.52.51.82,1,1.64,1.89,3,.35-2.21.64-4,.91-5.7.25,1.55,2.77,1.89,2.37,4.17-.17,1-.68,2.93,1,3.18,2,.3,2.23-1.46,2.37-3a10.15,10.15,0,0,1,.31-1.31c.15,1.75.3,3.4.44,5,1.33.27,1.27-.92,1.84-1.39a12.33,12.33,0,0,0,.2,1.24c.41,1.68-.11,3.64,1.68,5.3,1.85-1.75.72-4.16,1.62-6,1.68.22,2.36,1.8,2.94,2.93,1,1.83,1.81,2.11,3.38.95.31-.23.83-1.62.77-.69-.25,4.09,4.44,1.24,5.11,3.95.12.49,1.85,1,2.59-.75,1.19-2.85.63.35.77.44,2.13,1.29,3.47,1.36,3.45-1.78,1.15,1.71.25,4.62,3.42,5.13.21-2.1.41-4.18.73-7.38.29,3.44.49,5.75.69,8.06l.6.05,1.11-6.17c-.41,2.17-.29,4.35,2.24,5.28.87.31.92.16,1.26-3.49-.67,1.14.08,2,.91,2.81,1.82-.46.44-2.72,2-3.52.26,1.72.51,3.33.76,5,2.51-1.33,2.51-1.33,4.08-16.33,2.06,1.6.11,4.55,2.57,6.8.36-3.41.68-6.23.06-9.12.05-8.13.16-16.26.11-24.39a35.56,35.56,0,0,1,1.29-9.3c2.64.91,1.27,3.08,1.3,4.65.13,7.58.05,15.17.05,22.76,2.49-5.45.46-11.18,2.48-16.56l.27,1.82c-1.53,4.9,2.75,1,3.55,2.33l.18,11.85c.1,6.56,3.08,12.17,5.93,17.81.3.59,1.38.78,2.09,1.16.24,1.57-.12,3.34,1.39,4.51,2-1-1.56-4.06,2.1-4.68,4.32-.73,4.6,2.8,6.29,5a5.07,5.07,0,0,0,1.69-2.87s.2,1.3.4,2.66c1.64,0,.52-1.78,1.85-2,.26,1.17.56,2.46,1,4.59,1.34-2.3,3.72-2.24,4.37-4.79,1.13-4.41.69-8.85.95-13.27,2.43,1.23-.22,4.49,2.39,5.86.25-2.52.92-4.87,0-7.25l.18-8.73c1.64-1.07,1.93-2.79,2.3-4.52.23-1-.32-2.89,1.92-2.39-.73,3.71,2.42,5.51,4.19,7.84,1,1.28.53-1.44,1.57-1.4l.42,3.4c-.77,3.23,4.32,4.12,2.73,7.67,1.85-2.73-.32-6.25,2.34-8.61l.06,7.86v11.48c1.6-3-.82-7.17,3-9.54,1.47,2.22.28,4.91,2.05,6.75.72-1.2-.22-2.9,1.46-4.11.27,3.35.51,6.43.72,9.05,3.18-.26,2.4-2.71,2.62-4.7.53-4.89-.73-9.89.87-14.72.08,3.6.16,7.19.23,10.79a61,61,0,0,1-.24,6.35c-.6,4.21.71,6.35,5.28,5.48a29,29,0,0,1,1.82-4.53c1.24-2.06,2-1.38,2.18.66-1,3.24.46,3.3,2.82,2.14l.2,2.43.52,0c.14-2.28.29-4.55.43-6.83,1.46.31.34,2.1,1.9,3.19V143.81l.75,0c.06.71.11,1.42.16,2.13a139.08,139.08,0,0,0-.07,20.31c.05,1.05-.77,3.16,2.12,2.74,2.33-.34,1.87-1.73,1.93-3.06.06-1.65,0-3.3,0-5.49,4.12,3.61,2.7,9.48,6.86,12.19.3-1.89,2.71-2.26,4.14-3.7l.14-2.13.12-1.56.13-.48c.12.11.37.23.36.33-.47,4.48,2.72,5.83,6,7.05,1.87-12,1-24.1,2.35-36.12,2.28,3.29,0,7.54,2.46,10.91-2-7,4.08-12.53,3.15-19.3-.18-1.33,1-1.46,2.07-1.48.84,2.85-1,6.06,1.19,8.72,1.48.66,2.42.38,2.44-1.45l0,.19c1,4.14-.28,8.68,2.46,12.72V125.79c.11-2.12.21-4.24.33-6.84,1.52,1.73.69,3.41,1,4.85v11.67c1.52-1.44.14-3.52,1.69-4.52.22,2.23.45,4.46.67,6.69-.41,1.22-.84,2.43.1,3.61.45-.4.9-.8,1.34-1.21.33.33,1,.71.93,1-.9,5.35,2.05,10.19,2,15.37,0,3.46,2.35,5.67,4.61,4.92,5.1-1.71,4.09,3.06,6,4.6.82.68.06,2.23,1.3,2.85,1.43-1.21.48-3.19,1.37-4.6,1.48.84.23,2.71,2.27,3.46l.61-4.6c4.58-1.25,2-5.68,3.68-8.24,0-3.28.09-6.57.13-9.85,3.47,1.71,3.82-.51,3.9-3.09,0-.65.09-1.3.14-1.94.06-1.72.11-3.43.17-5.15l1.81.24c.94,2.17-1.84,5.48,2.05,6.75-.43,3.52,3,6.08,2.28,9.18,2.29-3.75,2.6-8.33,2.59-13,0-.81.1-1.65,1.09-2,.05,1.63.1,3.25.14,4.87-1.38,7.21,3.33,13.71,2.08,20.89,1.59-3.81-.06-7.92,1.66-11.65a28.19,28.19,0,0,0,1.16,4.71c.27.66.46,4,2.36.82a5,5,0,0,1,.37-.53,10.51,10.51,0,0,1,.89,1.69c.53,1.62.85,2.3,2.53.64.76-.75.35,1.58,1.66,2.09.16-1.7.3-3.31.44-4.91l.81,0v6.24c3.15,1.26,4,7.79,9.34,4.16,0,0,.61,1.21,1.11,1.41,2.06.8,3.5,3.28,5.21,3.47,2.9.33,3-.28,3.83,2.22.34-1.35.62-2.46,1.09-4.35.31,1.94.48,3,.67,4.2,1.64-1.39,3-4.25,5.49-1.93,2.37,2.19.73-1.47,1.94-.89.15,1.26.32,2.65.48,4l.21-1.67c2.62,2,4.31-2.47,7.21,1.46.24-3,.8-5.07.12-7.21l.33-11.84c1.1-.86,1.05-2,.7-3.14l.39-1.67c2.36.57.78,3.57,2.75,4.74.52-3.8-.21-7.47,1.73-10.85.17,2.64.33,5.11.45,6.95,5.52-2.88,4.94-8.56,5.34-13.92,0-.3.76-.54,1.16-.82,0,3.92,0,7.83.05,11.74-1.09,2.18-.34,4.38-.15,6.62.34-2.13.68-4.19,2.47-5.62l1.3,5.84c1.55-.78.65-2.14,1.33-3,.9,2.93,3.37,7.36,4.74,7.7,4.19,1,2.7,5.91,6,6.82.93.25,2.36,1,2.74.66,3-2.76,3.56.5,5.62,3.15.93-7.17,1.7-13.09,2.47-19,6.41-.66,7.25-5.23,7.39-10.38.61,3.92,1.22,7.85,1.81,11.62,4.67-3.29,5-8.69,6.76-13.63l.66,6h.54c.19-2.49.39-5,.6-7.63l4.87,3v7.28h.9c.22-2.75.45-5.51.7-8.57,1.48,2.91,1.33,5.83,2.07,9.71l.91-5.26c1.79.19,1.35,1.56,1.37,2.64,0,3.23,0,6.47,0,9.7,2.26-3,.46-6.54,2.1-9.15a33.63,33.63,0,0,1,7.18,11.65c.8-3.66,1.38-6.34,2-9,2.16-1.5.24-4.14,1.82-6.12,1.9,1.47.53,3.73,1.47,5.48,1-1,.57-2.31.77-3.42,1.64-.3,1.27,1.29,1.86,2l.15,1.86c1.46,2.95,5.62,3.42,6.1,7.23l3.1-4.74.89.45a22.54,22.54,0,0,1,2.32,7.66c.33-2.68.27-5.43,2.69-7.29q.61-6,1.21-11.93c1.11,0,1-2.44,2.65-1.34.68,3,1.48,6,2,9.08A1.93,1.93,0,0,0-82,148.83c1.63.12,1.09-1.3,1.18-2.11.63-5.91.39-11.91,2-17.71,2.52,4.27,0,9,1.43,13.13.32-2.45.63-5.17,1-7.88.1-.69.29-2.3,1-1.67,3.16,2.75,1.6-.75,1.86-1.39a20.1,20.1,0,0,0,.72-3.33c2.06,3,.78,6.52,1.46,9.74-.84,2-.72,3.22,1.92,2.65.09.89.19,1.78.28,2.68-1.07,1.66-.26,2.91,1,4.69-.28-2.46,1.72-3.75,1.19-5.69A32.13,32.13,0,0,0-63.55,130c1.34,3.75-.27,8.1,3.41,11.11,3.41-4.1,1-9.3,2.61-13.72,2.27,4.31-.7,9.89,3.41,13.71-.33,1.32-.68,2.64.8,4L-51,141c.69,2.29-.59,6.81,1.3,6.63,3.66-.36,1.2-4.5,1.87-6.93.41-1.5.21-3.17.34-6.07,2.66,3.93,1.26,7.23,1.84,10.18-.6,2.39-.27,4.73.17,8.54,1.39-3.58,1.94-5.86,1.64-8.32l.21-3.83c1-1.14,1.93,1.3,2.37.38A25.08,25.08,0,0,0-39,126.85v-5.34l1.1-.1,1.11,12.43c-.13,1.21-.59,2.52,1.3,3.55,0-1.35.64-2.4-.32-3.46.09-1.57.19-3.14.28-4.71,3.29,1.29.71,4.53,2.2,6.53.29-1.41.56-2.74,1.11-5.38.32,3,.5,4.58.63,5.77,2.95-1.69,1.64-6.4,5.3-8a98,98,0,0,0,3,25.3c.47-2.34,2.53-4.21,1.38-6.88.38,2.38.77,4.77,1.31,8.16,2-4.4,2.92-7.85,1.52-11.79-1.21,2.51-1.09,2.45,1.5,8,1.23,2.65,1.53,5.78,3,8.22.79,1.3,4.24.23,4,3.58.71-2.35,3.33-3.38,3.06-5.92,0-.18,1-.72,1.11-.63,1.12,1.14,2.67,2.2,3.09,3.59.63,2.13.46,4.49.66,7.1,1.63-.84,1.43-2.34,2.2-3.48.19,2,.37,3.9.63,6.62,1.78-4.39,3.74-.52,5.67-.94,3.63-.78,0-4.84,3.67-6.15-1.25,6.24,6.2,4.49,7.58,8.75,0,.13.29.34.36.31.72-.29,1.95-.5,2.07-1,.84-3.4,6.23-1,6.4-5.19q.43-10.71,1.15-21.41c.1-1.52-.89-3.34.89-4.57,1.48.22.74,2,1.93,2.72.08-7.05.6-13.92-.16-20.78l.17-8.81c1.23-4.25,2.29-8.52,1.38-13q.51-6.48,1-13c4.27,1.37.42,3.86.48,5.62.47,12.8.35,25.62.43,38.44a17.45,17.45,0,0,0,1.63,7.75,294.57,294.57,0,0,0,2.51-39.65c.07-8.65-.45-17.3.42-25.93l.17,2.84c-.15,23.79-.54,47.6,5,71.34,1.84-2.19,1.78-4.63,3-7.69.4,9.06.75,17,1.11,25,2.64-5,2.52-10.42,3.51-16.76,4.07,4.54,5.51,9.23,7.23,14,.53-2,1-3.68,1.47-5.43,1.31.72.15,2.45,1.89,3V145c.6-8.77,5.17-16.91,4.07-25.94,4.64-4.93,4.24-11.48,5.19-17.62,1.77.67.43,2.91,2.76,3.16V79.34H74v54h1V106.7l1.24,0c-1.1,9.64,1.17,19,1.73,28.46.56-8.15.47-16.28.62-24.4,0-2.63-.51-5.8,3.25-7.19,1.27,7.63-1,15.46,2,22.79,1.28-6.38,0-13,2.5-19.27,1.82,13.7,2,27.55,5.17,40.52,3.66-3.16,0-9.92,5.18-13.16,1.83,3.7,1,7.81,1.75,11.67,1.2-8.06-.5-16.32,1.51-24.28,1.41,7.14.18,14.38,1.78,22.57l2.05-4.55c-.36,4.54,3.89,6.41,3.57,10.17,0,.17.8.6,1.22.59,1.13,0,1.2-1,1.14-1.8-.26-3.61.72-7.26-.39-10.83l.2-1.63c1.8-.71,3-.71,3.24,1.78.1,1.26-1.11,3,.84,3.83.21,1.93.41,3.87.62,5.8a16.16,16.16,0,0,0-.22,2.92c.19,1.7-.63,4.55,1.94,4.42,1.93-.1.89-2.67.93-4.19l.47-.93h1.18c1,.32-.71,2.62,1.5,2.06a6.38,6.38,0,0,1,1.92-.18c7.27,1.53,9.32-.46,8.39-8.2l.39-5c.14-1.91.17-1.85,2.54-3,1.06-.54.73-1.75.79-2.69.33-5.64.62-11.29.92-16.93l1.24-.08q.25,8.52.5,17a21.88,21.88,0,0,0,.23,9.73c.81-2.4.17-5,1.4-7.31,1.53,1.9.21,4.49,1.94,7.08.3-5,.55-9.25.8-13.5l.51,0q1.06,8.43,2.14,16.85l.56.07c.28-3.33.56-6.65.92-10.9,2.21,3.6.42,6.85,2.9,10.31V120.82c2.65,6.17,1.44,12.61,2.21,19.91.74-1.7.61-3.8,2.56-2.77.08,1.27.16,2.55.25,3.82,0,5.75.93,6.57,5.67,5.15.43,1.44-.46,3.55,1.25,4.23,1.27.52,1.19-1.48,1.89-2.2l.43.1.44,0h0c-1,5.81,1.32,9.72,6.95,11.3.17-3.07.36-6.55.55-10.07,1.85,4,1.39,8.34,2.06,12.53.34-2.28.51-4.55.68-6.82,0-.49.06-1,.08-1.49.23,0,.55,0,.66.09,1.86,2.21,2,.59,2-.94,0-6-.11-11.92-.17-17.87l.12-3.82c.76,0,1.11-3,2.08-.43.66,1.76-.4,3.91.72,6,.22-3.15.41-6.09.61-9l1.44,0,.85,12H182V107c6.21,12.39,8.13,25.78,7.23,39.67,1.21-5.32-.21-10.89,2.09-16.19,1.33,1.81,0,4.17,1.77,5.75,1.28-.89.5-3.28,2.48-3.38,2.19-.11.79,2.54,2.61,3.25V123.68l1.16-.09,1.89,20.49c.15-3.24,3.91-4.76,3.71-8,.13,2.89.27,5.77.43,9.41,1.29-4.31-.9-8.57,2.6-11.57h0a3.5,3.5,0,0,0,.17,3.06c0,.92,0,1.84.07,2.76-.48,3.38-.38,6.64,1.72,9.92,1.6-2.5.09-5.15,2.17-7.87v15.43c.56-3.36,1.78-3.76,4.5-1.75,3,2.24,4.66,1.19,4.41-2.6,3,1-.67,4.56,2.49,5.67,1.4-3.28-.19-7.25,2.64-10.94.28,2.38.49,4.16.74,6.3,3.32-1.76,4.52-5.25,7.45-7.13.67,1.32,1.14,3.37,3.32,3s1.12-2.38,1.5-3.65c3.73-12.44,2.85-25.25,3.12-38,.95,10.71-.4,21.57,1.94,33.55,1.44-3.86.77-6.86,2.44-9.53.78,3.54-.24,7,2.23,10v-24c3.13,3.16,2.39,6.65,3.14,10,0-2.85,3.09-2.65,3.57-5,1.24,2.25.15,4.53,1.79,6.1.42,6.26-.58,12.56.51,18.8,2.64,3.24,3.68,8.23,9.57,7.79,2.17-.16,3.1,2,3,4.15a2.73,2.73,0,0,1-.1.48l0-.23c.24-1.63.14-3.42.8-4.87,1-2.17.13-6.24,2.4-6.35,3-.14,2,4.07,2.93,5.72,1.08-1.86-1.44-4.85,1.91-6.5.18.55.35,1.1.53,1.65,0,.3,0,.68.12.89a1.46,1.46,0,0,0,.78.21c.91-2.69,1.78-5.39,2.66-8.12,1.94,2.94,1.77,6.21,1.74,9.9,5.78-16-.59-32.36,3.78-48V116.4c3-11.27,1.52-22.78,2.45-33.12.8,13.25-1.17,27.71,3.42,41.32.49-.37-1-3.12,1.68-2.95l.72.58V154l1.3,0c.59-11.52-.59-23.13,1.36-34.66,1.49,9.94.13,20.22,4.41,29.59q1-18,2-36h.68v25.82c1.65-5.18.05-10.61,1.83-15.73q.1,4.39.2,8.81c-.87,9.55,1.63,19,1,29.52,1.36-4.13,2.37-7.23,3.43-10.45.86,2.42,0,5.11,1.47,7.33,2.5-2.4-1.08-6.24,2.58-8l-.06,2.17c-.88,1.91-.2,3.91-.33,5.85-.16,2.41.62,5.49,2.73,5.39,2.67-.13,7-.94,4.78-5.92.08-1.93.15-3.86.23-5.8,1.38-2.83.73-5.88.79-8.81.28-16.11-.59-32.25,2.06-48.92.26,3.19.47,5.79.73,9,.32-4.42.58-8.19.85-12,2.19,2.65,1.62,5.51,2,8.18.91-2-.29-4.57,1.29-6.69,2,6.54,1.05,13.33,2.8,20.69.29-3.14.5-5.31.8-8.52l1.19,3.37c1.23-.79.17-3.21,2.36-3.2.06,2.28.11,4.57.17,6.85-.81,14.77,1.85,29.34,2.56,44,0,.09.52.16,1,.3,0-5.55-.24-11,.1-16.48.17-2.73-1.31-7.42,1.55-7.84,4.5-.66,2.4,4.66,4.49,7.13,1.53-9,1.54-18.11,1.12-27.23l.07-3.9c3.72,2.34.84,6.53,2.81,9.66.58-4.29.47-8.49,1.92-12.72.46,6.81.9,13.28,1.43,21,1.57-3.52.79-5.89,1.17-8.13.26-1.6-.23-3.89,2.63-3.75,0,.64.05,1.27.08,1.9l1.32,25.41h.37c.26-1.84.52-3.67.85-6,4.24,3.79,1.5,8.53,3.31,12.3-1.37-6.05,2.26-11.72,1.1-17.75V122.1c4.24,4.8,2.63,9.51,3.28,13.69a15.06,15.06,0,0,0,.06,6.61c2.25-1.76,1.66-4.15,1.89-6.3,2.19,4.78,1,10,1.76,14.92a10.08,10.08,0,0,0,1,5.83c1.72,3.27,7.25,3,7.2,7.9V158h0l1.83,1,1.75-.09c.34,1.56.82,3.81,1.3,6.05-.17.8-.32,1.81.82,1.69.75-.08,1.3-.9.37-1.71l.12-1.78c3-.25,4.11-2.16,4.21-5.54.45,3.65-.4,6.71,1.3,9.58-1.22-12.15,2.93-23.83,2.55-36,1.77,4.66.7,9.49,1.75,14.13.88-3.86.24-8,2.87-12.21-.6,4.69,1.65,7.66,3.38,11l1.1-2.21c.84,3.15,1.66,6.19,2.55,9.55,1.3-1.61.74-4.43,2.71-4.14s.95,2.75,1.05,4.22c.25,3.82-.33,8,4.91,8.88.14-2.75.28-5.56.42-8.38,3.93-.49.74-4,2.48-5.38.24.72.53,1.57.81,2.42.8-5.28,3.42-9.56,5.91-14,1.42,1.05.39,2.57,1.12,3.61a9.15,9.15,0,0,0,3-4.35c.52,3.36,1,6.54,1.51,9.71-.79,3.53,1.17,6.26,2.65,9.19,1.42-1.62-.15-6.56,4.71-4.3l0,5.83a6.82,6.82,0,0,0,.33,4.95,5.25,5.25,0,0,0,1.32-4.78c.43-2.28.85-4.55,1.36-7.24,2.13,8,7.24,13.55,11.86,20.19,2-4.52,1.66-8.52,1.73-12.43a91,91,0,0,1,1.82-18.33c.14-.63-.17-1.89,1.27-1.15v76c-2.3.41-3.18-.37-3.11-2.86.14-4.63-.07-9.26-.17-13.89,0-2.07-.53-4.3-2.56-5-2.34-.74-2.61,2-3.63,3.25-3.49,4.4-1.59,9.87-3,14.54-2-2,1.34-6.78-3.56-7.63-.83-2.24-1.67-4.47-2.8-7.5-.08,3.59-1.14,6.25-.52,9-.13.85-.25,1.71-.38,2.57-3,.49-2.28,2.64-2.07,4.57l-1,3.38c-1.08-.28-1.8-3.54-3.3-.39-2.07,2-.48,4.56-1,6.79-3.64,1.89-2.11-2.83-4.08-3.22-1.69,1.73.51,4.88-2.1,6.38-1.77-1.85-.42-4.35-1.79-6.2-.82,1.2-.52,3.3-2.75,3a50.07,50.07,0,0,0-2.43-16.66c-1.14-3.35-5.25-5.35-4.08-9.7-.92,2.42.4,5.89-1.56,7-4.19,2.4-3.57,6.29-4.25,9.89-1.94-.43-1.07-3.24-3.32-3.4-.62,4.59-2.09,9.06-.85,13.72,0,.68,0,1.35,0,2-3.61-.85-1.09-3.73-1.82-5.53-.43-1.08.18-3.63-1-3.15-3.41,1.43-2.44-1.54-2.63-2.47a64.71,64.71,0,0,1-.62-8.16c-1.1,11-1.1,11-5.32,12.69-1.48-9.24,1.88-19.32-5-26.6-.2.66,0,3.2-3,2-.59-.24-.19-2.39-1.6-1.62-.94.51-.87,2-.52,3.22v0c-1.27-.34-1.06-2.54-2.79-2.26s-1,2.11-1.61,3.1a3.44,3.44,0,0,0-.32,3.27l-.24,1.78c-.58.77-2.1-2.86-2.11.44,0,1.89.1,3.78.15,5.67v8.34l-.78.08-1.75-8.11c-.54,2.68-.9,4.43-1.25,6.18-2.67-1.73-.45-4.93-2.56-7.57v15.91l-.67,0c-.18-4.05-.37-8.11-.57-12.71-.34,3.06-.61,5.57-.89,8.07h-.59l-.82-7.37-1.44.11v12.78c-1.36,7.25-1,14.59-.73,21.84a145.16,145.16,0,0,1-3.2-25.45c-1.58,3.62-.85,6.18-1.08,8.63l-1.69-1c-.06-.33,0-.83-.18-1-1.39-1-1,.44-1,.88a82.08,82.08,0,0,1-.91,14.4V222h-1.23v16.75c-1.79-8.69-.35-17.52-1.51-27.67-.94,10.5-1.77,19.63-2.59,28.77-.13-10.81-1.79-21.4-3.33-32.46-.67,4.73,0,9.12-1.25,13.33-.47-3.85-5.22-5.77-4.35-10.25-3.28,12.69-3.37,25.55-3.89,38.37-3.5,1.88.08,6-3,8.47-.17-10.61-2.51-20.75-2.36-31.15-3.51,15.4-.84,31-2.53,46.48V248.92c-1.65,2.19-.75,4.12-1.46,5.77-.68-2.51-2.4-.44-3.55-.86q-.9-26.58-1.81-53.17a26.09,26.09,0,0,0-.46-4.42c-.65-3-3-4.11-5.88-4.89,1.86,7.45-6.09,12.31-4.88,19.6-2.54-4.67-.47-9.85-1.63-14.22-1,7.14-2.14,14.71-3.23,22.28l-.24,1.81c-3.07-2.59-1.2-6.46-2.41-9.59-1.28,1.68-.25,4.7-3,5.25-3.09.62-3.23,2.85-3.47,5.24-.49,5,.75,10.4-4.22,14.21v-19.4h-1.28v19.83l-1.26-.08c-.33-5.47-.66-10.95-1-17.06-1.95,2.81-1.65,5.65-3,8,1-7.19-3.79-13.4-2.78-20.53a24.46,24.46,0,0,0-.72-11.48c-2.38,4.47-1.13,8.88-2.15,13.06-1.73-1.63-.2-4-2.12-6.06-.21,2.34-.36,4-.5,5.62-1.77-.2-1.49-1.87-1.38-2.68.68-4.8-4.45-3.6-6.09-6-.51-.75-.87.5-1.12,1s-.65,1.73-.71,1.71c-3.71-1.1-5.92.3-6.81,4-5.57-.69-3.95,4.07-4.57,6.59-.73,3-.34,6.24-.43,9.38-3.23-3.29-1.2-7.55-2.23-11.15-2.73,1.48-1.7,4.76-3.12,7.22.22-4-3.81-5.95-4.22-9.68-.7,3.07-.94,6.13-1.44,9.16-.19,1.19.72,3.32-1.89,3.17,0-1.91-.09-3.82-.14-5.73.11-1.31,1.15-3.49-.83-3.48-1.79,0-1.11,2.27-.93,3.67l-.24,4.74a15.19,15.19,0,0,0-4.18-7.92c-2.78-2.72-2.56-6.45-4.76-9.05-.8-.94-2-3.3-2.54-2.56-3.37,4.57-6.74-.61-9.87.43-.58.2-.59,2.08-1.08,4-.36-2.39-.6-3.93-.86-5.65-3.15,5.07-7.93,9.18-6.66,15.83l-2.17,1.12-.53-6.27q-.27-4.21-.56-8.44l-.6,0c-1.12,5.76-2.23,11.53-3.51,18.14-1.27-4.83.05-9.15-2-12.73-1.21,3.28.39,7.32-2.55,10.33-.33-.75-.82-1.05-1,0-.21,1.57-.17,3.18-.24,4.77-1.89,0-1.92-1.33-2.09-2.71-.41-3.37-.92-6.73-1.4-10.09h-1v17.37H194V214.37c-4.45,11.49-1.74,23.34-4,34.81V224.1c-1.52,7.81-.12,15.8-2.12,23.57-1.3-7.48,0-15.16-3-23.61v13.09a75,75,0,0,1-3-25.89c-1.24,4.22-2.11,7.17-3.08,10.49-1.66-2.37-.07-5.09-2-6.84-.12-2.57-.25-5.14-.37-7.71a2.18,2.18,0,0,0,0-2.7c-.86-1-1.71.18-2.57.42l-.13-1.85c-.09-2,2.67-5.17-2.78-4.57-2.1.23-.89-4.16-2.59-5.89-.81,5.62-.81,5.62-5.4,3.65,3.3,6.51-5.09,4.28-5.56,8.54-.5-1.57-.88-2.73-1.22-3.78-1.94.2.27,6.16-4.05,2.3a17.74,17.74,0,0,1-3.12,11c-.25-4-.45-7.17-.65-10.3l-1.47-.15c3.14,8.13-3.78,14-3.85,21.41,0,.3-.5.61-.77.91-3.15-3.17-1.38.89-1.87,1.41s.26,2.15-1.11,2.66c-1-3.76.15-7.72-1.45-11.32-.22-1.25.5-2.68-1.51-4.39v21.34h-1.61V210.38c-2.57,2-1.32,5-3.14,7.21-2.26-3.07-1.36-6.57-1.63-9.81-.3-3.51-2.22-3.32-4-1.57-1.49,1.48-1.64.78-2.22-.45s.2-3.07-2.85-2.37c-2.45.56-3,1.28-3,3.3,0,.67-.12,1.33-.18,2l-2.09-.14c-.06-.56-.13-1.12-.2-1.67.87-4.54-.64-8.88-.9-14.3-.49,5.41-.88,9.82-1.27,14.23l-.3,3.06c-1.61-1.1-1.28-3.29-2.57-4.62-.27,1.42-.53,2.79-.78,4.16-.31-3.4-2.63-5.53-4.12-7.84-1.23,4.8-2.5,9.71-3.87,15-3.07-2.13-2.09-5.07-3.17-6.89-.75,3.13-.08,6.63-1.81,10.66-.59-1.89-.93-3-1.22-3.87-.37,2.78-2,5.53-1.15,8.61-.16,1.6-.33,3.2-.49,4.81-2.19,1.12-1.56-1.15-2.24-1.89-1.25.95-.18,3-1.72,4-1-1.83.23-3.89-2.15-6.38,2.22,11.31-3.67,20.87-2.5,31.17V237.53c-2.3,7.11-5.2,14-4.79,21.7l-1.49-.29V220h-.45q-.84,20-1.69,40H76v-13.4c-.79,4.46-3,8.32-5,12.43V241.22h-.62v28.88c-.56.58-1.17.69-1.27-.25a25.69,25.69,0,0,1-.11-4.47c.78-10.63-1.82-20.86-3.57-31.21A60.92,60.92,0,0,1,65,223.79,103.72,103.72,0,0,0,63.93,205c.65-3.52-1.71-6.27-2.45-9.43a1.22,1.22,0,0,0-1.81-1c-2.28.77-3.62-.13-4.24-2.33-1.76,1.77-.34,4.8-2.37,6.65-.34-1.2-1-2.73-1.93-.66-.81,1.72-.71,3.87-1,6-1.85-1.49-3.75-3.73-4.76.81-1.89,8.54-4.67,16.87-5.67,25.6a3.64,3.64,0,0,0,.74,3.31c1.31-3.52,1.31-3.52-1.74-5.64-1.73,9.86-1.34,19.76-2.19,27-.56-3,0-8.66-2.45-14.1-2.58,5.49-1.21,11.6-3.3,17.28,0-8.6-.4-17.22.11-25.78.53-8.86-3.81-16.83-3.65-25.69.11-5.72-.23-11.61-.7-17.41-.27-3.37-.63-6.29-5.25-6-.13,1-.31,2.32-.49,3.72-1.42-.67-1.45-3.34-2.62-2.62-1.53.94-5.39-.51-4.65,3.58-.22-1.36-.45-2.72-.68-4.08-1-.32-1,.42-1.1,1-3.61-.93-4.56,3.68-7.72,3.7l-5.35,2.41c-3.78-4.08-4.73.6-6,2.29-1.74,2.29-1.42.32-1.8-.52-1.54-2.61-2.29-2-2.58.62-.09.82-.3,1.64-.44,2.42-1.55-.78,0-3.09-2.1-3.44-.9,2,.07,4.35-1.53,6.08-.31-.87-.58-3.2-1.53-.56s-.81,5.5-1.11,8l-.6.44c0-.15,0-.32,0-.43-.55-1-1.37-1.73-2-2.63-.73-1.07-3.12-1.76-3.43.48a155.45,155.45,0,0,0-1.24,17.65c1.67-1.91,1-3.69-.2-5.89-1.72,2.58-.1,5.47-1.68,7.63-1.5.05-2.74,1.79-4.55.35-1-.84-2.89-1.89-2.86,1.26,0,2.24.51,4.62-.71,6.76l-.52-1.74c.9-3.94-1.29-7.22-1.93-10.83-.95,5.79-.95,5.79-3.62,4.51-.19-3.71.21-7.47-.93-11.11a8.5,8.5,0,0,0-.76-5.06c-2-.19-1.34,3.24-2,2.3-2.74-3.74-2.13,1.53-3.45,1.05-2.57,3.68-.48,8-1.66,11.7-.77-5.45.21-11.39-3.05-17.87l-3.7,13.87c-1.47-.27.12-2.32-1.34-2.77-.18,1.8-.37,3.58-.66,6.41-.36-3.05-2.89-3.79-3.08-6.07l-1.1,4.37c-.46-4.46-.83-8-1.24-11.92-1.8,1.48-1,2.9-1.24,4.1-2.31.05-2.32,2.56-4.13,4.42-.48-3.17-.84-5.51-1.19-7.86-.08,2.52-2,4.9-.62,7.55-2.19,2.56-2.07,5.7-2.23,8.78-2.75,1.32-2.94,3.7-2.62,6.3l-.21,3.8-1.4-.2q.08-3.26.16-6.51c2.14-7.19-1.83-13.74-2.38-20.74.81,3.64-1.38,6.15-3,9-2-5.29-.84-10.89-2.81-16.12-.25,3.44-.49,6.89-.84,11.86-1.71-3.86-4.15-5-5.88-6.81-1.94-2.05-4-.4-4.14.49-.26,2.16-2.53,3.13-2.46,5.24l-1.66,4.23c-.18-3.4-.3-5.85-.43-8.3-1.06-2.47-3-2.33-5.69.55-.1-5.27-2.1-.24-3.14-.7l-.46-4.66v-4.84c-1,.57-1.43,3-2.07,2.14-1.65-2.25-2-1.28-1.91.49.22,3.53-3.46.19-3.87,2.37-1.33-.73-.57-2.06-.86-3.08s.27-2-.89-3c-.36,2.79-1.14,5.45-.93,8,.32,3.69-3.83.23-4,2.8l-.51-7.44c-.39,6.57-5.11,11.6-6.83,18-.4-3.07-.8-6.14-1.2-9.3-.76,1.66.05,3.61-1.39,5.3-2.26-5.63-.54-11.47-2-17-.55,7-1.1,14.09-1.69,21.55-1.81-2.24-1.2-4.68-1.65-6.86-.24-1.17.38-3.12-1.49-3.14-1.56,0-1.09,1.74-1.24,2.81-.23,1.6.08,3.61-2.64,3-.09-1.24-.19-2.48-.29-3.72.23-5.41,1.71-11.1-3.43-15.3l-.48-3.71c-.18-2.33-.28-4.7-2.25-6.4-3.79.34-7.13,1-10.11,4.12a25,25,0,0,0-6,10c-3.76-.24-1.36-3.4-2.41-4.8l-3.86,7.65V192.66c-1.6,6.05.82,11.52-2.67,16.29-1.47-1.56-.4-3.35-2.31-4.62v9.88c-2.59-2.85-2.61-6.06-3.3-9.05-.3,5-1,9.92-.3,14.86l-.28,9.78-1.55-.15,0-23.76c1-4.15,1.22-8.16-2-11.59-.78,1.43.09,3.22-1.4,4.81,0-2.37,0-4.36,0-6.36s0-4-.18-6c-.21-2.87-1.93-3.85-4.46-2.84a3.77,3.77,0,0,1-2.37-.19c-3.4-1.18-3.1,1-3,3.13-1.34.84-2.48,1.84-2.39,4.93-.5-2.48-.71-3.55-.94-4.67a7,7,0,0,0-2.81,5.58c.26-4.41-4-6.38-6.23-11.48,2.68,8.65-7,4.49-6.7,10.82l-1.12-3.36c.21,2.32-3.59,2.65-2.63,5.32.34,2.09-3.23,2.43-2.18,4.84-1.91-2.55-.43-5.76-1.62-8.66l-.55,11.61h-.75V186.31H-228v20.11c-1.71-1.6-.48-3.69-.93-5.51.36-4.08-4.52-5.5-4.71-9.29L-234,198l-.85,0v-9.09c-2.81,4.56-2.72,8.81-3.13,12.94l-.08,1.91c-.32-.56-.91-1.64-.93-1.63-4.2,2.19-3.17-1.57-3.84-3.34-.33-.88.22-2-1.06-2.87v12c-1.64-.25-.58-2.54-2.14-2.41s-2.14,1.61-2.37,2.83a50.08,50.08,0,0,0-.27,14.77l-.28,3.84a.93.93,0,0,0-.86-.07l-.72-9.6a7.57,7.57,0,0,0-.65-6.51c-1.08.89.08,3.47-2.46,3l-.14-3.8c.48-3,1.74-6.15-2-8.12-.67-3.72-1.58-7.42-1.93-11.18-.18-1.9-1.52-2.85-2.48-2.65-3.23.67-6.17,2.24-9.61,2.65-1.66.2-1,3.49-1.48,5.55-.37-.93-.71-1.75-1.21-3-.89,3.5-1.68,6.59-2.47,9.68-1.52-.61-.46-2.45-1.65-3.34-.53,2.15-1.85,4.15-.48,6.4,0,.61,0,1.21-.05,1.81-2-2.22-2.79-.34-3.69,1.11V203.6H-282c0,5-.41,10,.09,14.89.82,7.94-1.88,15.42-2.29,23.18l-.25-.15-.24.17q-.13-5.88-.29-11.76c1-4.86,0-9.56-.92-14.27-.39,4.89-1.72,9.75-.19,14.58q-.18,7.14-.37,14.28l-2.16.13-.21-.85c-.51-10.92-1-21.85-1.47-32.78,0-.49.28-.58-.09-.26-.88,4.28-.77,8.56-.78,12.87,0,4.74,1,9.55-.59,14.22l-.73-5.67c.69-2.59.48-4.92-1.9-6.63a2.25,2.25,0,0,1-.12-.48c.19-13.9-4.34-27.38-3.75-41.72-1.3,4.58-6.62-.61-8,3.77l-.6-2c-.21-.7-.42-1.45-.95-.16a3.87,3.87,0,0,0-.13,1c-1.34-.8-3.67-.21-3.39-3.6-1.85,3.91-1.85,3.91-2.58,3.74-3.2-.76-3.23-.69-3.83,2.38-.32,1.62.67,3.75-1.86,4.82-.18-3.16-.35-6.19-.52-9.11-1.42-.85-.49,4.86-3,.84-.19-.31-2.56.26-2.56.36A21.27,21.27,0,0,1-328,195.86l-.08,1.93-1.48-.16-.27-4.83c.39-1.75-.75-2.5-2.1-2.41s-1,1.47-1,2.36c0,1.76.08,3.53.14,5.3l-.45,6.27-.86,0V191.21a12.64,12.64,0,0,0-1.48,11.54c1.49-3.56,1.53-6.22-.55-9.17-2.72,3.35-1,7.41-2.31,9.87-.15-2.82-.35-6.47-.54-10.12h-.92v20.26H-341V197.36l-.94,0q-.51,5.89-1,11.78l-.52.09-.64-2.91-.71,0c-.18,2-.35,4-.52,5.86-1.37-4.94,1.14-10.15-1.4-15-2.25.85-2.39,2.81-2.82,4.81-.75,3.45-.15,7.24-2.51,10.29l-.36-4.06c.77-2.84.21-5.57-.6-8.31a17.65,17.65,0,0,0-.76,8.11l-.25,2.77c-1.07.12-1.85-2.8-2.28-1.08-.51,2.07-2.87,3.74-1.69,6.22-.29,3.34-.59,6.67-.89,10a1.7,1.7,0,0,0-.86-.14c-.15-3.65-.3-7.29-.43-10.94-.05-1.52-1.23-2.05-2.27-2.71l-.95,2.06a23.42,23.42,0,0,1-.27-2.85c.08-8.15-3.43-15.49-5.22-23.22-.34-1.5-1.31-1.6-2-.74-2.51,3.08-2.74-.18-4.42-2.83.8,5-3.37,3.42-3.93,5.3-.75,2.49-.58,5.25-.81,7.9-1.91-1.72,0-4.51-2.17-6.87-.37,2.32-.66,4.16-1,6.18-1.5-2.27-2.93-4.39-3.1-6.79-2.61,4.66-2.43,10-2.83,15.31l-.68,1.43a9.77,9.77,0,0,0-1.74,0c-.62,3.89-6.47,4.82-5.43,9.75.28,1.31-.48,2.84-.77,4.27l-.36,7.83c-2-5-1-10.38-2.64-15.41-.27,4.8-.23,9.6-.3,14.4,0,1.11.76,2.88-1.55,2.84-.61-4.91.57-9.9-.66-14.78,1.79-7.08,1-14-1.45-21.84-.22,2-.77,2.71-1.94,2.66-.29-3.78,1.26-8.19-3.45-10.47-1.53.75-.38,2.62-1.49,3.33-.81.35-1-.21-1.19-.6-.42-.69.27-2.62-1.17-2-4.61,2-10.87-.68-14.08,5.23-.84,1.54-1.89.91-4.56-2.9-1.15,0-1.19.92-1.31,1.73s-.16,1.47-.29,2.66l-1.57-3.1c-1.52,4.34-1.07,8.35-1.6,11.13-.11-2-.27-5.08-.44-8.21-5.11,2.91-5.18,3-5.54,5.51l-1-2.52c-.33.64-.65,1.29-1,1.93,0,0-.31,0-.38-.08a1.41,1.41,0,0,1-.17-.46c1.54-4.37-3.66-3.73-4.93-6.24V195l-.18,3.82c-1.37-.56-.4-2.23-1.59-3.09-1,1.28-1.12,6.28-4.24.82V202c-.88,3.38-2.29,6.69-1.19,10.66,1.4-5-.51-9.51-1-14.26,0,4.36-2.7,7.61-4,11.38-2.46-1.06-1.83-3.26-1.71-5.11.19-3.06,0-6-2-8.72-.36,4.8-3.9,7.2-7.26,5.5-2.25-1.14-2.62.79-3.83.38-4.64-1.44-4.54-5.67-5.26-9.33-2.48.34-4.45,1-4.64,3.8-.19-1.95-.38-3.91-.6-6.22-2.77,1.31-2.32,4.36-4.06,6l-1-4.83c-6.68,17.46-4.87,35.23-7.25,52.46,1-1,.62-1.76-.38-2.2-.71-.31-1.17.1-1.57.72-2,3.13-2.36,9.46-.52,14.27,1.13-4.71,1.52-8.84-.53-12.91.54-2.16-.56-3.8-1.58-5.32-1.45.68.15,2.62-2,3.61,1.9-11-1.36-21.1-3.38-31.09-1.16,1-.34,3.46-2.54,4.12-.5-4.65.65-9.38-.8-14-.7-.9,1.71-4.35-2.16-2.62-1.64-1.15-.07-3.42-1.61-4.6-.71-3.57-1.71-6.91-4.85-9.33-1.35-1-2-1.17-3.21.08-2.15,2.28-3.31,6-7.85,5-.94-.21-.9,2.14-.37,3.42l-.24,2.73a4.79,4.79,0,0,0-3,5.87l-2,5.84c-2.06-.7-1.26-2.32-1.69-3.42l-1.42-4.08c-1.08,1.38-2,3.06-4.1,2.74-.11-.9-.21-1.79-.31-2.69.05-3.32-4.23-4.54-3.31-9.07-1,3.07-.13,5.44-2.15,7.91-.73-3.36-1.24-5.92-1.87-8.44-.26-1,.07-2.65-1.62-2.66-1.44,0-1,1.46-1.23,2.3-.38,1.36-.93,2.91-2.41,2.71s-1.56-1.92-1.8-3.22c-.12-.65-.16-1.31-.23-2-.21.72-.22,1.63-.67,2.09a3.12,3.12,0,0,1-2.2.88c-1.07-.12-.72-1.28-.81-2-.17-1.31-.21-2.63-.32-4.08-1.28,7.35-.56,14.69-1.2,22.55-1.87-1.48-.58-3.69-1.88-4.42-2.08.89-.74,2.91-2.13,3.91-.41-3.51-3.19-5.65-4.41-8.79a35.9,35.9,0,0,0-1,6.19c-.16,1.25-.11,3-1.82,3.08s-.06-2.53-1.62-2.82c-2.67,1.15-1.08,4.52-3.32,5.79-.39-6.11-.77-12.22-1.16-18.45-2.19.69-.8,3.19-2.65,4.16-.4-2.16-.79-4.22-1.17-6.29-1.2,4.22-1.21,8.46-2.77,12.56,1.85-4.9-5.91-4.68-5.17-9.31l-1.41,13.46-1.36.12c-.47-3.61-.93-7.23-1.53-11.81-.87,1.93-1.32,2.9-1.76,3.87-1.52,0-.85-2.1-2.25-2.28a2.25,2.25,0,0,0,0,3.06l-.51,6c-3.7.34-5.44,2.12-4.37,6,.47,2.65-1.76,4.45-2.15,6.83a32.58,32.58,0,0,1-3.14-14.55c-1.38,2.78.72,6.53-3.36,8-.21-4-.41-7.81-.63-11.88-1.86,1.81-.84,4.3-2.68,5.59.18-5.78-.71-11.47-1.22-17.2-.39-4.39-4.27-4.06-6.91-5.27-1.25-.57-.45,1.05-.85,1.53-2.47-.22-4.13-2.15-6.29-3.1-.6,1.79-1.16,3.44-1.71,5.09-.29,1.42-.06,3-1.55,4.06-.14-1.42-.28-2.88-.41-4.23-1.45-1.25-3.31,4.5-4.37-.41-.9,1.09-1.05,2.71-2.59,3.41-.42.19-.49,1.14-.72,1.74-.11-.47-.22-.94-.32-1.41-.81-3.5-2.07.21-3.07-.19-1.43-.31,0-2.76-1.94-2.64s-1.93,2.09-2.79,3.56c-.21-2.39-.39-4.37-.57-6.35-.05,4.23-3.56,6.44-5.53,10.39-.17-3.71-.31-6.64-.46-10-2.17,3.82-.66,8-2.51,11.82-2.17-3.1-.54-6.75-2.85-9.24-.22,3.59-.43,7.12-.68,11.42-1.48-3-3.31-4.75-3.22-7.45-.14,5.35-1,10.6,0,15.83l0,5.29c-2.86-3-.78-6.8-2.12-10.44.71,3.82-1.24,6.61-2.48,9.61-1.2,0-.71-1.11-1.11-1.63l-.64-2.29c-.54,1-.51,1.65.25,2.15-1,2.49-.49,5.12-.72,7.68-2.59.92-1.44-4.6-4.62-2.68-4.85,2.88-2.59,7.73-3.23,11.77l-.41-.15-.28.33q0-6-.08-12c.58-5.63.88-11.07-1.88-16.5-2-4-2-.13-2.94.33-.06-1-.07-2-.19-3-.44-3.33-.17-7.39-5.72-5.49-1.92.66-.64-1.84-1.9-2a9.33,9.33,0,0,0-1.43,4.6c-1.16.12-1-1.75-1.51-1.48-3.87,2.12-7.5,4.51-7,9.77l-.51,2.65-1.71,0c-.29-.51-1-.63-1.06-.19-.31,1.29-.27,2.66-.62,3.93,0,.19-1.09-1.72-1.73-.83s-.78,2.53-1.15,3.91c-2-1-.94-2.91-1.89-4.09-1.25.89-.48,2.25-.8,3.34-4.82-.87-2.21-4.92-3.4-7.41l-.8,2.94c1.15-6-3.07-1.84-4.64-2.51l-.09-2.93c.24-3.18.51-6.38-1.63-9.41.6,2.54-2.12,3.27-2.46,5.26-.77,4.5-1.53,9-2.51,14.73-.56-8.74-1-16.24-1.54-24.07-4.79,1.16-3.08,5.37-4.36,8.74l-1.29-3.45c-.39-3.11-2.86-4.68-4.9-7.23a13.41,13.41,0,0,1-3.06,7.45l-1.72-3.84c-2.4,1.51-2.82,5.23-4.84,6.24-3.21,1.62-3.9-3.22-6.23-4.21-1.75,1.13-.64,3.58-2.37,4.71l-.57-4.07c-1.08,3.6-3.62,5.08-3.68,7.92-.43-1.35-.86-2.7-1.36-4.24-1,1.72-.67,3.71-2.15,4.92-1.31-1.23-.13-3.18-1.71-4.18-.3,1.46-.57,2.85-.86,4.27-1.4-1-.23-3.15-2.3-3.89-1.65,2.93-1,6.15-1.41,9.18-.19,1.62-1.34,3.79-2.28,3-1.75-1.5-4.57-1.78-5.4-4.29-.26,1.34.15,2.87-1.13,4.39-2-2.59-2.61-6.06-5.43-8-1-.7-1.16-3.18-2.68-2.7-1.75.54-1.74,2.41-1.16,4.22,1.8,5.7,1,11.54,1,17.89-2.21-3.27,1.14-7.95-3.82-9.46.12-10.54-.62-20.87-8-29.38-1.59.79-1.18,3.24-2.75,5.16-.85-2.76-4-3.09-4.79-5.73-1.59.32-1.11,2.22-2.24,2.86-3.55-4.81-.13-7.4,3-10.19,1.62,1.17,1.36,3,2.24,4.76,2.3-3.6,7-4,8.95-8.12.79-1.65.83,1.52,3,1.21V153.27c2.72.91,1.83,3.22,1.86,5.07.08,5,0,10,0,14.95,1.56-3.19,1.54-6.47,1.81-9.67.89-10.53,1.26-21.1,1.84-31.66l.16-7.87.45.09.39-.25.3,6.78c-1.09,7.91-.38,15.82,0,23.78,1-2.7-.39-7.8,1.16-7.87,4.34-.18,2.09-2.9,2.22-4.18.5-4.92-.86-10.05,1.83-15.29.91,5.82-.68,11.35,3.72,16.12,4.71,5.08,4.18,12.9,8.35,18.7,1.28,1.77,4.16,0,4.28,3.5.17,4.71,3.38-.8,4.92.73,2.78-8.31,3.47-1.63,5,.62.6.9,2,2.21,2.53,2,1.09-.42.74-1.89.54-3,.8-1.62-.84-4.22,2.08-5,4.21-1.11,5.35-.38,7,4.51.26.75.67,1.44,1.47,3.16l3.06-9c2.39,3.35,2.5,7.3,3.94,11.29,4.14-5.71,6.25-11.74,6-18.58l1.52-.24.9,8.93c-1.07,2.5.13,4.76.64,7.11.09-2.5,2.07-4.63,1.34-7.24l.07-4.87c3.32-.67,1.92,4.15,4.78,4.07-.38-2,.9-4.13-.51-6.05l.25-1.72c3.49,1,4.15-.3,2.58-3.3-.65-3,2-4,3.52-5.64,2.17-.95,3.12.05,4,2,1.17,2.58,2.74,2,3.79-.2a13.52,13.52,0,0,0,.68-3.3c2.21,1.08,1.26,3.6,2.43,5.4,2.38,3.69,1.31-1.58,2.41-.4-.21,5.08,3.63,9.34,3.36,14.84,2.42-.12,3.52-2.07,5.67-2.75-.91,4.68,1.65,7.75,4.33,10.66a1.25,1.25,0,0,0,1.15-1.6c-1.08-8.89,4.45-16.7,4.1-25.47-.13-3.16,3.41-3.38,4.62-5.49a4.11,4.11,0,0,0,.78.07c.33,1.12-.38,2.45.69,3.43.49.45.95.12.34-.14a2.3,2.3,0,0,1,.12-.44c1.86.55.78,3.28,2.79,3.75,2.11-.91.48-3.44,1.93-4.65.69,3.54-.7,7.63,2.85,10.24.66-2.69-.17-5.61,1.32-8.2.37,3.45.83,6.88,1.07,10.34a7.27,7.27,0,0,0,4.08,6.45l1.12-8c-1,3.66,1.67,4.79,4.93,7,1.7,1.16,5.41,2.51,5.81,5.95.16,1.32-.65,3.71,1.22,3.67,1.36,0,2.73-2,4-3.21.33-.33.2-1.12.3-1.76,1.2,2-1.08,5,2.58,5.64-1,3.14,1.3,3.32,3.28,3.6,3.23.47.73-3,2.44-3.67.16,2.26.31,4.5.47,6.78,1.82,0,1.84-4.63,3.8-2.06s1.88-1.18,2.94-.28c1.8,1.55,6.64.6,8-1.47.42.81-.57,2.2,1,2.52.19-1.75,2.33,1,3-1.76,2-7.85.74-15.75,1.48-23.58,3.34-1.54-.31-5.89,3.59-7.87v17.33c.77-4.5.69-9,.82-13.44C-617,141.9-618,139.51-614.9,140Zm367.78,9.36-.2-.83a3.76,3.76,0,0,0-.24.74,1.08,1.08,0,0,0,.08.42Zm407.62,5.9a1.54,1.54,0,0,0,.13-2.08C159.93,153.8,160.16,154.5,160.5,155.23Zm-209.14-5.89.23.21,0-.35ZM-575.2,195c-.11.12-.3.24-.3.37s.19.25.29.37c.11-.12.3-.25.3-.37S-575.1,195.16-575.2,195Z"/><path class="cls-2" d="M109.44,138c1.11,3.57.13,7.22.39,10.83.06.81,0,1.76-1.14,1.8-.42,0-1.23-.42-1.22-.59.32-3.76-3.93-5.63-3.57-10.17l-2.05,4.55c-1.6-8.19-.37-15.43-1.78-22.57-2,8-.31,16.22-1.51,24.28-.8-3.86.08-8-1.75-11.67-5.22,3.24-1.52,10-5.18,13.16-3.2-13-3.35-26.82-5.17-40.52-2.51,6.31-1.22,12.89-2.5,19.27-3.06-7.33-.78-15.16-2-22.79-3.76,1.39-3.2,4.56-3.25,7.19-.15,8.12-.06,16.25-.62,24.4-.56-9.5-2.83-18.82-1.73-28.46l-1.24,0v26.67H74v-54h-.91v25.25c-2.33-.25-1-2.49-2.76-3.16-1,6.14-.55,12.69-5.19,17.62-.27-8.14-.59-16.28,1.24-24.32a20.94,20.94,0,0,0,.34-4c.53-21.45,1-42.9,1.58-65.55.89,3.35,1.48,5.61,2.16,8.16.1-3.46,3-5.53,3.16-8.77-.29,5.87,2,11.38,1.56,17.19-.31,3.66,2.5,6.56,2.3,10.47-.47,9.14-.15,18.32-.09,27.47.93-15-.7-30.07,2.11-45,2,14.9,5.09,29.64,4.37,44.76V53.27c3.15.95,2.44,3.18,2.45,4.9.06,11.83,0,23.65.5,35.48V58.49C90,66.89,90.2,75.62,90,84.7c2.53-1.58.55-4.68,3.57-6.1.15,2.78.59,5.23.34,7.6-1,9.38,2.74,17.61,6.32,25.76,2.39,5.44,2.51,11.29,4.15,16.84C105.44,132.39,107.43,135.09,109.44,138Z"/><path class="cls-2" d="M208,134c-3.5,3-1.31,7.26-2.6,11.57-.16-3.64-.3-6.52-.43-9.41.2,3.19-3.56,4.71-3.71,8l-1.89-20.49-1.16.09v12.37c-1.82-.71-.42-3.36-2.61-3.25-2,.1-1.2,2.49-2.48,3.38-1.81-1.58-.44-3.94-1.77-5.75-2.3,5.3-.88,10.87-2.09,16.19.9-13.89-1-27.28-7.23-39.67v33.5h-.45l-.85-12-1.44,0c-.2,2.94-.39,5.88-.61,9-1.12-2.05-.06-4.2-.72-6-1-2.59-1.32.45-2.08.43-1.28-4.93-.78-10,0-14.79a137.75,137.75,0,0,0,1.28-18.9c.37-16,.13-32,1.6-47.89.49-5.23.38-11.16,3.12-17.38,7.51,17.36,5.13,34.64,6,51.6V58.68c2,1.18.28,3.4,2.44,4.88V48.12c1.87,4.31.72,9.07,3.23,13.42,2.24-4.56-1.45-10.22,3.63-15.1,0,7.66-1.06,14.37.25,20.58,1.85,8.72.27,18.66,4.2,26,4.91,9.16,3.73,18.18,4.67,27.33C206.75,124.9,209.63,129.16,208,134ZM179.72,70.63l-.25-.12v40h.25Z"/><path class="cls-2" d="M295.65,121.65c-2.67-.17-1.19,2.58-1.68,2.95-4.59-13.61-2.62-28.07-3.42-41.32-.93,10.34.58,21.85-2.45,33.12V104.77c-4.37,15.67,2,32.06-3.78,48,0-3.69.2-7-1.74-9.9-.88,2.73-1.75,5.43-2.66,8.12a1.46,1.46,0,0,1-.78-.21c-.16-.21-.09-.59-.12-.89.22-.43.65-.85.65-1.27,0-13.73,3.91-27.23,2.28-41.06a47.92,47.92,0,0,1,.35-11c1.41,11.83.13,23.72,1.08,35.56,2.33-24.3.85-49,8.89-72.21.69.49.34,2.2.61,3.71s-.41,3.3,1.4,5.47c-.4-5.51.88-10,2.41-14.54a488.74,488.74,0,0,0,6.12,49.47l.71-9.84c.21,2.28,0,3.55.47,4.58,1.35,3.22-1.62,6.78,2.44,10.32,3.39,3,1.82,9.08,1.48,13.88-1.78,5.12-.18,10.55-1.83,15.73V113h-.68q-1,18-2,36c-4.28-9.37-2.92-19.65-4.41-29.59-1.95,11.53-.77,23.14-1.36,34.66l-1.3,0V122.23c.92-2.5.52-5-.26-7.51Q295.87,118.19,295.65,121.65Z"/><path class="cls-2" d="M176.85,214.91c1.9,1.75.31,4.47,2,6.84,1-3.32,1.84-6.27,3.08-10.49a75,75,0,0,0,3,25.89V224.06c3,8.45,1.67,16.13,3,23.61,2-7.77.6-15.76,2.12-23.57v25.08c2.29-11.47-.42-23.32,4-34.81v11.91h1.26V208.92h1c.48,3.36,1,6.72,1.4,10.09.17,1.38.2,2.72,2.09,2.71,0,12.4-.4,24.77-2.35,37a51.37,51.37,0,0,0-.33,8.95c.13,6.44-3.51,12.24-3.54,18.85-.7-2.88-1.39-5.76-2.09-8.64l-.71.06v25.17c-4.58-15.9-9.28-31.69-7.66-48.69-2.22,1.73-2.22,1.73-3.47,10.47-3.82-14.64-1.44-31.07-3.39-47.23C176.15,216.75,176,215.7,176.85,214.91Z"/><path class="cls-2" d="M338.84,105.08c-2.19,0-1.13,2.41-2.36,3.2l-1.19-3.37c-.3,3.21-.51,5.38-.8,8.52-1.75-7.36-.76-14.15-2.8-20.69-1.58,2.12-.38,4.65-1.29,6.69-.43-2.67.14-5.53-2-8.18-.27,3.77-.53,7.54-.85,12-.26-3.23-.47-5.83-.73-9-2.65,16.67-1.78,32.81-2.06,48.92-.06,2.93.59,6-.79,8.81-1.27-2-.5-4.22-.56-6.32-.75-25.32.07-50.62,1-75.91.57-15.17,2.26-30.31,2-45.57.09,6.89,5.11,12.87,3.05,20.11,2.28.14,1.49-2.26,3.5-2.54,1.22,16.27-.12,32.58.59,48.55,1-16-1.22-32.31,2-48.54C338.88,62.71,338.48,83.91,338.84,105.08Z"/><path class="cls-2" d="M70.41,270.11V241.23H71V259c2-4.11,4.19-8,5-12.43v13.4h.77q.85-20,1.69-40h.45v39l1.49.29c-.41-7.72,2.49-14.59,4.79-21.7v19.22c-1.17-10.3,4.72-19.86,2.5-31.17,2.38,2.49,1.15,4.55,2.15,6.38,1.54-.92.47-3,1.72-4,.68.74.05,3,2.24,1.89,1.59,3.52-1.09,6.75-.84,10,.69,8.69-2.37,17-1.86,25.64.21,3.55-.07,7.29-1.48,10.26-2.47,5.23-1.35,10.67-2.81,16.08-.31-1.76-.62-3.52-1.17-6.62-.59,2.92-.92,4.55-1.21,6-.17-2.48-.35-5.09-.53-7.69h-.47c-.27,2.44-.55,4.88-.82,7.32l-1,.06q-.36-5.68-.71-11.37l-.84,0v12.72l-1,0c-.36-4.92-.68-9.84-1.1-14.75-.09-1.05.58-2.67-.85-3-1.89-.47-2.37,1.19-3.35,2.64V262.14C71.5,265.26,72.78,268.45,70.41,270.11Z"/><path class="cls-2" d="M257.39,129.28c-1.64-1.57-.55-3.85-1.79-6.1-.48,2.37-3.58,2.17-3.57,5-.75-3.32,0-6.81-3.14-10v24c-2.47-3-1.45-6.48-2.23-10-1.67,2.67-1,5.67-2.44,9.53-2.34-12-1-22.84-1.94-33.55-.86-7.46,3.77-14.06,2.37-21.61l1.29.17v26.44c2.93-3.4,3.28-6.59,3.29-9.86,0-8.65.08-17.3,0-25.94,0-3.21.35-6.21,2.36-8.65.79,2-1.07,5.38,1.82,6.29,2,.62,1.71-2.2,2-3.33,4.24,18.18,1.94,37,2.5,55.66A6.41,6.41,0,0,1,257.39,129.28Z"/><path class="cls-2" d="M61.11,145V159.6c-1.74-.6-.58-2.33-1.89-3-.48,1.75-.94,3.46-1.47,5.43-1.72-4.78-3.16-9.47-7.23-14-1,6.34-.87,11.8-3.51,16.76-.36-8-.71-16-1.11-25-1.21,3.06-1.15,5.5-3,7.69-5.51-23.74-5.12-47.55-5-71.34,2.63-2.48.74-5.62,1.21-8.42.34-2-.37-4.18,1.13-6.2C39.93,70,42.75,78.11,43.1,86.58c.43,10.3.56,20.64,1.31,30.89.55,7.52,2.44,15,2.59,22.64.08,4,4.22,3.68,5.15,3.49,2.29-.46.32-3.48,1.43-4.87.48,1.94-.22,4.9,3.27,5.8.13-1.69.26-3.32.41-5.16C60.27,140.19,58.9,143.85,61.11,145Z"/><path class="cls-2" d="M279,207.82c.14-1.64.29-3.28.5-5.62,1.92,2.05.39,4.43,2.12,6.06,1-4.18-.23-8.59,2.15-13.06a24.46,24.46,0,0,1,.72,11.48c-1,7.13,3.75,13.34,2.78,20.53,1.35-2.33,1.05-5.17,3-8,.36,6.11.69,11.59,1,17.06l1.26.08V216.54h1.28v19.4c5-3.81,3.73-9.25,4.22-14.21.24-2.39.38-4.62,3.47-5.24,2.75-.55,1.72-3.57,3-5.25,1.21,3.13-.66,7,2.41,9.59a57.15,57.15,0,0,0-2.81,16.75c-1.18-6.07,0-12.53-3.57-18.91-1.16,5.41-.39,10.23-.67,15-.09,1.58,1.06,3.88-1.88,4.26l-.8.24.65.62v3.49l-2.65-3.11c-.93,6.64.18,13.09-2,19.32q-.36-7-.72-13.93c-.62,6.91-1.26,13.87-1.93,21.28-.31-2.32-.56-4.24-.81-6.16h-.44l-.94,6.18c-1.56-6.66-.84-13.37-1.2-20-.08-1.56,2-4.81-2.3-4.63a10.94,10.94,0,0,1-.7-3.7c-.07-6,0-11.94,0-17.91h-1.41v14.87l-1.33,0C280.52,225.57,282.46,216.39,279,207.82Z"/><path class="cls-2" d="M153,138c-1.95-1-1.82,1.07-2.56,2.77-.77-7.3.44-13.74-2.21-19.91v24.41c-2.48-3.46-.69-6.71-2.9-10.31-.36,4.25-.64,7.57-.92,10.9l-.56-.07q-1.08-8.42-2.14-16.85l-.51,0c-.25,4.25-.5,8.5-.8,13.5-1.73-2.59-.41-5.18-1.94-7.08-1.23,2.34-.59,4.91-1.4,7.31a21.88,21.88,0,0,1-.23-9.73c2-1.33.94-3.35,1-5,.14-8,.07-16,.07-24h1.9v17.43l1.35,0c-.59-9.46,1.13-18.69,2.45-27.86.24,1.53.5,3.23.88,5.7,2.69-5.16.73-10.13,2.24-15.9.33,3.62.54,6,.77,8.57,2.45-.24,1.23-2.49,2.21-3.31.22,4.22.18,8.49.69,12.7C151.81,113.48,152.43,125.71,153,138Z"/><path class="cls-2" d="M245,220.5c2.61.15,1.7-2,1.89-3.17.5-3,.74-6.09,1.44-9.16.41,3.73,4.44,5.7,4.22,9.68,1.42-2.46.39-5.74,3.12-7.22,1,3.6-1,7.86,2.23,11.15-2.41,9.36.11,19.06-2.32,28.57-1.39,5.44-.25,11.52-.25,17.64-2.81-.62-1.12-3.5-3.91-3.77-.22,4.06-.43,8.09-.64,12.12.61-16.95-3.36-33.64-2.41-51.25-2.33,4.2-2.41,4.53-2.48,10.55,0,3.46,0,6.93-.25,10.4A69.85,69.85,0,0,1,245,220.5Z"/><path class="cls-2" d="M137.9,218.91c1.6,3.6.4,7.56,1.45,11.32,1.37-.51.51-2,1.11-2.66s-1.28-4.58,1.87-1.41c.27-.3.77-.61.77-.91.07-7.42,7-13.28,3.85-21.41l1.47.15c.2,3.13.4,6.27.65,10.3a17.74,17.74,0,0,0,3.12-11c4.32,3.86,2.11-2.1,4.05-2.3.34,1,.72,2.21,1.22,3.78.47-4.26,8.86-2,5.56-8.54,4.59,2,4.59,2,5.4-3.65,1.7,1.73.49,6.12,2.59,5.89,5.45-.6,2.69,2.61,2.78,4.57-1.89,1.05-4.55-3.58-5.94,1.6-.56-2-.91-3.21-1.26-4.47-1.75.57-1.48,2-1.28,3,1.18,5.28-6,3.87-6.43,8,0,.21-2-1.16-2.53-2.43-.29-.73-.37-1.76-1.51-1.57a1.91,1.91,0,0,0-1.74,2.09c.37,5-1.41,9.74-2,14.61-.8,6.92-.53,7-5.26,15.36-1.34-2.71-.34-5.65-1.42-9.05l-1.67,10.79c-3.8-.37-1.44-4-3.18-5.46-1.5,1.24-.24,3.24-2.27,5.81C137.41,233,136.61,226,137.9,218.91Zm3.6,17.64c-.1,0-.27,0-.3.12a.59.59,0,0,0-.07.44c.19.41.4.36.49-.12C141.65,236.85,141.54,236.7,141.5,236.55Z"/><path class="cls-2" d="M325.07,253.83c1.15.42,2.87-1.65,3.55.86.71-1.65-.19-3.58,1.46-5.77v23.71c1.69-15.46-1-31.08,2.53-46.48-.15,10.4,2.19,20.54,2.36,31.15,3-2.45-.53-6.59,3-8.47a121,121,0,0,1-1.31,24.39c-1-.55-.55-2.31-2.41-2.74-.13,2.2-.25,4.35-.37,6.53-1.47-.23-.22-2.11-1.75-2.22-.13,2.27-.26,4.53-.4,6.86-1-.7-.12-2.57-2.44-2.68-.25,3.3-.49,6.65-.74,10C327,277.24,324.66,265.66,325.07,253.83Z"/><path class="cls-2" d="M346.18,220.71c1.23-4.21.58-8.6,1.25-13.33,1.54,11.06,3.2,21.65,3.33,32.46.82-9.14,1.65-18.27,2.59-28.77,1.16,10.15-.28,19,1.51,27.67,1.37,10.17-3.46,19.79-2.77,30,.37-7.16-3.13-14-1.33-21.23a2.86,2.86,0,0,0-.64-2.3C345.26,237.59,348.16,228.76,346.18,220.71Z"/><path class="cls-2" d="M349.86,111.83c.42,9.12.41,18.21-1.12,27.23-2.09-2.47,0-7.79-4.49-7.13-2.86.42-1.38,5.11-1.55,7.84-.34,5.45-.1,10.93-.1,16.48-.51-.14-1-.21-1-.3-.71-14.68-3.37-29.25-2.56-44,1.79-1.06.8-3.05,1.39-4.24,2.88,6.1,2.67,13,3.19,20.15,4.26-4.39,4.17-4.4,4.51-10.19C348.22,115.64,347.43,113.2,349.86,111.83Z"/><path class="cls-2" d="M37.77,73.21c-.87,8.63-.35,17.28-.42,25.93a294.57,294.57,0,0,1-2.51,39.65A17.45,17.45,0,0,1,33.21,131c-.08-12.82,0-25.64-.43-38.44-.06-1.76,3.79-4.25-.48-5.62a1.83,1.83,0,0,1-.53-2.6c1.11-1,.68,1.1,1.37,1,2.1-.27,1.75-2,1.75-3.35,0-6.51,0-13,.39-19.57C35.34,66.26,39,69.2,37.77,73.21Z"/><path class="cls-2" d="M94.3,225.08c-.87-3.08.78-5.83,1.15-8.61.29.92.63,2,1.22,3.87,1.73-4,1.06-7.53,1.81-10.66,1.08,1.82.1,4.76,3.17,6.89,1.37-5.3,2.64-10.21,3.87-15,1.49,2.31,3.81,4.44,4.12,7.84.25-1.37.51-2.74.78-4.16,1.29,1.33,1,3.52,2.57,4.62.61,2.31.13,4.59,0,7-1.67-1-.41-3-1.7-4-1.89.22-1.62,2.68-3.27,3.3-1.61-1.11-.22-3.18-1.67-4.78-1.88,3.35-1,7.06-2,10.75-1.68-1-.49-3.35-2.22-4.17-5.69,5.93-2.08,13.75-4.59,20.53-.53-3.47-1-6.94-1.58-10.41C95.74,226.89,96.41,225.23,94.3,225.08Z"/><path class="cls-2" d="M175.74,135.75c.06,5.95.15,11.91.17,17.87,0,1.53-.14,3.15-2,.94-.11-.13-.43-.06-.66-.09,0,.5,0,1-.08,1.49-.17,2.27-.34,4.54-.68,6.82-.67-4.19-.21-8.54-2.06-12.53-.19,3.52-.38,7-.55,10.07-5.63-1.58-7.91-5.49-6.95-11.3,4,0,7.86-4.47,8.24-9.63.14-1.9-.52-3.89.59-6.07,1.74,1.5.42,3.66,1.48,5.09C174.92,138.32,174.25,136,175.74,135.75Z"/><path class="cls-2" d="M359.89,114c-2.86-.14-2.37,2.15-2.63,3.75-.38,2.24.4,4.61-1.17,8.13-.53-7.76-1-14.23-1.43-21-1.45,4.23-1.34,8.43-1.92,12.72-2-3.13.91-7.32-2.81-9.66-1.38-5.91-.31-11.83-.19-17.78,1.91,4.5.23,9.64,2.81,14.93,1.49-4.41.37-8.2,1.12-12,3.23,4.67,2.82,10.06,3.43,15.26,1.81-2.86,1.11-6,1.88-10.4C360.56,104.16,360.24,109.1,359.89,114Z"/><path class="cls-2" d="M208.15,137A3.5,3.5,0,0,1,208,134c2-1.84,0-4.51,1.3-6.48,1.82,0,.45,5.24,4.08,2.43.46-.36.32.75.37,1.13.71,5.58,1.33,11.18,2,16.77.35,2.84,1,3.28,3.55,2.62,1-.26.47.72.65,1.1.26.56.17,1.33,1.07,1.38.25,3.79-1.37,4.84-4.41,2.6-2.72-2-3.94-1.61-4.5,1.75V141.84c-2.08,2.72-.57,5.37-2.17,7.87-2.1-3.28-2.2-6.54-1.72-9.92.64-.17,1.28-.36,1.35-1.17C209.66,137.6,209.11,137.12,208.15,137Z"/><path class="cls-2" d="M278.49,148.27c-3.35,1.65-.83,4.64-1.91,6.5-1-1.65.06-5.86-2.93-5.72-2.27.11-1.41,4.18-2.4,6.35-.66,1.45-.56,3.24-.8,4.87l0,.23a2.73,2.73,0,0,0,.1-.48c.05-2.19-.88-4.31-3-4.15-5.89.44-6.93-4.55-9.57-7.79,2.28-3.6.28-7.78,1.78-11.77.15,3.06.47,5.9.36,8.72a4.86,4.86,0,0,0,3.14,4.5c2.08.7,1.55-1.83,1.76-3.16.16-1,.62-1.6,1.57-1.5s1.34.93,1.42,1.79c.2,2.15.33,4.31.51,6.8,4.09-1.69,2.92-5.47,3.65-8.41,2.49,2.81,3.26.54,4.35-1.85C277.48,145,279.55,145.86,278.49,148.27Z"/><path class="cls-2" d="M316.57,150.23c-3.66,1.78-.08,5.62-2.58,8-1.44-2.22-.61-4.91-1.47-7.33-1.06,3.22-2.07,6.32-3.43,10.45.65-10.57-1.85-20-1-29.52,2.11.41,3,1.64,2.9,3.83a21,21,0,0,0,.76,7.49c.21-2.58.43-5.17.71-8.48.51,4.72.95,8.72,1.41,12.91,1.9-.92,1-2.74,2.46-4C317.08,146,317.42,148,316.57,150.23Z"/><path class="cls-2" d="M366.92,129.87c1.16,6-2.47,11.7-1.1,17.75-1.81-3.77.93-8.51-3.31-12.3-.33,2.35-.59,4.18-.85,6h-.37L360,115.93c.85.51,1.93,2.8,2.38-.22s.68-5.85,1.21-8.77c.26,6.42,1.93,12.7,1.58,19.17C365.07,127.52,364.14,129.66,366.92,129.87Z"/><path class="cls-2" d="M201,216.93c2.94-3,1.34-7.05,2.55-10.33,2,3.58.72,7.9,2,12.73,1.28-6.61,2.39-12.38,3.51-18.14l.6,0q.28,4.23.56,8.44c-.27.16-.78.3-.8.49-.57,4.73.45,9.94-4.7,13.14C202.89,222,199.94,220.77,201,216.93Z"/><path class="cls-2" d="M53.06,198.89c2-1.85.61-4.88,2.37-6.65.62,2.2,2,3.1,4.24,2.33a1.22,1.22,0,0,1,1.81,1c.74,3.16,3.1,5.91,2.45,9.43-2-.29-2.5-1.86-3-3.47-1.88-.08-.52,3-2.12,2.41-2.54-1-.47-4-1.95-5.69C54.66,200.15,53.38,200.37,53.06,198.89Z"/><path class="cls-2" d="M130.45,143.63c.93,7.74-1.12,9.73-8.39,8.2a6.38,6.38,0,0,0-1.92.18c0-.7,0-1.41-.07-2.11l0,.06c2.47-.29,1-2.67,2.13-4,.39.93.73,1.74,1.26,3C125.45,146.56,126.35,142.78,130.45,143.63Z"/><path class="cls-2" d="M113.72,141.93c-2-.88-.74-2.57-.84-3.83-.22-2.49-1.44-2.49-3.24-1.78-1.83-5.2,3.48-8.13,4.08-12.39C114.4,129.8,115.92,135.85,113.72,141.93Z"/><path class="cls-2" d="M307.18,219c1.09-7.57,2.19-15.14,3.23-22.28,1.16,4.37-.91,9.55,1.63,14.22C311.19,214.1,308.73,216.28,307.18,219Z"/><path class="cls-2" d="M323.69,157.72c2.2,5-2.11,5.79-4.78,5.92-2.11.1-2.89-3-2.73-5.39.13-1.94-.55-3.94.33-5.85,4.17,1.53.63,5.74,3.08,8.31C320.78,159.55,321.89,158.06,323.69,157.72Z"/><path class="cls-2" d="M29.74,121.74c.76,6.86.24,13.73.16,20.78-1.19-.74-.45-2.5-1.93-2.72-.52-4.45-1.83-8.86-.48-13.4C28,124.71,28,122.8,29.74,121.74Z"/><path class="cls-2" d="M158.92,146.93c-4.74,1.42-5.63.6-5.67-5.15l2.67-2c.13.47.45,1.42.66,2.39s.31,2,.49,3.18c1.4-.68,1-1.92,1.34-3.08C159,143.9,159.74,145.32,158.92,146.93Z"/><path class="cls-2" d="M117,150.88c0,1.52,1,4.09-.93,4.19-2.57.13-1.75-2.72-1.94-4.42a16.16,16.16,0,0,1,.22-2.92c2.31-.31,5.15-2,5.69,2.23l0-.06-1.43,0h-1.18l-1,.43Z"/><path class="cls-2" d="M31.29,99.94c.91,4.47-.15,8.74-1.38,13C29.11,108.47,28.2,104,31.29,99.94Z"/><path class="cls-2" d="M113.29,206.8c.39-4.41.78-8.82,1.27-14.23.26,5.42,1.77,9.76.9,14.3Z"/><path class="cls-2" d="M69.87,287.27c-2.39-5.57,1-9.93.63-14.6C70.57,277.31,71.73,282,69.87,287.27Z"/><path class="cls-2" d="M136.33,115.91l-1.24.08a25.74,25.74,0,0,1,.86-10C136.92,109.31,137.41,112.59,136.33,115.91Z"/><path class="cls-2" d="M210.74,215.94l2.17-1.12a17.23,17.23,0,0,1-.72,8.11C211,220.7,209.64,218.57,210.74,215.94Z"/><path class="cls-2" d="M173.92,204.92c.86-.24,1.71-1.41,2.57-.42a2.18,2.18,0,0,1,0,2.7c-2.72.55-.83,3.12-2.14,4.5C173.3,209.46,172.6,207.29,173.92,204.92Z"/><path class="cls-2" d="M31.18,285.08V268.35h.6V285.3Z"/><path class="cls-2" d="M358.15,223.79l1.69,1a29.7,29.7,0,0,1-.24,9.45C358.88,230.75,357.69,227.4,358.15,223.79Z"/><path class="cls-2" d="M115.66,208.54l2.09.14c.31,1.74.65,4.36-1.41,4.23C114.52,212.8,115.13,210.19,115.66,208.54Z"/><path class="cls-2" d="M243.1,215c-.18-1.4-.86-3.65.93-3.67,2,0,.94,2.17.83,3.48Z"/><path class="cls-2" d="M162.93,149l-.44,0-.43-.1.51-1Z"/><path class="cls-3" d="M297.86,238.76l-.65-.62.8-.24C298,238.19,297.92,238.47,297.86,238.76Z"/><path class="cls-4" d="M208.15,137c1,.09,1.51.57,1.42,1.59-.07.81-.71,1-1.35,1.17C208.19,138.87,208.17,138,208.15,137Z"/><path class="cls-4" d="M118.64,150l1.43,0c0,.7.05,1.41.07,2.11C117.93,152.57,119.66,150.27,118.64,150Z"/><path class="cls-2" d="M160.5,155.23c-.34-.73-.57-1.43.13-2.08A1.54,1.54,0,0,1,160.5,155.23Z"/><path class="cls-4" d="M117,150.88l-.58-.5,1-.43Z"/><path class="cls-4" d="M179.72,70.63v39.88h-.25v-40Z"/><path class="cls-3" d="M295.65,121.65q.23-3.47.46-6.93c.78,2.52,1.18,5,.26,7.51Z"/><path class="cls-4" d="M141.5,236.55c0,.15.15.3.12.44-.09.48-.3.53-.49.12a.59.59,0,0,1,.07-.44C141.23,236.6,141.4,236.59,141.5,236.55Z"/></svg>