<svg version="1.1" xmlns="http://www.w3.org/2000/svg" xmlns:xlink="http://www.w3.org/1999/xlink" x="0px" y="0px" viewBox="0 0 1000 1000" enable-background="new 0 0 1000 1000" xml:space="preserve"><path d="M928.8,101.9H71.3c-33.8,0-61.3,27.4-61.3,61.3v673.8c0,33.8,27.4,61.3,61.3,61.3h857.5c33.8,0,61.3-27.4,61.3-61.3V163.1C990,129.3,962.6,101.9,928.8,101.9z M898.1,806.3H101.9V337.7l358.7,301c11.4,9.6,25.4,14.4,39.4,14.4c14,0,28-4.8,39.4-14.4l358.7-301V806.3z M898.1,217.8L500,551.8L101.9,217.8v-24h796.3V217.8z" fill="#ffffff"/>
</svg>
