<svg id="Layer_1" data-name="Layer 1" xmlns="http://www.w3.org/2000/svg" viewBox="0 0 373 217"><defs><style>.cls-1{fill:#e76f51;}.cls-2{fill:#274653;}.cls-3{fill:none;stroke-width:2px;}.cls-3,.cls-4{stroke:#274653;stroke-miterlimit:10;}.cls-4{fill:#f4a261;}</style></defs><path class="cls-1" d="M36.91,90.64c8.4,19.35,10.31,41.83,10.31,41.83S70,121.51,78,121.62s-6.75-31.23-5.2-35.05S84.7,88.23,84.7,88.23s7-14.17,8-14-13.45-4.91-22.09-8.13c-2.81-1-15.84-2.22-15.84-2.22s5,7.77-1.39,9.91-11.74-2.65-13.31-5.9-22.57,17-21,20.29,7.67,10.16,7.67,10.16Z"/><path class="cls-2" d="M44.11,141.05c3.21,2.53,11.62,3.07,19.89.88s18-9.68,18-9.68,5.48,46.75,9.84,48.56-3.52,9.49-9.42,10.53a39.68,39.68,0,0,1-9.64,0l-3.9-18.84L65,191.75s-7.24,6-12.86,5.11c-8.12-1.22-4.82-7.6-4.82-7.6Z"/><path class="cls-3" d="M186.65,30c-3.22,4.55,0,38.18,0,38.18S210,89.09,210,90"/><path class="cls-4" d="M237,72c0,28-22.44,51.67-50,50-33-2-50-22.39-50-50s22.64-46.23,50-50C216,18,237,44.39,237,72ZM185.51,14.46c-31.36,4.33-57.32,25.67-57.32,57.32s19.49,55,57.32,57.32c31.6,1.92,57.32-25.22,57.32-57.32C242.83,40.13,218.75,9.88,185.51,14.46Z"/><path class="cls-3" d="M226.2,146.65s17.38,33.08,15.71,39.58,89.58-16.29,95.32-13.43-9.93-45.94-8.4-48.32-103,20.22-103,20.22"/><path class="cls-2" d="M252.41,145.46l-12.63,2.75a1.51,1.51,0,0,0-.89,2.2l3.68,7.23,1.79,3.51c.53,1,.95,2.33,2.11,2.81,1.79.75,4.17,0,5.9-.61a49.32,49.32,0,0,1,6.21-2.21,1.51,1.51,0,0,0-.4-2.95c-4.19.18-8.11,1.53-12.13,2.59a1.51,1.51,0,0,0-1.05,1.85c1.73,4.28,2.24,8.93,3.76,13.28.31.9.61,2.13,1.51,2.62s2.38,0,3.42-.2l8.26-1.8c1.89-.41,1.09-3.31-.79-2.89l-7.09,1.54-1.89.41-.47.11c-.72.08-.63.18.26.3a18.63,18.63,0,0,0-.91-2.74c-1.08-3.8-1.68-7.75-3.17-11.43l-1,1.84c3.74-1,7.42-2.31,11.33-2.48l-.4-2.94a32,32,0,0,0-5.09,1.78,23.53,23.53,0,0,1-2.6.91c-.53.14-2.1.55-2.42.25a14.63,14.63,0,0,1-.61-1.33l-.78-1.54-1.57-3.07-3.23-6.36-.9,2.21,12.63-2.75c1.88-.41,1.08-3.31-.8-2.89Z"/><path class="cls-2" d="M272.17,172.48a225.31,225.31,0,0,1,3.23-30.88c.33-1.89-2.56-2.7-2.89-.8a230.75,230.75,0,0,0-3.34,31.68c-.06,1.93,2.94,1.93,3,0Z"/><path class="cls-2" d="M261.8,147.06l26.45,26.2a1.5,1.5,0,0,0,2.12-2.12l-26.44-26.2c-1.38-1.36-3.5.76-2.13,2.12Z"/><path class="cls-2" d="M288.87,140.76,295,168.18c.43,1.88,3.32,1.08,2.9-.8L291.77,140c-.42-1.88-3.32-1.09-2.9.8Z"/><path class="cls-2" d="M308.49,137.32q2.58,13.27,5.89,26.4c.47,1.87,3.37,1.08,2.89-.79q-3.3-13.12-5.89-26.41c-.37-1.89-3.26-1.09-2.89.8Z"/><path class="cls-2" d="M302.75,139.21a120.64,120.64,0,0,1,17.1-2.77c1.91-.17,1.93-3.17,0-3A125.78,125.78,0,0,0,302,136.32c-1.88.45-1.09,3.34.79,2.89Z"/></svg>