<?xml version="1.0"?>
<svg xmlns:rdf="http://www.w3.org/1999/02/22-rdf-syntax-ns#" xmlns="http://www.w3.org/2000/svg" xmlns:cc="http://creativecommons.org/ns#" xmlns:dc="http://purl.org/dc/elements/1.1/" xmlns:svg="http://www.w3.org/2000/svg" id="svg2" viewBox="0 0 200 140" version="1.1">
  <g id="layer1" transform="translate(-265.15 -272.29)">
    <g id="g2830" transform="translate(7.8243 -6.6832)">
      <path id="path2846" stroke-width="8" stroke="#000" fill-rule="evenodd" d="m375.19 285.03-109.72 32.97v41.781l71.312 53.125 112.41-69.031v-38.375l-74-20.469z"/>
      <path id="path2852" fill-rule="evenodd" fill="#1a1a1a" d="m265.47 317.98 71.304 39.833 112.41-52.334-73.995-20.453z"/>
      <path id="path2854" fill-rule="evenodd" fill="#333" d="m336.78 357.82v55.087l112.41-69.037v-38.384z"/>
      <path id="path2856" opacity="0" d="m265.47 317.98 71.304 39.833v55.087l-71.304-53.125z"/>
      <path id="path3707" stroke-width="3.6372" stroke="#000" transform="matrix(.95948 .073542 -.049356 1.2567 30.654 -109.28)" d="m366.63 315.47c0 2.5872-6.0151 4.6846-13.435 4.6846-7.42 0-13.435-2.0974-13.435-4.6846s6.0151-4.6846 13.435-4.6846c7.42 0 13.435 2.0974 13.435 4.6846z"/>
      <g id="g3673" transform="translate(2.1213 -2.1213)" fill="#999">
        <path id="path2865" transform="matrix(1.2437 0 0 1.9079 -79.514 -285.5)" d="m357.22 314.89c0 1.3942-3.3908 2.5245-7.5735 2.5245s-7.5735-1.1302-7.5735-2.5245c0-1.3942 3.3908-2.5245 7.5735-2.5245s7.5735 1.1302 7.5735 2.5245z"/>
        <rect id="rect2869" y="303.82" width="18.838" x="345.91" height="11.479"/>
        <path id="path3643" transform="matrix(1.1763 0 0 1.1763 -64.535 -57.167)" d="m364.95 306.89c0 4.4224-3.585 8.0074-8.0074 8.0074s-8.0074-3.585-8.0074-8.0074 3.585-8.0074 8.0074-8.0074 8.0074 3.585 8.0074 8.0074z"/>
      </g>
      <path id="path3711" stroke="#000" stroke-width="4" fill="#d40000" d="m357.44 292.28c-5.2019 0-9.4062 4.2044-9.4062 9.4062v11.5c0 2.6601 4.2044 4.8125 9.4062 4.8125 5.2019 0 9.4375-2.1524 9.4375-4.8125v-11.5c0-5.2019-4.2356-9.4062-9.4375-9.4062z"/>
    </g>
  </g>
  <metadata>
    <rdf:RDF>
      <cc:Work>
        <dc:format>image/svg+xml</dc:format>
        <dc:type rdf:resource="http://purl.org/dc/dcmitype/StillImage"/>
        <cc:license rdf:resource="http://creativecommons.org/licenses/publicdomain/"/>
        <dc:publisher>
          <cc:Agent rdf:about="http://openclipart.org/">
            <dc:title>Openclipart</dc:title>
          </cc:Agent>
        </dc:publisher>
        <dc:title>The Internet</dc:title>
        <dc:date>2010-12-21T11:45:26</dc:date>
        <dc:description>The internet, as shown in the TV-series "The IT-Crowd".</dc:description>
        <dc:source>http://openclipart.org/detail/101491/the-internet-by-lemmling-101491</dc:source>
        <dc:creator>
          <cc:Agent>
            <dc:title>lemmling</dc:title>
          </cc:Agent>
        </dc:creator>
        <dc:subject>
          <rdf:Bag>
            <rdf:li>box</rdf:li>
            <rdf:li>clip art</rdf:li>
            <rdf:li>clipart</rdf:li>
            <rdf:li>internet</rdf:li>
            <rdf:li>it-crowd</rdf:li>
          </rdf:Bag>
        </dc:subject>
      </cc:Work>
      <cc:License rdf:about="http://creativecommons.org/licenses/publicdomain/">
        <cc:permits rdf:resource="http://creativecommons.org/ns#Reproduction"/>
        <cc:permits rdf:resource="http://creativecommons.org/ns#Distribution"/>
        <cc:permits rdf:resource="http://creativecommons.org/ns#DerivativeWorks"/>
      </cc:License>
    </rdf:RDF>
  </metadata>
</svg>
